  0
SECTION
  2
BLOCKS
  0
ENDSEC
  0
SECTION
  2
ENTITIES
  0
LINE
  8
0
 10
7.01447
 20
-26.6028
 11
7.10693
 21
-26.6004
  0
LINE
  8
0
 10
7.10693
 20
-26.6004
 11
7.19936
 21
-26.5964
  0
LINE
  8
0
 10
7.19936
 20
-26.5964
 11
7.29169
 21
-26.5907
  0
LINE
  8
0
 10
7.29169
 20
-26.5907
 11
7.3839
 21
-26.5835
  0
LINE
  8
0
 10
7.3839
 20
-26.5835
 11
7.47597
 21
-26.5746
  0
LINE
  8
0
 10
7.47597
 20
-26.5746
 11
7.56789
 21
-26.5641
  0
LINE
  8
0
 10
7.56789
 20
-26.5641
 11
7.65959
 21
-26.5521
  0
LINE
  8
0
 10
7.65959
 20
-26.5521
 11
7.75107
 21
-26.5384
  0
LINE
  8
0
 10
7.75107
 20
-26.5384
 11
7.84232
 21
-26.5231
  0
LINE
  8
0
 10
7.84232
 20
-26.5231
 11
7.93326
 21
-26.5063
  0
LINE
  8
0
 10
7.93326
 20
-26.5063
 11
8.02391
 21
-26.4878
  0
LINE
  8
0
 10
8.02391
 20
-26.4878
 11
8.11421
 21
-26.4678
  0
LINE
  8
0
 10
8.11421
 20
-26.4678
 11
8.20416
 21
-26.4462
  0
LINE
  8
0
 10
8.20416
 20
-26.4462
 11
8.29372
 21
-26.4231
  0
LINE
  8
0
 10
8.29372
 20
-26.4231
 11
8.38286
 21
-26.3983
  0
LINE
  8
0
 10
8.38286
 20
-26.3983
 11
8.47154
 21
-26.3721
  0
LINE
  8
0
 10
8.47154
 20
-26.3721
 11
8.55977
 21
-26.3443
  0
LINE
  8
0
 10
8.55977
 20
-26.3443
 11
8.64749
 21
-26.3149
  0
LINE
  8
0
 10
8.64749
 20
-26.3149
 11
8.73468
 21
-26.284
  0
LINE
  8
0
 10
8.73468
 20
-26.284
 11
8.82132
 21
-26.2516
  0
LINE
  8
0
 10
8.82132
 20
-26.2516
 11
8.90739
 21
-26.2177
  0
LINE
  8
0
 10
8.90739
 20
-26.2177
 11
8.99284
 21
-26.1823
  0
LINE
  8
0
 10
8.99284
 20
-26.1823
 11
9.07768
 21
-26.1454
  0
LINE
  8
0
 10
9.07768
 20
-26.1454
 11
9.16185
 21
-26.1071
  0
LINE
  8
0
 10
9.16185
 20
-26.1071
 11
9.24535
 21
-26.0673
  0
LINE
  8
0
 10
9.24535
 20
-26.0673
 11
9.32812
 21
-26.026
  0
LINE
  8
0
 10
9.32812
 20
-26.026
 11
9.41017
 21
-25.9833
  0
LINE
  8
0
 10
9.41017
 20
-25.9833
 11
9.49147
 21
-25.9391
  0
LINE
  8
0
 10
9.49147
 20
-25.9391
 11
9.57198
 21
-25.8936
  0
LINE
  8
0
 10
9.57198
 20
-25.8936
 11
9.65167
 21
-25.8466
  0
LINE
  8
0
 10
9.65167
 20
-25.8466
 11
9.73055
 21
-25.7983
  0
LINE
  8
0
 10
9.73055
 20
-25.7983
 11
9.80856
 21
-25.7486
  0
LINE
  8
0
 10
9.80856
 20
-25.7486
 11
9.8857
 21
-25.6976
  0
LINE
  8
0
 10
9.8857
 20
-25.6976
 11
9.96193
 21
-25.6452
  0
LINE
  8
0
 10
9.96193
 20
-25.6452
 11
10.0372
 21
-25.5914
  0
LINE
  8
0
 10
10.0372
 20
-25.5914
 11
10.1116
 21
-25.5364
  0
LINE
  8
0
 10
10.1116
 20
-25.5364
 11
10.185
 21
-25.4801
  0
LINE
  8
0
 10
10.185
 20
-25.4801
 11
10.2574
 21
-25.4225
  0
LINE
  8
0
 10
10.2574
 20
-25.4225
 11
10.3288
 21
-25.3637
  0
LINE
  8
0
 10
10.3288
 20
-25.3637
 11
10.3991
 21
-25.3036
  0
LINE
  8
0
 10
10.3991
 20
-25.3036
 11
10.4684
 21
-25.2423
  0
LINE
  8
0
 10
10.4684
 20
-25.2423
 11
10.5366
 21
-25.1798
  0
LINE
  8
0
 10
10.5366
 20
-25.1798
 11
10.6037
 21
-25.1162
  0
LINE
  8
0
 10
10.6037
 20
-25.1162
 11
10.6696
 21
-25.0513
  0
LINE
  8
0
 10
10.6696
 20
-25.0513
 11
10.7345
 21
-24.9854
  0
LINE
  8
0
 10
10.7345
 20
-24.9854
 11
10.7981
 21
-24.9182
  0
LINE
  8
0
 10
10.7981
 20
-24.9182
 11
10.8606
 21
-24.8501
  0
LINE
  8
0
 10
10.8606
 20
-24.8501
 11
10.9219
 21
-24.7808
  0
LINE
  8
0
 10
10.9219
 20
-24.7808
 11
10.982
 21
-24.7104
  0
LINE
  8
0
 10
10.982
 20
-24.7104
 11
11.0408
 21
-24.6391
  0
LINE
  8
0
 10
11.0408
 20
-24.6391
 11
11.0984
 21
-24.5667
  0
LINE
  8
0
 10
11.0984
 20
-24.5667
 11
11.1547
 21
-24.4933
  0
LINE
  8
0
 10
11.1547
 20
-24.4933
 11
11.2098
 21
-24.4189
  0
LINE
  8
0
 10
11.2098
 20
-24.4189
 11
11.2635
 21
-24.3436
  0
LINE
  8
0
 10
11.2635
 20
-24.3436
 11
11.3159
 21
-24.2674
  0
LINE
  8
0
 10
11.3159
 20
-24.2674
 11
11.3669
 21
-24.1902
  0
LINE
  8
0
 10
11.3669
 20
-24.1902
 11
11.4166
 21
-24.1122
  0
LINE
  8
0
 10
11.4166
 20
-24.1122
 11
11.465
 21
-24.0334
  0
LINE
  8
0
 10
11.465
 20
-24.0334
 11
11.5119
 21
-23.9537
  0
LINE
  8
0
 10
11.5119
 20
-23.9537
 11
11.5575
 21
-23.8732
  0
LINE
  8
0
 10
11.5575
 20
-23.8732
 11
11.6016
 21
-23.7919
  0
LINE
  8
0
 10
11.6016
 20
-23.7919
 11
11.6443
 21
-23.7098
  0
LINE
  8
0
 10
11.6443
 20
-23.7098
 11
11.6856
 21
-23.627
  0
LINE
  8
0
 10
11.6856
 20
-23.627
 11
11.7254
 21
-23.5435
  0
LINE
  8
0
 10
11.7254
 20
-23.5435
 11
11.7638
 21
-23.4594
  0
LINE
  8
0
 10
11.7638
 20
-23.4594
 11
11.8006
 21
-23.3745
  0
LINE
  8
0
 10
11.8006
 20
-23.3745
 11
11.836
 21
-23.2891
  0
LINE
  8
0
 10
11.836
 20
-23.2891
 11
11.8699
 21
-23.203
  0
LINE
  8
0
 10
11.8699
 20
-23.203
 11
11.9023
 21
-23.1164
  0
LINE
  8
0
 10
11.9023
 20
-23.1164
 11
11.9332
 21
-23.0292
  0
LINE
  8
0
 10
11.9332
 20
-23.0292
 11
11.9626
 21
-22.9415
  0
LINE
  8
0
 10
11.9626
 20
-22.9415
 11
11.9904
 21
-22.8532
  0
LINE
  8
0
 10
11.9904
 20
-22.8532
 11
12.0167
 21
-22.7645
  0
LINE
  8
0
 10
12.0167
 20
-22.7645
 11
12.0414
 21
-22.6754
  0
LINE
  8
0
 10
12.0414
 20
-22.6754
 11
12.0645
 21
-22.5858
  0
LINE
  8
0
 10
12.0645
 20
-22.5858
 11
12.0861
 21
-22.4959
  0
LINE
  8
0
 10
12.0861
 20
-22.4959
 11
12.1062
 21
-22.4056
  0
LINE
  8
0
 10
12.1062
 20
-22.4056
 11
12.1246
 21
-22.3149
  0
LINE
  8
0
 10
12.1246
 20
-22.3149
 11
12.1414
 21
-22.224
  0
LINE
  8
0
 10
12.1414
 20
-22.224
 11
12.1567
 21
-22.1328
  0
LINE
  8
0
 10
12.1567
 20
-22.1328
 11
12.1704
 21
-22.0413
  0
LINE
  8
0
 10
12.1704
 20
-22.0413
 11
12.1825
 21
-21.9496
  0
LINE
  8
0
 10
12.1825
 20
-21.9496
 11
12.1929
 21
-21.8577
  0
LINE
  8
0
 10
12.1929
 20
-21.8577
 11
12.2018
 21
-21.7656
  0
LINE
  8
0
 10
12.2018
 20
-21.7656
 11
12.2091
 21
-21.6734
  0
LINE
  8
0
 10
12.2091
 20
-21.6734
 11
12.2147
 21
-21.581
  0
LINE
  8
0
 10
12.2147
 20
-21.581
 11
12.2188
 21
-21.4886
  0
LINE
  8
0
 10
12.2188
 20
-21.4886
 11
12.2212
 21
-21.3961
  0
LINE
  8
0
 10
12.2212
 20
-21.3961
 11
12.222
 21
-21.3037
  0
LINE
  8
0
 10
12.222
 20
-21.3037
 11
12.2212
 21
-21.2112
  0
LINE
  8
0
 10
12.2212
 20
-21.2112
 11
12.2188
 21
-21.1187
  0
LINE
  8
0
 10
12.2188
 20
-21.1187
 11
12.2147
 21
-21.0263
  0
LINE
  8
0
 10
12.2147
 20
-21.0263
 11
12.2091
 21
-20.9339
  0
LINE
  8
0
 10
12.2091
 20
-20.9339
 11
12.2018
 21
-20.8417
  0
LINE
  8
0
 10
12.2018
 20
-20.8417
 11
12.1929
 21
-20.7497
  0
LINE
  8
0
 10
12.1929
 20
-20.7497
 11
12.1825
 21
-20.6577
  0
LINE
  8
0
 10
12.1825
 20
-20.6577
 11
12.1704
 21
-20.566
  0
LINE
  8
0
 10
12.1704
 20
-20.566
 11
12.1567
 21
-20.4745
  0
LINE
  8
0
 10
12.1567
 20
-20.4745
 11
12.1414
 21
-20.3833
  0
LINE
  8
0
 10
12.1414
 20
-20.3833
 11
12.1246
 21
-20.2924
  0
LINE
  8
0
 10
12.1246
 20
-20.2924
 11
12.1062
 21
-20.2017
  0
LINE
  8
0
 10
12.1062
 20
-20.2017
 11
12.0861
 21
-20.1114
  0
LINE
  8
0
 10
12.0861
 20
-20.1114
 11
12.0645
 21
-20.0215
  0
LINE
  8
0
 10
12.0645
 20
-20.0215
 11
12.0414
 21
-19.9319
  0
LINE
  8
0
 10
12.0414
 20
-19.9319
 11
12.0167
 21
-19.8428
  0
LINE
  8
0
 10
12.0167
 20
-19.8428
 11
11.9904
 21
-19.7541
  0
LINE
  8
0
 10
11.9904
 20
-19.7541
 11
11.9626
 21
-19.6659
  0
LINE
  8
0
 10
11.9626
 20
-19.6659
 11
11.9332
 21
-19.5781
  0
LINE
  8
0
 10
11.9332
 20
-19.5781
 11
11.9023
 21
-19.491
  0
LINE
  8
0
 10
11.9023
 20
-19.491
 11
11.8699
 21
-19.4043
  0
LINE
  8
0
 10
11.8699
 20
-19.4043
 11
11.836
 21
-19.3182
  0
LINE
  8
0
 10
11.836
 20
-19.3182
 11
11.8006
 21
-19.2328
  0
LINE
  8
0
 10
11.8006
 20
-19.2328
 11
11.7854
 21
-19.1977
  0
LINE
  8
0
 10
11.7854
 20
-19.1977
 11
11.808
 21
-19.1903
  0
LINE
  8
0
 10
11.808
 20
-19.1903
 11
11.709
 21
-19.0293
  0
LINE
  8
0
 10
11.709
 20
-19.0293
 11
11.6856
 21
-18.9803
  0
LINE
  8
0
 10
11.6856
 20
-18.9803
 11
11.6443
 21
-18.8975
  0
LINE
  8
0
 10
11.6443
 20
-18.8975
 11
11.6016
 21
-18.8155
  0
LINE
  8
0
 10
11.6016
 20
-18.8155
 11
11.5575
 21
-18.7342
  0
LINE
  8
0
 10
11.5575
 20
-18.7342
 11
11.5119
 21
-18.6537
  0
LINE
  8
0
 10
11.5119
 20
-18.6537
 11
11.465
 21
-18.574
  0
LINE
  8
0
 10
11.465
 20
-18.574
 11
11.4166
 21
-18.4951
  0
LINE
  8
0
 10
11.4166
 20
-18.4951
 11
11.3669
 21
-18.4171
  0
LINE
  8
0
 10
11.3669
 20
-18.4171
 11
11.3159
 21
-18.3399
  0
LINE
  8
0
 10
11.3159
 20
-18.3399
 11
11.2635
 21
-18.2637
  0
LINE
  8
0
 10
11.2635
 20
-18.2637
 11
11.2098
 21
-18.1884
  0
LINE
  8
0
 10
11.2098
 20
-18.1884
 11
11.1547
 21
-18.114
  0
LINE
  8
0
 10
11.1547
 20
-18.114
 11
11.1095
 21
-18.0551
  0
LINE
  8
0
 10
11.1095
 20
-18.0551
 11
3.75993
 21
-6.11061
  0
LINE
  8
0
 10
3.75993
 20
-6.11061
 11
3.80217
 21
-6.08473
  0
LINE
  8
0
 10
3.80217
 20
-6.08473
 11
3.90778
 21
-6.01746
  0
LINE
  8
0
 10
3.90778
 20
-6.01746
 11
4.01221
 21
-5.94833
  0
LINE
  8
0
 10
4.01221
 20
-5.94833
 11
4.1154
 21
-5.87741
  0
LINE
  8
0
 10
4.1154
 20
-5.87741
 11
4.21735
 21
-5.80469
  0
LINE
  8
0
 10
4.21735
 20
-5.80469
 11
4.31801
 21
-5.73021
  0
LINE
  8
0
 10
4.31801
 20
-5.73021
 11
4.41736
 21
-5.65398
  0
LINE
  8
0
 10
4.41736
 20
-5.65398
 11
4.51537
 21
-5.57602
  0
LINE
  8
0
 10
4.51537
 20
-5.57602
 11
4.612
 21
-5.49637
  0
LINE
  8
0
 10
4.612
 20
-5.49637
 11
4.64966
 21
-5.4642
  0
LINE
  8
0
 10
4.64966
 20
-5.4642
 11
13.7384
 21
-16.1451
  0
LINE
  8
0
 10
13.7384
 20
-16.1451
 11
13.7805
 21
-16.2063
  0
LINE
  8
0
 10
13.7805
 20
-16.2063
 11
13.8342
 21
-16.2816
  0
LINE
  8
0
 10
13.8342
 20
-16.2816
 11
13.8892
 21
-16.356
  0
LINE
  8
0
 10
13.8892
 20
-16.356
 11
13.9455
 21
-16.4294
  0
LINE
  8
0
 10
13.9455
 20
-16.4294
 11
14.0031
 21
-16.5018
  0
LINE
  8
0
 10
14.0031
 20
-16.5018
 11
14.0619
 21
-16.5732
  0
LINE
  8
0
 10
14.0619
 20
-16.5732
 11
14.122
 21
-16.6435
  0
LINE
  8
0
 10
14.122
 20
-16.6435
 11
14.1833
 21
-16.7128
  0
LINE
  8
0
 10
14.1833
 20
-16.7128
 11
14.2458
 21
-16.781
  0
LINE
  8
0
 10
14.2458
 20
-16.781
 11
14.3095
 21
-16.8481
  0
LINE
  8
0
 10
14.3095
 20
-16.8481
 11
14.3743
 21
-16.914
  0
LINE
  8
0
 10
14.3743
 20
-16.914
 11
14.4403
 21
-16.9789
  0
LINE
  8
0
 10
14.4403
 20
-16.9789
 11
14.4796
 21
-17.0162
  0
LINE
  8
0
 10
14.4796
 20
-17.0162
 11
14.6022
 21
-17.1603
  0
LINE
  8
0
 10
14.6022
 20
-17.1603
 11
14.6162
 21
-17.141
  0
LINE
  8
0
 10
14.6162
 20
-17.141
 11
14.6449
 21
-17.1663
  0
LINE
  8
0
 10
14.6449
 20
-17.1663
 11
14.7152
 21
-17.2264
  0
LINE
  8
0
 10
14.7152
 20
-17.2264
 11
14.7866
 21
-17.2853
  0
LINE
  8
0
 10
14.7866
 20
-17.2853
 11
14.859
 21
-17.3428
  0
LINE
  8
0
 10
14.859
 20
-17.3428
 11
14.9324
 21
-17.3992
  0
LINE
  8
0
 10
14.9324
 20
-17.3992
 11
15.0067
 21
-17.4542
  0
LINE
  8
0
 10
15.0067
 20
-17.4542
 11
15.082
 21
-17.5079
  0
LINE
  8
0
 10
15.082
 20
-17.5079
 11
15.1582
 21
-17.5603
  0
LINE
  8
0
 10
15.1582
 20
-17.5603
 11
15.2354
 21
-17.6113
  0
LINE
  8
0
 10
15.2354
 20
-17.6113
 11
15.3134
 21
-17.661
  0
LINE
  8
0
 10
15.3134
 20
-17.661
 11
15.3923
 21
-17.7094
  0
LINE
  8
0
 10
15.3923
 20
-17.7094
 11
15.472
 21
-17.7563
  0
LINE
  8
0
 10
15.472
 20
-17.7563
 11
15.5525
 21
-17.8019
  0
LINE
  8
0
 10
15.5525
 20
-17.8019
 11
15.6338
 21
-17.846
  0
LINE
  8
0
 10
15.6338
 20
-17.846
 11
15.7158
 21
-17.8887
  0
LINE
  8
0
 10
15.7158
 20
-17.8887
 11
15.7986
 21
-17.93
  0
LINE
  8
0
 10
15.7986
 20
-17.93
 11
15.8821
 21
-17.9698
  0
LINE
  8
0
 10
15.8821
 20
-17.9698
 11
15.9663
 21
-18.0082
  0
LINE
  8
0
 10
15.9663
 20
-18.0082
 11
16.0511
 21
-18.0451
  0
LINE
  8
0
 10
16.0511
 20
-18.0451
 11
16.1366
 21
-18.0805
  0
LINE
  8
0
 10
16.1366
 20
-18.0805
 11
16.2226
 21
-18.1144
  0
LINE
  8
0
 10
16.2226
 20
-18.1144
 11
16.3093
 21
-18.1468
  0
LINE
  8
0
 10
16.3093
 20
-18.1468
 11
16.3965
 21
-18.1776
  0
LINE
  8
0
 10
16.3965
 20
-18.1776
 11
16.4842
 21
-18.207
  0
LINE
  8
0
 10
16.4842
 20
-18.207
 11
16.5724
 21
-18.2348
  0
LINE
  8
0
 10
16.5724
 20
-18.2348
 11
16.6611
 21
-18.2611
  0
LINE
  8
0
 10
16.6611
 20
-18.2611
 11
16.7502
 21
-18.2858
  0
LINE
  8
0
 10
16.7502
 20
-18.2858
 11
16.8398
 21
-18.3089
  0
LINE
  8
0
 10
16.8398
 20
-18.3089
 11
16.9297
 21
-18.3305
  0
LINE
  8
0
 10
16.9297
 20
-18.3305
 11
17.02
 21
-18.3506
  0
LINE
  8
0
 10
17.02
 20
-18.3506
 11
17.1107
 21
-18.369
  0
LINE
  8
0
 10
17.1107
 20
-18.369
 11
17.2016
 21
-18.3859
  0
LINE
  8
0
 10
17.2016
 20
-18.3859
 11
17.2929
 21
-18.4011
  0
LINE
  8
0
 10
17.2929
 20
-18.4011
 11
17.3844
 21
-18.4148
  0
LINE
  8
0
 10
17.3844
 20
-18.4148
 11
17.4761
 21
-18.4269
  0
LINE
  8
0
 10
17.4761
 20
-18.4269
 11
17.568
 21
-18.4373
  0
LINE
  8
0
 10
17.568
 20
-18.4373
 11
17.66
 21
-18.4462
  0
LINE
  8
0
 10
17.66
 20
-18.4462
 11
17.7523
 21
-18.4535
  0
LINE
  8
0
 10
17.7523
 20
-18.4535
 11
17.8446
 21
-18.4591
  0
LINE
  8
0
 10
17.8446
 20
-18.4591
 11
17.937
 21
-18.4632
  0
LINE
  8
0
 10
17.937
 20
-18.4632
 11
18.0295
 21
-18.4656
  0
LINE
  8
0
 10
18.0295
 20
-18.4656
 11
18.122
 21
-18.4664
  0
LINE
  8
0
 10
18.122
 20
-18.4664
 11
18.2145
 21
-18.4656
  0
LINE
  8
0
 10
18.2145
 20
-18.4656
 11
18.3069
 21
-18.4632
  0
LINE
  8
0
 10
18.3069
 20
-18.4632
 11
18.3994
 21
-18.4591
  0
LINE
  8
0
 10
18.3994
 20
-18.4591
 11
18.4917
 21
-18.4535
  0
LINE
  8
0
 10
18.4917
 20
-18.4535
 11
18.5839
 21
-18.4462
  0
LINE
  8
0
 10
18.5839
 20
-18.4462
 11
18.676
 21
-18.4373
  0
LINE
  8
0
 10
18.676
 20
-18.4373
 11
18.7679
 21
-18.4269
  0
LINE
  8
0
 10
18.7679
 20
-18.4269
 11
18.8596
 21
-18.4148
  0
LINE
  8
0
 10
18.8596
 20
-18.4148
 11
18.9511
 21
-18.4011
  0
LINE
  8
0
 10
18.9511
 20
-18.4011
 11
19.0423
 21
-18.3859
  0
LINE
  8
0
 10
19.0423
 20
-18.3859
 11
19.1333
 21
-18.369
  0
LINE
  8
0
 10
19.1333
 20
-18.369
 11
19.2239
 21
-18.3506
  0
LINE
  8
0
 10
19.2239
 20
-18.3506
 11
19.3142
 21
-18.3305
  0
LINE
  8
0
 10
19.3142
 20
-18.3305
 11
19.4042
 21
-18.3089
  0
LINE
  8
0
 10
19.4042
 20
-18.3089
 11
19.4937
 21
-18.2858
  0
LINE
  8
0
 10
19.4937
 20
-18.2858
 11
19.5829
 21
-18.2611
  0
LINE
  8
0
 10
19.5829
 20
-18.2611
 11
19.6715
 21
-18.2348
  0
LINE
  8
0
 10
19.6715
 20
-18.2348
 11
19.7598
 21
-18.207
  0
LINE
  8
0
 10
19.7598
 20
-18.207
 11
19.8475
 21
-18.1776
  0
LINE
  8
0
 10
19.8475
 20
-18.1776
 11
19.9347
 21
-18.1468
  0
LINE
  8
0
 10
19.9347
 20
-18.1468
 11
20.0213
 21
-18.1144
  0
LINE
  8
0
 10
20.0213
 20
-18.1144
 11
20.1074
 21
-18.0805
  0
LINE
  8
0
 10
20.1074
 20
-18.0805
 11
20.1928
 21
-18.0451
  0
LINE
  8
0
 10
20.1928
 20
-18.0451
 11
20.2777
 21
-18.0082
  0
LINE
  8
0
 10
20.2777
 20
-18.0082
 11
20.3618
 21
-17.9698
  0
LINE
  8
0
 10
20.3618
 20
-17.9698
 11
20.4453
 21
-17.93
  0
LINE
  8
0
 10
20.4453
 20
-17.93
 11
20.5281
 21
-17.8887
  0
LINE
  8
0
 10
20.5281
 20
-17.8887
 11
20.6102
 21
-17.846
  0
LINE
  8
0
 10
20.6102
 20
-17.846
 11
20.6915
 21
-17.8019
  0
LINE
  8
0
 10
20.6915
 20
-17.8019
 11
20.772
 21
-17.7563
  0
LINE
  8
0
 10
20.772
 20
-17.7563
 11
20.8517
 21
-17.7094
  0
LINE
  8
0
 10
20.8517
 20
-17.7094
 11
20.9305
 21
-17.661
  0
LINE
  8
0
 10
20.9305
 20
-17.661
 11
21.0086
 21
-17.6113
  0
LINE
  8
0
 10
21.0086
 20
-17.6113
 11
21.0857
 21
-17.5603
  0
LINE
  8
0
 10
21.0857
 20
-17.5603
 11
21.1619
 21
-17.5079
  0
LINE
  8
0
 10
21.1619
 20
-17.5079
 11
21.2372
 21
-17.4542
  0
LINE
  8
0
 10
21.2372
 20
-17.4542
 11
21.3116
 21
-17.3992
  0
LINE
  8
0
 10
21.3116
 20
-17.3992
 11
21.385
 21
-17.3428
  0
LINE
  8
0
 10
21.385
 20
-17.3428
 11
21.4574
 21
-17.2853
  0
LINE
  8
0
 10
21.4574
 20
-17.2853
 11
21.5287
 21
-17.2264
  0
LINE
  8
0
 10
21.5287
 20
-17.2264
 11
21.5991
 21
-17.1663
  0
LINE
  8
0
 10
21.5991
 20
-17.1663
 11
21.6684
 21
-17.1051
  0
LINE
  8
0
 10
21.6684
 20
-17.1051
 11
21.7366
 21
-17.0426
  0
LINE
  8
0
 10
21.7366
 20
-17.0426
 11
21.8037
 21
-16.9789
  0
LINE
  8
0
 10
21.8037
 20
-16.9789
 11
21.8696
 21
-16.914
  0
LINE
  8
0
 10
21.8696
 20
-16.914
 11
21.9345
 21
-16.8481
  0
LINE
  8
0
 10
21.9345
 20
-16.8481
 11
21.9982
 21
-16.781
  0
LINE
  8
0
 10
21.9982
 20
-16.781
 11
22.0606
 21
-16.7128
  0
LINE
  8
0
 10
22.0606
 20
-16.7128
 11
22.1219
 21
-16.6435
  0
LINE
  8
0
 10
22.1219
 20
-16.6435
 11
22.182
 21
-16.5732
  0
LINE
  8
0
 10
22.182
 20
-16.5732
 11
22.2408
 21
-16.5018
  0
LINE
  8
0
 10
22.2408
 20
-16.5018
 11
22.2984
 21
-16.4294
  0
LINE
  8
0
 10
22.2984
 20
-16.4294
 11
22.3547
 21
-16.356
  0
LINE
  8
0
 10
22.3547
 20
-16.356
 11
22.4098
 21
-16.2816
  0
LINE
  8
0
 10
22.4098
 20
-16.2816
 11
22.4635
 21
-16.2063
  0
LINE
  8
0
 10
22.4635
 20
-16.2063
 11
22.5159
 21
-16.1301
  0
LINE
  8
0
 10
22.5159
 20
-16.1301
 11
22.5669
 21
-16.053
  0
LINE
  8
0
 10
22.5669
 20
-16.053
 11
22.6166
 21
-15.975
  0
LINE
  8
0
 10
22.6166
 20
-15.975
 11
22.665
 21
-15.8961
  0
LINE
  8
0
 10
22.665
 20
-15.8961
 11
22.7119
 21
-15.8164
  0
LINE
  8
0
 10
22.7119
 20
-15.8164
 11
22.7575
 21
-15.7359
  0
LINE
  8
0
 10
22.7575
 20
-15.7359
 11
22.8016
 21
-15.6546
  0
LINE
  8
0
 10
22.8016
 20
-15.6546
 11
22.8443
 21
-15.5725
  0
LINE
  8
0
 10
22.8443
 20
-15.5725
 11
22.8856
 21
-15.4897
  0
LINE
  8
0
 10
22.8856
 20
-15.4897
 11
22.9254
 21
-15.4063
  0
LINE
  8
0
 10
22.9254
 20
-15.4063
 11
22.9638
 21
-15.3221
  0
LINE
  8
0
 10
22.9638
 20
-15.3221
 11
23.0007
 21
-15.2373
  0
LINE
  8
0
 10
23.0007
 20
-15.2373
 11
23.036
 21
-15.1518
  0
LINE
  8
0
 10
23.036
 20
-15.1518
 11
23.0699
 21
-15.0657
  0
LINE
  8
0
 10
23.0699
 20
-15.0657
 11
23.1023
 21
-14.9791
  0
LINE
  8
0
 10
23.1023
 20
-14.9791
 11
23.1332
 21
-14.8919
  0
LINE
  8
0
 10
23.1332
 20
-14.8919
 11
23.1626
 21
-14.8042
  0
LINE
  8
0
 10
23.1626
 20
-14.8042
 11
23.1904
 21
-14.716
  0
LINE
  8
0
 10
23.1904
 20
-14.716
 11
23.2167
 21
-14.6273
  0
LINE
  8
0
 10
23.2167
 20
-14.6273
 11
23.2414
 21
-14.5381
  0
LINE
  8
0
 10
23.2414
 20
-14.5381
 11
23.2645
 21
-14.4486
  0
LINE
  8
0
 10
23.2645
 20
-14.4486
 11
23.2861
 21
-14.3586
  0
LINE
  8
0
 10
23.2861
 20
-14.3586
 11
23.3062
 21
-14.2683
  0
LINE
  8
0
 10
23.3062
 20
-14.2683
 11
23.3246
 21
-14.1777
  0
LINE
  8
0
 10
23.3246
 20
-14.1777
 11
23.3415
 21
-14.0867
  0
LINE
  8
0
 10
23.3415
 20
-14.0867
 11
23.3567
 21
-13.9955
  0
LINE
  8
0
 10
23.3567
 20
-13.9955
 11
23.3704
 21
-13.904
  0
LINE
  8
0
 10
23.3704
 20
-13.904
 11
23.3825
 21
-13.8123
  0
LINE
  8
0
 10
23.3825
 20
-13.8123
 11
23.3929
 21
-13.7204
  0
LINE
  8
0
 10
23.3929
 20
-13.7204
 11
23.4018
 21
-13.6283
  0
LINE
  8
0
 10
23.4018
 20
-13.6283
 11
23.4091
 21
-13.5361
  0
LINE
  8
0
 10
23.4091
 20
-13.5361
 11
23.4147
 21
-13.4438
  0
LINE
  8
0
 10
23.4147
 20
-13.4438
 11
23.4187
 21
-13.3513
  0
LINE
  8
0
 10
23.4187
 20
-13.3513
 11
23.4212
 21
-13.2589
  0
LINE
  8
0
 10
23.4212
 20
-13.2589
 11
23.422
 21
-13.1664
  0
LINE
  8
0
 10
23.422
 20
-13.1664
 11
23.4212
 21
-13.0739
  0
LINE
  8
0
 10
23.4212
 20
-13.0739
 11
23.4187
 21
-12.9814
  0
LINE
  8
0
 10
23.4187
 20
-12.9814
 11
23.4147
 21
-12.889
  0
LINE
  8
0
 10
23.4147
 20
-12.889
 11
23.4091
 21
-12.7967
  0
LINE
  8
0
 10
23.4091
 20
-12.7967
 11
23.4018
 21
-12.7045
  0
LINE
  8
0
 10
23.4018
 20
-12.7045
 11
23.3929
 21
-12.6124
  0
LINE
  8
0
 10
23.3929
 20
-12.6124
 11
23.3825
 21
-12.5205
  0
LINE
  8
0
 10
23.3825
 20
-12.5205
 11
23.3704
 21
-12.4288
  0
LINE
  8
0
 10
23.3704
 20
-12.4288
 11
23.3567
 21
-12.3373
  0
LINE
  8
0
 10
23.3567
 20
-12.3373
 11
23.3415
 21
-12.246
  0
LINE
  8
0
 10
23.3415
 20
-12.246
 11
23.3246
 21
-12.1551
  0
LINE
  8
0
 10
23.3246
 20
-12.1551
 11
23.3062
 21
-12.0645
  0
LINE
  8
0
 10
23.3062
 20
-12.0645
 11
23.2861
 21
-11.9741
  0
LINE
  8
0
 10
23.2861
 20
-11.9741
 11
23.2645
 21
-11.8842
  0
LINE
  8
0
 10
23.2645
 20
-11.8842
 11
23.2414
 21
-11.7946
  0
LINE
  8
0
 10
23.2414
 20
-11.7946
 11
23.2167
 21
-11.7055
  0
LINE
  8
0
 10
23.2167
 20
-11.7055
 11
23.1904
 21
-11.6168
  0
LINE
  8
0
 10
23.1904
 20
-11.6168
 11
23.1626
 21
-11.5286
  0
LINE
  8
0
 10
23.1626
 20
-11.5286
 11
23.1332
 21
-11.4409
  0
LINE
  8
0
 10
23.1332
 20
-11.4409
 11
23.1023
 21
-11.3537
  0
LINE
  8
0
 10
23.1023
 20
-11.3537
 11
23.0699
 21
-11.267
  0
LINE
  8
0
 10
23.0699
 20
-11.267
 11
23.036
 21
-11.181
  0
LINE
  8
0
 10
23.036
 20
-11.181
 11
23.0007
 21
-11.0955
  0
LINE
  8
0
 10
23.0007
 20
-11.0955
 11
22.9638
 21
-11.0107
  0
LINE
  8
0
 10
22.9638
 20
-11.0107
 11
22.9254
 21
-10.9265
  0
LINE
  8
0
 10
22.9254
 20
-10.9265
 11
22.8856
 21
-10.843
  0
LINE
  8
0
 10
22.8856
 20
-10.843
 11
22.8443
 21
-10.7602
  0
LINE
  8
0
 10
22.8443
 20
-10.7602
 11
22.8016
 21
-10.6782
  0
LINE
  8
0
 10
22.8016
 20
-10.6782
 11
22.7575
 21
-10.5969
  0
LINE
  8
0
 10
22.7575
 20
-10.5969
 11
22.7119
 21
-10.5164
  0
LINE
  8
0
 10
22.7119
 20
-10.5164
 11
22.665
 21
-10.4367
  0
LINE
  8
0
 10
22.665
 20
-10.4367
 11
22.6166
 21
-10.3578
  0
LINE
  8
0
 10
22.6166
 20
-10.3578
 11
22.5669
 21
-10.2798
  0
LINE
  8
0
 10
22.5669
 20
-10.2798
 11
22.5159
 21
-10.2027
  0
LINE
  8
0
 10
22.5159
 20
-10.2027
 11
22.4635
 21
-10.1264
  0
LINE
  8
0
 10
22.4635
 20
-10.1264
 11
22.4098
 21
-10.0511
  0
LINE
  8
0
 10
22.4098
 20
-10.0511
 11
22.3547
 21
-9.97676
  0
LINE
  8
0
 10
22.3547
 20
-9.97676
 11
22.2984
 21
-9.90338
  0
LINE
  8
0
 10
22.2984
 20
-9.90338
 11
22.2408
 21
-9.83098
  0
LINE
  8
0
 10
22.2408
 20
-9.83098
 11
22.182
 21
-9.75961
  0
LINE
  8
0
 10
22.182
 20
-9.75961
 11
22.1219
 21
-9.68927
  0
LINE
  8
0
 10
22.1219
 20
-9.68927
 11
22.0606
 21
-9.62
  0
LINE
  8
0
 10
22.0606
 20
-9.62
 11
21.9982
 21
-9.55179
  0
LINE
  8
0
 10
21.9982
 20
-9.55179
 11
21.9345
 21
-9.4847
  0
LINE
  8
0
 10
21.9345
 20
-9.4847
 11
21.8696
 21
-9.41872
  0
LINE
  8
0
 10
21.8696
 20
-9.41872
 11
21.8037
 21
-9.35388
  0
LINE
  8
0
 10
21.8037
 20
-9.35388
 11
21.7366
 21
-9.29021
  0
LINE
  8
0
 10
21.7366
 20
-9.29021
 11
21.6684
 21
-9.22771
  0
LINE
  8
0
 10
21.6684
 20
-9.22771
 11
21.5991
 21
-9.16643
  0
LINE
  8
0
 10
21.5991
 20
-9.16643
 11
21.5287
 21
-9.10635
  0
LINE
  8
0
 10
21.5287
 20
-9.10635
 11
21.4574
 21
-9.04752
  0
LINE
  8
0
 10
21.4574
 20
-9.04752
 11
21.385
 21
-8.98993
  0
LINE
  8
0
 10
21.385
 20
-8.98993
 11
21.3116
 21
-8.93361
  0
LINE
  8
0
 10
21.3116
 20
-8.93361
 11
21.2372
 21
-8.87859
  0
LINE
  8
0
 10
21.2372
 20
-8.87859
 11
21.1619
 21
-8.82487
  0
LINE
  8
0
 10
21.1619
 20
-8.82487
 11
21.0857
 21
-8.77248
  0
LINE
  8
0
 10
21.0857
 20
-8.77248
 11
21.0086
 21
-8.72144
  0
LINE
  8
0
 10
21.0086
 20
-8.72144
 11
20.9305
 21
-8.67172
  0
LINE
  8
0
 10
20.9305
 20
-8.67172
 11
20.8517
 21
-8.6234
  0
LINE
  8
0
 10
20.8517
 20
-8.6234
 11
20.8187
 21
-8.60397
  0
LINE
  8
0
 10
20.8187
 20
-8.60397
 11
20.8327
 21
-8.5847
  0
LINE
  8
0
 10
20.8327
 20
-8.5847
 11
20.6578
 21
-8.51263
  0
LINE
  8
0
 10
20.6578
 20
-8.51263
 11
20.6102
 21
-8.48676
  0
LINE
  8
0
 10
20.6102
 20
-8.48676
 11
20.5281
 21
-8.44405
  0
LINE
  8
0
 10
20.5281
 20
-8.44405
 11
20.4453
 21
-8.40277
  0
LINE
  8
0
 10
20.4453
 20
-8.40277
 11
20.3618
 21
-8.36295
  0
LINE
  8
0
 10
20.3618
 20
-8.36295
 11
20.2777
 21
-8.32458
  0
LINE
  8
0
 10
20.2777
 20
-8.32458
 11
20.1928
 21
-8.2877
  0
LINE
  8
0
 10
20.1928
 20
-8.2877
 11
20.1074
 21
-8.2523
  0
LINE
  8
0
 10
20.1074
 20
-8.2523
 11
20.0213
 21
-8.2184
  0
LINE
  8
0
 10
20.0213
 20
-8.2184
 11
19.9347
 21
-8.186
  0
LINE
  8
0
 10
19.9347
 20
-8.186
 11
19.8475
 21
-8.15514
  0
LINE
  8
0
 10
19.8475
 20
-8.15514
 11
19.7598
 21
-8.12578
  0
LINE
  8
0
 10
19.7598
 20
-8.12578
 11
19.6715
 21
-8.09796
  0
LINE
  8
0
 10
19.6715
 20
-8.09796
 11
19.6004
 21
-8.0769
  0
LINE
  8
0
 10
19.6004
 20
-8.0769
 11
6.63359
 21
-2.73355
  0
LINE
  8
0
 10
6.63359
 20
-2.73355
 11
6.65254
 21
-2.68779
  0
LINE
  8
0
 10
6.65254
 20
-2.68779
 11
6.69843
 21
-2.57129
  0
LINE
  8
0
 10
6.69843
 20
-2.57129
 11
6.74229
 21
-2.45398
  0
LINE
  8
0
 10
6.74229
 20
-2.45398
 11
6.78409
 21
-2.33594
  0
LINE
  8
0
 10
6.78409
 20
-2.33594
 11
6.82382
 21
-2.21719
  0
LINE
  8
0
 10
6.82382
 20
-2.21719
 11
6.86148
 21
-2.09776
  0
LINE
  8
0
 10
6.86148
 20
-2.09776
 11
6.89705
 21
-1.97769
  0
LINE
  8
0
 10
6.89705
 20
-1.97769
 11
6.93051
 21
-1.85703
  0
LINE
  8
0
 10
6.93051
 20
-1.85703
 11
6.96187
 21
-1.73578
  0
LINE
  8
0
 10
6.96187
 20
-1.73578
 11
6.97343
 21
-1.68764
  0
LINE
  8
0
 10
6.97343
 20
-1.68764
 11
20.6046
 21
-4.98648
  0
LINE
  8
0
 10
20.6046
 20
-4.98648
 11
20.6745
 21
-5.01125
  0
LINE
  8
0
 10
20.6745
 20
-5.01125
 11
20.7622
 21
-5.04059
  0
LINE
  8
0
 10
20.7622
 20
-5.04059
 11
20.8504
 21
-5.06841
  0
LINE
  8
0
 10
20.8504
 20
-5.06841
 11
20.9391
 21
-5.09468
  0
LINE
  8
0
 10
20.9391
 20
-5.09468
 11
21.0282
 21
-5.1194
  0
LINE
  8
0
 10
21.0282
 20
-5.1194
 11
21.1178
 21
-5.14256
  0
LINE
  8
0
 10
21.1178
 20
-5.14256
 11
21.2077
 21
-5.16415
  0
LINE
  8
0
 10
21.2077
 20
-5.16415
 11
21.2981
 21
-5.18417
  0
LINE
  8
0
 10
21.2981
 20
-5.18417
 11
21.3887
 21
-5.20262
  0
LINE
  8
0
 10
21.3887
 20
-5.20262
 11
21.4797
 21
-5.21947
  0
LINE
  8
0
 10
21.4797
 20
-5.21947
 11
21.5709
 21
-5.23474
  0
LINE
  8
0
 10
21.5709
 20
-5.23474
 11
21.6624
 21
-5.24841
  0
LINE
  8
0
 10
21.6624
 20
-5.24841
 11
21.7161
 21
-5.25548
  0
LINE
  8
0
 10
21.7161
 20
-5.25548
 11
21.9
 21
-5.29999
  0
LINE
  8
0
 10
21.9
 20
-5.29999
 11
21.9
 21
-5.27617
  0
LINE
  8
0
 10
21.9
 20
-5.27617
 11
21.9381
 21
-5.27983
  0
LINE
  8
0
 10
21.9381
 20
-5.27983
 11
22.0303
 21
-5.28708
  0
LINE
  8
0
 10
22.0303
 20
-5.28708
 11
22.1226
 21
-5.29272
  0
LINE
  8
0
 10
22.1226
 20
-5.29272
 11
22.215
 21
-5.29677
  0
LINE
  8
0
 10
22.215
 20
-5.29677
 11
22.3075
 21
-5.29918
  0
LINE
  8
0
 10
22.3075
 20
-5.29918
 11
22.4
 21
-5.29999
  0
LINE
  8
0
 10
22.4
 20
-5.29999
 11
22.4925
 21
-5.29918
  0
LINE
  8
0
 10
22.4925
 20
-5.29918
 11
22.585
 21
-5.29677
  0
LINE
  8
0
 10
22.585
 20
-5.29677
 11
22.6774
 21
-5.29272
  0
LINE
  8
0
 10
22.6774
 20
-5.29272
 11
22.7697
 21
-5.28708
  0
LINE
  8
0
 10
22.7697
 20
-5.28708
 11
22.8619
 21
-5.27983
  0
LINE
  8
0
 10
22.8619
 20
-5.27983
 11
22.954
 21
-5.27097
  0
LINE
  8
0
 10
22.954
 20
-5.27097
 11
23.0459
 21
-5.26048
  0
LINE
  8
0
 10
23.0459
 20
-5.26048
 11
23.1376
 21
-5.24841
  0
LINE
  8
0
 10
23.1376
 20
-5.24841
 11
23.2291
 21
-5.23474
  0
LINE
  8
0
 10
23.2291
 20
-5.23474
 11
23.3203
 21
-5.21947
  0
LINE
  8
0
 10
23.3203
 20
-5.21947
 11
23.4113
 21
-5.20262
  0
LINE
  8
0
 10
23.4113
 20
-5.20262
 11
23.5019
 21
-5.18417
  0
LINE
  8
0
 10
23.5019
 20
-5.18417
 11
23.5922
 21
-5.16415
  0
LINE
  8
0
 10
23.5922
 20
-5.16415
 11
23.6822
 21
-5.14256
  0
LINE
  8
0
 10
23.6822
 20
-5.14256
 11
23.7717
 21
-5.1194
  0
LINE
  8
0
 10
23.7717
 20
-5.1194
 11
23.8609
 21
-5.09468
  0
LINE
  8
0
 10
23.8609
 20
-5.09468
 11
23.9496
 21
-5.06841
  0
LINE
  8
0
 10
23.9496
 20
-5.06841
 11
24.0378
 21
-5.04059
  0
LINE
  8
0
 10
24.0378
 20
-5.04059
 11
24.1255
 21
-5.01125
  0
LINE
  8
0
 10
24.1255
 20
-5.01125
 11
24.2127
 21
-4.98036
  0
LINE
  8
0
 10
24.2127
 20
-4.98036
 11
24.2993
 21
-4.94797
  0
LINE
  8
0
 10
24.2993
 20
-4.94797
 11
24.3854
 21
-4.91406
  0
LINE
  8
0
 10
24.3854
 20
-4.91406
 11
24.4709
 21
-4.87866
  0
LINE
  8
0
 10
24.4709
 20
-4.87866
 11
24.5557
 21
-4.84178
  0
LINE
  8
0
 10
24.5557
 20
-4.84178
 11
24.6399
 21
-4.80342
  0
LINE
  8
0
 10
24.6399
 20
-4.80342
 11
24.7234
 21
-4.7636
  0
LINE
  8
0
 10
24.7234
 20
-4.7636
 11
24.8061
 21
-4.72232
  0
LINE
  8
0
 10
24.8061
 20
-4.72232
 11
24.8882
 21
-4.67961
  0
LINE
  8
0
 10
24.8882
 20
-4.67961
 11
24.9695
 21
-4.63548
  0
LINE
  8
0
 10
24.9695
 20
-4.63548
 11
25.05
 21
-4.58992
  0
LINE
  8
0
 10
25.05
 20
-4.58992
 11
25.1297
 21
-4.54298
  0
LINE
  8
0
 10
25.1297
 20
-4.54298
 11
25.2086
 21
-4.49464
  0
LINE
  8
0
 10
25.2086
 20
-4.49464
 11
25.2866
 21
-4.44495
  0
LINE
  8
0
 10
25.2866
 20
-4.44495
 11
25.3637
 21
-4.39389
  0
LINE
  8
0
 10
25.3637
 20
-4.39389
 11
25.4399
 21
-4.34149
  0
LINE
  8
0
 10
25.4399
 20
-4.34149
 11
25.5153
 21
-4.28778
  0
LINE
  8
0
 10
25.5153
 20
-4.28778
 11
25.5896
 21
-4.23276
  0
LINE
  8
0
 10
25.5896
 20
-4.23276
 11
25.663
 21
-4.17645
  0
LINE
  8
0
 10
25.663
 20
-4.17645
 11
25.7354
 21
-4.11887
  0
LINE
  8
0
 10
25.7354
 20
-4.11887
 11
25.8068
 21
-4.06003
  0
LINE
  8
0
 10
25.8068
 20
-4.06003
 11
25.8771
 21
-3.99995
  0
LINE
  8
0
 10
25.8771
 20
-3.99995
 11
25.9464
 21
-3.93866
  0
LINE
  8
0
 10
25.9464
 20
-3.93866
 11
26.0146
 21
-3.87616
  0
LINE
  8
0
 10
26.0146
 20
-3.87616
 11
26.0817
 21
-3.8125
  0
LINE
  8
0
 10
26.0817
 20
-3.8125
 11
26.1477
 21
-3.74767
  0
LINE
  8
0
 10
26.1477
 20
-3.74767
 11
26.2125
 21
-3.68169
  0
LINE
  8
0
 10
26.2125
 20
-3.68169
 11
26.2762
 21
-3.61458
  0
LINE
  8
0
 10
26.2762
 20
-3.61458
 11
26.3387
 21
-3.54639
  0
LINE
  8
0
 10
26.3387
 20
-3.54639
 11
26.3999
 21
-3.47711
  0
LINE
  8
0
 10
26.3999
 20
-3.47711
 11
26.46
 21
-3.40677
  0
LINE
  8
0
 10
26.46
 20
-3.40677
 11
26.5189
 21
-3.33539
  0
LINE
  8
0
 10
26.5189
 20
-3.33539
 11
26.5764
 21
-3.263
  0
LINE
  8
0
 10
26.5764
 20
-3.263
 11
26.6328
 21
-3.18961
  0
LINE
  8
0
 10
26.6328
 20
-3.18961
 11
26.6878
 21
-3.11525
  0
LINE
  8
0
 10
26.6878
 20
-3.11525
 11
26.7415
 21
-3.03995
  0
LINE
  8
0
 10
26.7415
 20
-3.03995
 11
26.7939
 21
-2.96371
  0
LINE
  8
0
 10
26.7939
 20
-2.96371
 11
26.8449
 21
-2.88658
  0
LINE
  8
0
 10
26.8449
 20
-2.88658
 11
26.8947
 21
-2.80856
  0
LINE
  8
0
 10
26.8947
 20
-2.80856
 11
26.943
 21
-2.72969
  0
LINE
  8
0
 10
26.943
 20
-2.72969
 11
26.9899
 21
-2.64999
  0
LINE
  8
0
 10
26.9899
 20
-2.64999
 11
27.0355
 21
-2.56949
  0
LINE
  8
0
 10
27.0355
 20
-2.56949
 11
27.0796
 21
-2.48819
  0
LINE
  8
0
 10
27.0796
 20
-2.48819
 11
27.1223
 21
-2.40614
  0
LINE
  8
0
 10
27.1223
 20
-2.40614
 11
27.1636
 21
-2.32336
  0
LINE
  8
0
 10
27.1636
 20
-2.32336
 11
27.2034
 21
-2.23987
  0
LINE
  8
0
 10
27.2034
 20
-2.23987
 11
27.2418
 21
-2.1557
  0
LINE
  8
0
 10
27.2418
 20
-2.1557
 11
27.2787
 21
-2.07086
  0
LINE
  8
0
 10
27.2787
 20
-2.07086
 11
27.3141
 21
-1.98541
  0
LINE
  8
0
 10
27.3141
 20
-1.98541
 11
27.348
 21
-1.89934
  0
LINE
  8
0
 10
27.348
 20
-1.89934
 11
27.3804
 21
-1.8127
  0
LINE
  8
0
 10
27.3804
 20
-1.8127
 11
27.4112
 21
-1.72551
  0
LINE
  8
0
 10
27.4112
 20
-1.72551
 11
27.4406
 21
-1.63779
  0
LINE
  8
0
 10
27.4406
 20
-1.63779
 11
27.4684
 21
-1.54956
  0
LINE
  8
0
 10
27.4684
 20
-1.54956
 11
27.4947
 21
-1.46088
  0
LINE
  8
0
 10
27.4947
 20
-1.46088
 11
27.5194
 21
-1.37173
  0
LINE
  8
0
 10
27.5194
 20
-1.37173
 11
27.5426
 21
-1.28218
  0
LINE
  8
0
 10
27.5426
 20
-1.28218
 11
27.5641
 21
-1.19223
  0
LINE
  8
0
 10
27.5641
 20
-1.19223
 11
27.5842
 21
-1.10193
  0
LINE
  8
0
 10
27.5842
 20
-1.10193
 11
27.6026
 21
-1.01128
  0
LINE
  8
0
 10
27.6026
 20
-1.01128
 11
27.6195
 21
-0.920334
  0
LINE
  8
0
 10
27.6195
 20
-0.920334
 11
27.6347
 21
-0.829102
  0
LINE
  8
0
 10
27.6347
 20
-0.829102
 11
27.6484
 21
-0.73761
  0
LINE
  8
0
 10
27.6484
 20
-0.73761
 11
27.6605
 21
-0.645905
  0
LINE
  8
0
 10
27.6605
 20
-0.645905
 11
27.671
 21
-0.554001
  0
LINE
  8
0
 10
27.671
 20
-0.554001
 11
27.6798
 21
-0.461914
  0
LINE
  8
0
 10
27.6798
 20
-0.461914
 11
27.6871
 21
-0.369705
  0
LINE
  8
0
 10
27.6871
 20
-0.369705
 11
27.6927
 21
-0.277374
  0
LINE
  8
0
 10
27.6927
 20
-0.277374
 11
27.6968
 21
-0.184967
  0
LINE
  8
0
 10
27.6968
 20
-0.184967
 11
27.6992
 21
-0.0924835
  0
LINE
  8
0
 10
27.6992
 20
-0.0924835
 11
27.7
 21
0
  0
LINE
  8
0
 10
27.7
 20
0
 11
27.6992
 21
0.0924835
  0
LINE
  8
0
 10
27.6992
 20
0.0924835
 11
27.6968
 21
0.184967
  0
LINE
  8
0
 10
27.6968
 20
0.184967
 11
27.6927
 21
0.277374
  0
LINE
  8
0
 10
27.6927
 20
0.277374
 11
27.6871
 21
0.369705
  0
LINE
  8
0
 10
27.6871
 20
0.369705
 11
27.6798
 21
0.461914
  0
LINE
  8
0
 10
27.6798
 20
0.461914
 11
27.671
 21
0.554001
  0
LINE
  8
0
 10
27.671
 20
0.554001
 11
27.6605
 21
0.645905
  0
LINE
  8
0
 10
27.6605
 20
0.645905
 11
27.6484
 21
0.73761
  0
LINE
  8
0
 10
27.6484
 20
0.73761
 11
27.6347
 21
0.829102
  0
LINE
  8
0
 10
27.6347
 20
0.829102
 11
27.6195
 21
0.920334
  0
LINE
  8
0
 10
27.6195
 20
0.920334
 11
27.6026
 21
1.01128
  0
LINE
  8
0
 10
27.6026
 20
1.01128
 11
27.5842
 21
1.10193
  0
LINE
  8
0
 10
27.5842
 20
1.10193
 11
27.5641
 21
1.19223
  0
LINE
  8
0
 10
27.5641
 20
1.19223
 11
27.5426
 21
1.28218
  0
LINE
  8
0
 10
27.5426
 20
1.28218
 11
27.5194
 21
1.37173
  0
LINE
  8
0
 10
27.5194
 20
1.37173
 11
27.4947
 21
1.46088
  0
LINE
  8
0
 10
27.4947
 20
1.46088
 11
27.4684
 21
1.54956
  0
LINE
  8
0
 10
27.4684
 20
1.54956
 11
27.4406
 21
1.63779
  0
LINE
  8
0
 10
27.4406
 20
1.63779
 11
27.4112
 21
1.72551
  0
LINE
  8
0
 10
27.4112
 20
1.72551
 11
27.3804
 21
1.8127
  0
LINE
  8
0
 10
27.3804
 20
1.8127
 11
27.348
 21
1.89934
  0
LINE
  8
0
 10
27.348
 20
1.89934
 11
27.3141
 21
1.98541
  0
LINE
  8
0
 10
27.3141
 20
1.98541
 11
27.2787
 21
2.07086
  0
LINE
  8
0
 10
27.2787
 20
2.07086
 11
27.2418
 21
2.1557
  0
LINE
  8
0
 10
27.2418
 20
2.1557
 11
27.2034
 21
2.23987
  0
LINE
  8
0
 10
27.2034
 20
2.23987
 11
27.1636
 21
2.32336
  0
LINE
  8
0
 10
27.1636
 20
2.32336
 11
27.1223
 21
2.40614
  0
LINE
  8
0
 10
27.1223
 20
2.40614
 11
27.0796
 21
2.48819
  0
LINE
  8
0
 10
27.0796
 20
2.48819
 11
27.0355
 21
2.56949
  0
LINE
  8
0
 10
27.0355
 20
2.56949
 11
26.9899
 21
2.64999
  0
LINE
  8
0
 10
26.9899
 20
2.64999
 11
26.943
 21
2.72969
  0
LINE
  8
0
 10
26.943
 20
2.72969
 11
26.8947
 21
2.80856
  0
LINE
  8
0
 10
26.8947
 20
2.80856
 11
26.8449
 21
2.88658
  0
LINE
  8
0
 10
26.8449
 20
2.88658
 11
26.7939
 21
2.96371
  0
LINE
  8
0
 10
26.7939
 20
2.96371
 11
26.7415
 21
3.03995
  0
LINE
  8
0
 10
26.7415
 20
3.03995
 11
26.6878
 21
3.11525
  0
LINE
  8
0
 10
26.6878
 20
3.11525
 11
26.6328
 21
3.18961
  0
LINE
  8
0
 10
26.6328
 20
3.18961
 11
26.5764
 21
3.263
  0
LINE
  8
0
 10
26.5764
 20
3.263
 11
26.5189
 21
3.33539
  0
LINE
  8
0
 10
26.5189
 20
3.33539
 11
26.46
 21
3.40677
  0
LINE
  8
0
 10
26.46
 20
3.40677
 11
26.3999
 21
3.47711
  0
LINE
  8
0
 10
26.3999
 20
3.47711
 11
26.3387
 21
3.54639
  0
LINE
  8
0
 10
26.3387
 20
3.54639
 11
26.2762
 21
3.61458
  0
LINE
  8
0
 10
26.2762
 20
3.61458
 11
26.2125
 21
3.68169
  0
LINE
  8
0
 10
26.2125
 20
3.68169
 11
26.1477
 21
3.74767
  0
LINE
  8
0
 10
26.1477
 20
3.74767
 11
26.0817
 21
3.8125
  0
LINE
  8
0
 10
26.0817
 20
3.8125
 11
26.0146
 21
3.87616
  0
LINE
  8
0
 10
26.0146
 20
3.87616
 11
25.9464
 21
3.93866
  0
LINE
  8
0
 10
25.9464
 20
3.93866
 11
25.8771
 21
3.99995
  0
LINE
  8
0
 10
25.8771
 20
3.99995
 11
25.8068
 21
4.06003
  0
LINE
  8
0
 10
25.8068
 20
4.06003
 11
25.7354
 21
4.11887
  0
LINE
  8
0
 10
25.7354
 20
4.11887
 11
25.663
 21
4.17645
  0
LINE
  8
0
 10
25.663
 20
4.17645
 11
25.5896
 21
4.23276
  0
LINE
  8
0
 10
25.5896
 20
4.23276
 11
25.5153
 21
4.28778
  0
LINE
  8
0
 10
25.5153
 20
4.28778
 11
25.4399
 21
4.34149
  0
LINE
  8
0
 10
25.4399
 20
4.34149
 11
25.3637
 21
4.39389
  0
LINE
  8
0
 10
25.3637
 20
4.39389
 11
25.2866
 21
4.44495
  0
LINE
  8
0
 10
25.2866
 20
4.44495
 11
25.2086
 21
4.49464
  0
LINE
  8
0
 10
25.2086
 20
4.49464
 11
25.1297
 21
4.54298
  0
LINE
  8
0
 10
25.1297
 20
4.54298
 11
25.05
 21
4.58992
  0
LINE
  8
0
 10
25.05
 20
4.58992
 11
24.9695
 21
4.63548
  0
LINE
  8
0
 10
24.9695
 20
4.63548
 11
24.8882
 21
4.67961
  0
LINE
  8
0
 10
24.8882
 20
4.67961
 11
24.8061
 21
4.72232
  0
LINE
  8
0
 10
24.8061
 20
4.72232
 11
24.7234
 21
4.7636
  0
LINE
  8
0
 10
24.7234
 20
4.7636
 11
24.6399
 21
4.80342
  0
LINE
  8
0
 10
24.6399
 20
4.80342
 11
24.5557
 21
4.84178
  0
LINE
  8
0
 10
24.5557
 20
4.84178
 11
24.4709
 21
4.87866
  0
LINE
  8
0
 10
24.4709
 20
4.87866
 11
24.3854
 21
4.91406
  0
LINE
  8
0
 10
24.3854
 20
4.91406
 11
24.2993
 21
4.94797
  0
LINE
  8
0
 10
24.2993
 20
4.94797
 11
24.2127
 21
4.98036
  0
LINE
  8
0
 10
24.2127
 20
4.98036
 11
24.1255
 21
5.01125
  0
LINE
  8
0
 10
24.1255
 20
5.01125
 11
24.0378
 21
5.04059
  0
LINE
  8
0
 10
24.0378
 20
5.04059
 11
23.9496
 21
5.06841
  0
LINE
  8
0
 10
23.9496
 20
5.06841
 11
23.8609
 21
5.09468
  0
LINE
  8
0
 10
23.8609
 20
5.09468
 11
23.7717
 21
5.1194
  0
LINE
  8
0
 10
23.7717
 20
5.1194
 11
23.6822
 21
5.14256
  0
LINE
  8
0
 10
23.6822
 20
5.14256
 11
23.5922
 21
5.16415
  0
LINE
  8
0
 10
23.5922
 20
5.16415
 11
23.5019
 21
5.18417
  0
LINE
  8
0
 10
23.5019
 20
5.18417
 11
23.4113
 21
5.20262
  0
LINE
  8
0
 10
23.4113
 20
5.20262
 11
23.3203
 21
5.21947
  0
LINE
  8
0
 10
23.3203
 20
5.21947
 11
23.2291
 21
5.23474
  0
LINE
  8
0
 10
23.2291
 20
5.23474
 11
23.1376
 21
5.24841
  0
LINE
  8
0
 10
23.1376
 20
5.24841
 11
23.0459
 21
5.26048
  0
LINE
  8
0
 10
23.0459
 20
5.26048
 11
22.954
 21
5.27097
  0
LINE
  8
0
 10
22.954
 20
5.27097
 11
22.8619
 21
5.27983
  0
LINE
  8
0
 10
22.8619
 20
5.27983
 11
22.7697
 21
5.28708
  0
LINE
  8
0
 10
22.7697
 20
5.28708
 11
22.6774
 21
5.29272
  0
LINE
  8
0
 10
22.6774
 20
5.29272
 11
22.585
 21
5.29677
  0
LINE
  8
0
 10
22.585
 20
5.29677
 11
22.4925
 21
5.29918
  0
LINE
  8
0
 10
22.4925
 20
5.29918
 11
22.4
 21
5.29999
  0
LINE
  8
0
 10
22.4
 20
5.29999
 11
22.3075
 21
5.29918
  0
LINE
  8
0
 10
22.3075
 20
5.29918
 11
22.215
 21
5.29677
  0
LINE
  8
0
 10
22.215
 20
5.29677
 11
22.1226
 21
5.29272
  0
LINE
  8
0
 10
22.1226
 20
5.29272
 11
22.0303
 21
5.28708
  0
LINE
  8
0
 10
22.0303
 20
5.28708
 11
21.9381
 21
5.27983
  0
LINE
  8
0
 10
21.9381
 20
5.27983
 11
21.9
 21
5.27617
  0
LINE
  8
0
 10
21.9
 20
5.27617
 11
21.9
 21
5.29999
  0
LINE
  8
0
 10
21.9
 20
5.29999
 11
21.7161
 21
5.25548
  0
LINE
  8
0
 10
21.7161
 20
5.25548
 11
21.6624
 21
5.24841
  0
LINE
  8
0
 10
21.6624
 20
5.24841
 11
21.5709
 21
5.23474
  0
LINE
  8
0
 10
21.5709
 20
5.23474
 11
21.4797
 21
5.21947
  0
LINE
  8
0
 10
21.4797
 20
5.21947
 11
21.3887
 21
5.20262
  0
LINE
  8
0
 10
21.3887
 20
5.20262
 11
21.2981
 21
5.18417
  0
LINE
  8
0
 10
21.2981
 20
5.18417
 11
21.2077
 21
5.16415
  0
LINE
  8
0
 10
21.2077
 20
5.16415
 11
21.1178
 21
5.14256
  0
LINE
  8
0
 10
21.1178
 20
5.14256
 11
21.0282
 21
5.1194
  0
LINE
  8
0
 10
21.0282
 20
5.1194
 11
20.9391
 21
5.09468
  0
LINE
  8
0
 10
20.9391
 20
5.09468
 11
20.8504
 21
5.06841
  0
LINE
  8
0
 10
20.8504
 20
5.06841
 11
20.7622
 21
5.04059
  0
LINE
  8
0
 10
20.7622
 20
5.04059
 11
20.6745
 21
5.01125
  0
LINE
  8
0
 10
20.6745
 20
5.01125
 11
20.6046
 21
4.98648
  0
LINE
  8
0
 10
20.6046
 20
4.98648
 11
6.97343
 21
1.68764
  0
LINE
  8
0
 10
6.97343
 20
1.68764
 11
6.96187
 21
1.73578
  0
LINE
  8
0
 10
6.96187
 20
1.73578
 11
6.93051
 21
1.85703
  0
LINE
  8
0
 10
6.93051
 20
1.85703
 11
6.89705
 21
1.97769
  0
LINE
  8
0
 10
6.89705
 20
1.97769
 11
6.86148
 21
2.09776
  0
LINE
  8
0
 10
6.86148
 20
2.09776
 11
6.82382
 21
2.21719
  0
LINE
  8
0
 10
6.82382
 20
2.21719
 11
6.78409
 21
2.33594
  0
LINE
  8
0
 10
6.78409
 20
2.33594
 11
6.74229
 21
2.45398
  0
LINE
  8
0
 10
6.74229
 20
2.45398
 11
6.69843
 21
2.57129
  0
LINE
  8
0
 10
6.69843
 20
2.57129
 11
6.65254
 21
2.68779
  0
LINE
  8
0
 10
6.65254
 20
2.68779
 11
6.63359
 21
2.73355
  0
LINE
  8
0
 10
6.63359
 20
2.73355
 11
19.6004
 21
8.0769
  0
LINE
  8
0
 10
19.6004
 20
8.0769
 11
19.6715
 21
8.09796
  0
LINE
  8
0
 10
19.6715
 20
8.09796
 11
19.7598
 21
8.12578
  0
LINE
  8
0
 10
19.7598
 20
8.12578
 11
19.8475
 21
8.15514
  0
LINE
  8
0
 10
19.8475
 20
8.15514
 11
19.9347
 21
8.186
  0
LINE
  8
0
 10
19.9347
 20
8.186
 11
20.0213
 21
8.2184
  0
LINE
  8
0
 10
20.0213
 20
8.2184
 11
20.1074
 21
8.2523
  0
LINE
  8
0
 10
20.1074
 20
8.2523
 11
20.1928
 21
8.2877
  0
LINE
  8
0
 10
20.1928
 20
8.2877
 11
20.2777
 21
8.32458
  0
LINE
  8
0
 10
20.2777
 20
8.32458
 11
20.3618
 21
8.36295
  0
LINE
  8
0
 10
20.3618
 20
8.36295
 11
20.4453
 21
8.40277
  0
LINE
  8
0
 10
20.4453
 20
8.40277
 11
20.5281
 21
8.44405
  0
LINE
  8
0
 10
20.5281
 20
8.44405
 11
20.6102
 21
8.48676
  0
LINE
  8
0
 10
20.6102
 20
8.48676
 11
20.6578
 21
8.51263
  0
LINE
  8
0
 10
20.6578
 20
8.51263
 11
20.8327
 21
8.5847
  0
LINE
  8
0
 10
20.8327
 20
8.5847
 11
20.8187
 21
8.60397
  0
LINE
  8
0
 10
20.8187
 20
8.60397
 11
20.8517
 21
8.6234
  0
LINE
  8
0
 10
20.8517
 20
8.6234
 11
20.9305
 21
8.67172
  0
LINE
  8
0
 10
20.9305
 20
8.67172
 11
21.0086
 21
8.72144
  0
LINE
  8
0
 10
21.0086
 20
8.72144
 11
21.0857
 21
8.77248
  0
LINE
  8
0
 10
21.0857
 20
8.77248
 11
21.1619
 21
8.82487
  0
LINE
  8
0
 10
21.1619
 20
8.82487
 11
21.2372
 21
8.87859
  0
LINE
  8
0
 10
21.2372
 20
8.87859
 11
21.3116
 21
8.93361
  0
LINE
  8
0
 10
21.3116
 20
8.93361
 11
21.385
 21
8.98993
  0
LINE
  8
0
 10
21.385
 20
8.98993
 11
21.4574
 21
9.04752
  0
LINE
  8
0
 10
21.4574
 20
9.04752
 11
21.5287
 21
9.10635
  0
LINE
  8
0
 10
21.5287
 20
9.10635
 11
21.5991
 21
9.16643
  0
LINE
  8
0
 10
21.5991
 20
9.16643
 11
21.6684
 21
9.22771
  0
LINE
  8
0
 10
21.6684
 20
9.22771
 11
21.7366
 21
9.29021
  0
LINE
  8
0
 10
21.7366
 20
9.29021
 11
21.8037
 21
9.35388
  0
LINE
  8
0
 10
21.8037
 20
9.35388
 11
21.8696
 21
9.41872
  0
LINE
  8
0
 10
21.8696
 20
9.41872
 11
21.9345
 21
9.4847
  0
LINE
  8
0
 10
21.9345
 20
9.4847
 11
21.9982
 21
9.55179
  0
LINE
  8
0
 10
21.9982
 20
9.55179
 11
22.0606
 21
9.62
  0
LINE
  8
0
 10
22.0606
 20
9.62
 11
22.1219
 21
9.68927
  0
LINE
  8
0
 10
22.1219
 20
9.68927
 11
22.182
 21
9.75961
  0
LINE
  8
0
 10
22.182
 20
9.75961
 11
22.2408
 21
9.83098
  0
LINE
  8
0
 10
22.2408
 20
9.83098
 11
22.2984
 21
9.90338
  0
LINE
  8
0
 10
22.2984
 20
9.90338
 11
22.3547
 21
9.97676
  0
LINE
  8
0
 10
22.3547
 20
9.97676
 11
22.4098
 21
10.0511
  0
LINE
  8
0
 10
22.4098
 20
10.0511
 11
22.4635
 21
10.1264
  0
LINE
  8
0
 10
22.4635
 20
10.1264
 11
22.5159
 21
10.2027
  0
LINE
  8
0
 10
22.5159
 20
10.2027
 11
22.5669
 21
10.2798
  0
LINE
  8
0
 10
22.5669
 20
10.2798
 11
22.6166
 21
10.3578
  0
LINE
  8
0
 10
22.6166
 20
10.3578
 11
22.665
 21
10.4367
  0
LINE
  8
0
 10
22.665
 20
10.4367
 11
22.7119
 21
10.5164
  0
LINE
  8
0
 10
22.7119
 20
10.5164
 11
22.7575
 21
10.5969
  0
LINE
  8
0
 10
22.7575
 20
10.5969
 11
22.8016
 21
10.6782
  0
LINE
  8
0
 10
22.8016
 20
10.6782
 11
22.8443
 21
10.7602
  0
LINE
  8
0
 10
22.8443
 20
10.7602
 11
22.8856
 21
10.843
  0
LINE
  8
0
 10
22.8856
 20
10.843
 11
22.9254
 21
10.9265
  0
LINE
  8
0
 10
22.9254
 20
10.9265
 11
22.9638
 21
11.0107
  0
LINE
  8
0
 10
22.9638
 20
11.0107
 11
23.0007
 21
11.0955
  0
LINE
  8
0
 10
23.0007
 20
11.0955
 11
23.036
 21
11.181
  0
LINE
  8
0
 10
23.036
 20
11.181
 11
23.0699
 21
11.267
  0
LINE
  8
0
 10
23.0699
 20
11.267
 11
23.1023
 21
11.3537
  0
LINE
  8
0
 10
23.1023
 20
11.3537
 11
23.1332
 21
11.4409
  0
LINE
  8
0
 10
23.1332
 20
11.4409
 11
23.1626
 21
11.5286
  0
LINE
  8
0
 10
23.1626
 20
11.5286
 11
23.1904
 21
11.6168
  0
LINE
  8
0
 10
23.1904
 20
11.6168
 11
23.2167
 21
11.7055
  0
LINE
  8
0
 10
23.2167
 20
11.7055
 11
23.2414
 21
11.7946
  0
LINE
  8
0
 10
23.2414
 20
11.7946
 11
23.2645
 21
11.8842
  0
LINE
  8
0
 10
23.2645
 20
11.8842
 11
23.2861
 21
11.9741
  0
LINE
  8
0
 10
23.2861
 20
11.9741
 11
23.3062
 21
12.0645
  0
LINE
  8
0
 10
23.3062
 20
12.0645
 11
23.3246
 21
12.1551
  0
LINE
  8
0
 10
23.3246
 20
12.1551
 11
23.3415
 21
12.246
  0
LINE
  8
0
 10
23.3415
 20
12.246
 11
23.3567
 21
12.3373
  0
LINE
  8
0
 10
23.3567
 20
12.3373
 11
23.3704
 21
12.4288
  0
LINE
  8
0
 10
23.3704
 20
12.4288
 11
23.3825
 21
12.5205
  0
LINE
  8
0
 10
23.3825
 20
12.5205
 11
23.3929
 21
12.6124
  0
LINE
  8
0
 10
23.3929
 20
12.6124
 11
23.4018
 21
12.7045
  0
LINE
  8
0
 10
23.4018
 20
12.7045
 11
23.4091
 21
12.7967
  0
LINE
  8
0
 10
23.4091
 20
12.7967
 11
23.4147
 21
12.889
  0
LINE
  8
0
 10
23.4147
 20
12.889
 11
23.4187
 21
12.9814
  0
LINE
  8
0
 10
23.4187
 20
12.9814
 11
23.4212
 21
13.0739
  0
LINE
  8
0
 10
23.4212
 20
13.0739
 11
23.422
 21
13.1664
  0
LINE
  8
0
 10
23.422
 20
13.1664
 11
23.4212
 21
13.2589
  0
LINE
  8
0
 10
23.4212
 20
13.2589
 11
23.4187
 21
13.3513
  0
LINE
  8
0
 10
23.4187
 20
13.3513
 11
23.4147
 21
13.4438
  0
LINE
  8
0
 10
23.4147
 20
13.4438
 11
23.4091
 21
13.5361
  0
LINE
  8
0
 10
23.4091
 20
13.5361
 11
23.4018
 21
13.6283
  0
LINE
  8
0
 10
23.4018
 20
13.6283
 11
23.3929
 21
13.7204
  0
LINE
  8
0
 10
23.3929
 20
13.7204
 11
23.3825
 21
13.8123
  0
LINE
  8
0
 10
23.3825
 20
13.8123
 11
23.3704
 21
13.904
  0
LINE
  8
0
 10
23.3704
 20
13.904
 11
23.3567
 21
13.9955
  0
LINE
  8
0
 10
23.3567
 20
13.9955
 11
23.3415
 21
14.0867
  0
LINE
  8
0
 10
23.3415
 20
14.0867
 11
23.3246
 21
14.1777
  0
LINE
  8
0
 10
23.3246
 20
14.1777
 11
23.3062
 21
14.2683
  0
LINE
  8
0
 10
23.3062
 20
14.2683
 11
23.2861
 21
14.3586
  0
LINE
  8
0
 10
23.2861
 20
14.3586
 11
23.2645
 21
14.4486
  0
LINE
  8
0
 10
23.2645
 20
14.4486
 11
23.2414
 21
14.5381
  0
LINE
  8
0
 10
23.2414
 20
14.5381
 11
23.2167
 21
14.6273
  0
LINE
  8
0
 10
23.2167
 20
14.6273
 11
23.1904
 21
14.716
  0
LINE
  8
0
 10
23.1904
 20
14.716
 11
23.1626
 21
14.8042
  0
LINE
  8
0
 10
23.1626
 20
14.8042
 11
23.1332
 21
14.8919
  0
LINE
  8
0
 10
23.1332
 20
14.8919
 11
23.1023
 21
14.9791
  0
LINE
  8
0
 10
23.1023
 20
14.9791
 11
23.0699
 21
15.0657
  0
LINE
  8
0
 10
23.0699
 20
15.0657
 11
23.036
 21
15.1518
  0
LINE
  8
0
 10
23.036
 20
15.1518
 11
23.0007
 21
15.2373
  0
LINE
  8
0
 10
23.0007
 20
15.2373
 11
22.9638
 21
15.3221
  0
LINE
  8
0
 10
22.9638
 20
15.3221
 11
22.9254
 21
15.4063
  0
LINE
  8
0
 10
22.9254
 20
15.4063
 11
22.8856
 21
15.4897
  0
LINE
  8
0
 10
22.8856
 20
15.4897
 11
22.8443
 21
15.5725
  0
LINE
  8
0
 10
22.8443
 20
15.5725
 11
22.8016
 21
15.6546
  0
LINE
  8
0
 10
22.8016
 20
15.6546
 11
22.7575
 21
15.7359
  0
LINE
  8
0
 10
22.7575
 20
15.7359
 11
22.7119
 21
15.8164
  0
LINE
  8
0
 10
22.7119
 20
15.8164
 11
22.665
 21
15.8961
  0
LINE
  8
0
 10
22.665
 20
15.8961
 11
22.6166
 21
15.975
  0
LINE
  8
0
 10
22.6166
 20
15.975
 11
22.5669
 21
16.053
  0
LINE
  8
0
 10
22.5669
 20
16.053
 11
22.5159
 21
16.1301
  0
LINE
  8
0
 10
22.5159
 20
16.1301
 11
22.4635
 21
16.2063
  0
LINE
  8
0
 10
22.4635
 20
16.2063
 11
22.4098
 21
16.2816
  0
LINE
  8
0
 10
22.4098
 20
16.2816
 11
22.3547
 21
16.356
  0
LINE
  8
0
 10
22.3547
 20
16.356
 11
22.2984
 21
16.4294
  0
LINE
  8
0
 10
22.2984
 20
16.4294
 11
22.2408
 21
16.5018
  0
LINE
  8
0
 10
22.2408
 20
16.5018
 11
22.182
 21
16.5732
  0
LINE
  8
0
 10
22.182
 20
16.5732
 11
22.1219
 21
16.6435
  0
LINE
  8
0
 10
22.1219
 20
16.6435
 11
22.0606
 21
16.7128
  0
LINE
  8
0
 10
22.0606
 20
16.7128
 11
21.9982
 21
16.781
  0
LINE
  8
0
 10
21.9982
 20
16.781
 11
21.9345
 21
16.8481
  0
LINE
  8
0
 10
21.9345
 20
16.8481
 11
21.8696
 21
16.914
  0
LINE
  8
0
 10
21.8696
 20
16.914
 11
21.8037
 21
16.9789
  0
LINE
  8
0
 10
21.8037
 20
16.9789
 11
21.7366
 21
17.0426
  0
LINE
  8
0
 10
21.7366
 20
17.0426
 11
21.6684
 21
17.1051
  0
LINE
  8
0
 10
21.6684
 20
17.1051
 11
21.5991
 21
17.1663
  0
LINE
  8
0
 10
21.5991
 20
17.1663
 11
21.5287
 21
17.2264
  0
LINE
  8
0
 10
21.5287
 20
17.2264
 11
21.4574
 21
17.2853
  0
LINE
  8
0
 10
21.4574
 20
17.2853
 11
21.385
 21
17.3428
  0
LINE
  8
0
 10
21.385
 20
17.3428
 11
21.3116
 21
17.3992
  0
LINE
  8
0
 10
21.3116
 20
17.3992
 11
21.2372
 21
17.4542
  0
LINE
  8
0
 10
21.2372
 20
17.4542
 11
21.1619
 21
17.5079
  0
LINE
  8
0
 10
21.1619
 20
17.5079
 11
21.0857
 21
17.5603
  0
LINE
  8
0
 10
21.0857
 20
17.5603
 11
21.0086
 21
17.6113
  0
LINE
  8
0
 10
21.0086
 20
17.6113
 11
20.9305
 21
17.661
  0
LINE
  8
0
 10
20.9305
 20
17.661
 11
20.8517
 21
17.7094
  0
LINE
  8
0
 10
20.8517
 20
17.7094
 11
20.772
 21
17.7563
  0
LINE
  8
0
 10
20.772
 20
17.7563
 11
20.6915
 21
17.8019
  0
LINE
  8
0
 10
20.6915
 20
17.8019
 11
20.6102
 21
17.846
  0
LINE
  8
0
 10
20.6102
 20
17.846
 11
20.5281
 21
17.8887
  0
LINE
  8
0
 10
20.5281
 20
17.8887
 11
20.4453
 21
17.93
  0
LINE
  8
0
 10
20.4453
 20
17.93
 11
20.3618
 21
17.9698
  0
LINE
  8
0
 10
20.3618
 20
17.9698
 11
20.2777
 21
18.0082
  0
LINE
  8
0
 10
20.2777
 20
18.0082
 11
20.1928
 21
18.0451
  0
LINE
  8
0
 10
20.1928
 20
18.0451
 11
20.1074
 21
18.0805
  0
LINE
  8
0
 10
20.1074
 20
18.0805
 11
20.0213
 21
18.1144
  0
LINE
  8
0
 10
20.0213
 20
18.1144
 11
19.9347
 21
18.1468
  0
LINE
  8
0
 10
19.9347
 20
18.1468
 11
19.8475
 21
18.1776
  0
LINE
  8
0
 10
19.8475
 20
18.1776
 11
19.7598
 21
18.207
  0
LINE
  8
0
 10
19.7598
 20
18.207
 11
19.6715
 21
18.2348
  0
LINE
  8
0
 10
19.6715
 20
18.2348
 11
19.5829
 21
18.2611
  0
LINE
  8
0
 10
19.5829
 20
18.2611
 11
19.4937
 21
18.2858
  0
LINE
  8
0
 10
19.4937
 20
18.2858
 11
19.4042
 21
18.3089
  0
LINE
  8
0
 10
19.4042
 20
18.3089
 11
19.3142
 21
18.3305
  0
LINE
  8
0
 10
19.3142
 20
18.3305
 11
19.2239
 21
18.3506
  0
LINE
  8
0
 10
19.2239
 20
18.3506
 11
19.1333
 21
18.369
  0
LINE
  8
0
 10
19.1333
 20
18.369
 11
19.0423
 21
18.3859
  0
LINE
  8
0
 10
19.0423
 20
18.3859
 11
18.9511
 21
18.4011
  0
LINE
  8
0
 10
18.9511
 20
18.4011
 11
18.8596
 21
18.4148
  0
LINE
  8
0
 10
18.8596
 20
18.4148
 11
18.7679
 21
18.4269
  0
LINE
  8
0
 10
18.7679
 20
18.4269
 11
18.676
 21
18.4373
  0
LINE
  8
0
 10
18.676
 20
18.4373
 11
18.5839
 21
18.4462
  0
LINE
  8
0
 10
18.5839
 20
18.4462
 11
18.4917
 21
18.4535
  0
LINE
  8
0
 10
18.4917
 20
18.4535
 11
18.3994
 21
18.4591
  0
LINE
  8
0
 10
18.3994
 20
18.4591
 11
18.3069
 21
18.4632
  0
LINE
  8
0
 10
18.3069
 20
18.4632
 11
18.2145
 21
18.4656
  0
LINE
  8
0
 10
18.2145
 20
18.4656
 11
18.122
 21
18.4664
  0
LINE
  8
0
 10
18.122
 20
18.4664
 11
18.0295
 21
18.4656
  0
LINE
  8
0
 10
18.0295
 20
18.4656
 11
17.937
 21
18.4632
  0
LINE
  8
0
 10
17.937
 20
18.4632
 11
17.8446
 21
18.4591
  0
LINE
  8
0
 10
17.8446
 20
18.4591
 11
17.7523
 21
18.4535
  0
LINE
  8
0
 10
17.7523
 20
18.4535
 11
17.66
 21
18.4462
  0
LINE
  8
0
 10
17.66
 20
18.4462
 11
17.568
 21
18.4373
  0
LINE
  8
0
 10
17.568
 20
18.4373
 11
17.4761
 21
18.4269
  0
LINE
  8
0
 10
17.4761
 20
18.4269
 11
17.3844
 21
18.4148
  0
LINE
  8
0
 10
17.3844
 20
18.4148
 11
17.2929
 21
18.4011
  0
LINE
  8
0
 10
17.2929
 20
18.4011
 11
17.2016
 21
18.3859
  0
LINE
  8
0
 10
17.2016
 20
18.3859
 11
17.1107
 21
18.369
  0
LINE
  8
0
 10
17.1107
 20
18.369
 11
17.02
 21
18.3506
  0
LINE
  8
0
 10
17.02
 20
18.3506
 11
16.9297
 21
18.3305
  0
LINE
  8
0
 10
16.9297
 20
18.3305
 11
16.8398
 21
18.3089
  0
LINE
  8
0
 10
16.8398
 20
18.3089
 11
16.7502
 21
18.2858
  0
LINE
  8
0
 10
16.7502
 20
18.2858
 11
16.6611
 21
18.2611
  0
LINE
  8
0
 10
16.6611
 20
18.2611
 11
16.5724
 21
18.2348
  0
LINE
  8
0
 10
16.5724
 20
18.2348
 11
16.4842
 21
18.207
  0
LINE
  8
0
 10
16.4842
 20
18.207
 11
16.3965
 21
18.1776
  0
LINE
  8
0
 10
16.3965
 20
18.1776
 11
16.3093
 21
18.1468
  0
LINE
  8
0
 10
16.3093
 20
18.1468
 11
16.2226
 21
18.1144
  0
LINE
  8
0
 10
16.2226
 20
18.1144
 11
16.1366
 21
18.0805
  0
LINE
  8
0
 10
16.1366
 20
18.0805
 11
16.0511
 21
18.0451
  0
LINE
  8
0
 10
16.0511
 20
18.0451
 11
15.9663
 21
18.0082
  0
LINE
  8
0
 10
15.9663
 20
18.0082
 11
15.8821
 21
17.9698
  0
LINE
  8
0
 10
15.8821
 20
17.9698
 11
15.7986
 21
17.93
  0
LINE
  8
0
 10
15.7986
 20
17.93
 11
15.7158
 21
17.8887
  0
LINE
  8
0
 10
15.7158
 20
17.8887
 11
15.6338
 21
17.846
  0
LINE
  8
0
 10
15.6338
 20
17.846
 11
15.5525
 21
17.8019
  0
LINE
  8
0
 10
15.5525
 20
17.8019
 11
15.472
 21
17.7563
  0
LINE
  8
0
 10
15.472
 20
17.7563
 11
15.3923
 21
17.7094
  0
LINE
  8
0
 10
15.3923
 20
17.7094
 11
15.3134
 21
17.661
  0
LINE
  8
0
 10
15.3134
 20
17.661
 11
15.2354
 21
17.6113
  0
LINE
  8
0
 10
15.2354
 20
17.6113
 11
15.1582
 21
17.5603
  0
LINE
  8
0
 10
15.1582
 20
17.5603
 11
15.082
 21
17.5079
  0
LINE
  8
0
 10
15.082
 20
17.5079
 11
15.0067
 21
17.4542
  0
LINE
  8
0
 10
15.0067
 20
17.4542
 11
14.9324
 21
17.3992
  0
LINE
  8
0
 10
14.9324
 20
17.3992
 11
14.859
 21
17.3428
  0
LINE
  8
0
 10
14.859
 20
17.3428
 11
14.7866
 21
17.2853
  0
LINE
  8
0
 10
14.7866
 20
17.2853
 11
14.7152
 21
17.2264
  0
LINE
  8
0
 10
14.7152
 20
17.2264
 11
14.6449
 21
17.1663
  0
LINE
  8
0
 10
14.6449
 20
17.1663
 11
14.6162
 21
17.141
  0
LINE
  8
0
 10
14.6162
 20
17.141
 11
14.6022
 21
17.1603
  0
LINE
  8
0
 10
14.6022
 20
17.1603
 11
14.4796
 21
17.0162
  0
LINE
  8
0
 10
14.4796
 20
17.0162
 11
14.4403
 21
16.9789
  0
LINE
  8
0
 10
14.4403
 20
16.9789
 11
14.3743
 21
16.914
  0
LINE
  8
0
 10
14.3743
 20
16.914
 11
14.3095
 21
16.8481
  0
LINE
  8
0
 10
14.3095
 20
16.8481
 11
14.2458
 21
16.781
  0
LINE
  8
0
 10
14.2458
 20
16.781
 11
14.1833
 21
16.7128
  0
LINE
  8
0
 10
14.1833
 20
16.7128
 11
14.122
 21
16.6435
  0
LINE
  8
0
 10
14.122
 20
16.6435
 11
14.0619
 21
16.5732
  0
LINE
  8
0
 10
14.0619
 20
16.5732
 11
14.0031
 21
16.5018
  0
LINE
  8
0
 10
14.0031
 20
16.5018
 11
13.9455
 21
16.4294
  0
LINE
  8
0
 10
13.9455
 20
16.4294
 11
13.8892
 21
16.356
  0
LINE
  8
0
 10
13.8892
 20
16.356
 11
13.8342
 21
16.2816
  0
LINE
  8
0
 10
13.8342
 20
16.2816
 11
13.7805
 21
16.2063
  0
LINE
  8
0
 10
13.7805
 20
16.2063
 11
13.7384
 21
16.1451
  0
LINE
  8
0
 10
13.7384
 20
16.1451
 11
4.64966
 21
5.4642
  0
LINE
  8
0
 10
4.64966
 20
5.4642
 11
4.612
 21
5.49637
  0
LINE
  8
0
 10
4.612
 20
5.49637
 11
4.51537
 21
5.57602
  0
LINE
  8
0
 10
4.51537
 20
5.57602
 11
4.41736
 21
5.65398
  0
LINE
  8
0
 10
4.41736
 20
5.65398
 11
4.31801
 21
5.73021
  0
LINE
  8
0
 10
4.31801
 20
5.73021
 11
4.21735
 21
5.80469
  0
LINE
  8
0
 10
4.21735
 20
5.80469
 11
4.1154
 21
5.87741
  0
LINE
  8
0
 10
4.1154
 20
5.87741
 11
4.01221
 21
5.94833
  0
LINE
  8
0
 10
4.01221
 20
5.94833
 11
3.90778
 21
6.01746
  0
LINE
  8
0
 10
3.90778
 20
6.01746
 11
3.80217
 21
6.08473
  0
LINE
  8
0
 10
3.80217
 20
6.08473
 11
3.75993
 21
6.11061
  0
LINE
  8
0
 10
3.75993
 20
6.11061
 11
11.1095
 21
18.0551
  0
LINE
  8
0
 10
11.1095
 20
18.0551
 11
11.1547
 21
18.114
  0
LINE
  8
0
 10
11.1547
 20
18.114
 11
11.2098
 21
18.1884
  0
LINE
  8
0
 10
11.2098
 20
18.1884
 11
11.2635
 21
18.2637
  0
LINE
  8
0
 10
11.2635
 20
18.2637
 11
11.3159
 21
18.3399
  0
LINE
  8
0
 10
11.3159
 20
18.3399
 11
11.3669
 21
18.4171
  0
LINE
  8
0
 10
11.3669
 20
18.4171
 11
11.4166
 21
18.4951
  0
LINE
  8
0
 10
11.4166
 20
18.4951
 11
11.465
 21
18.574
  0
LINE
  8
0
 10
11.465
 20
18.574
 11
11.5119
 21
18.6537
  0
LINE
  8
0
 10
11.5119
 20
18.6537
 11
11.5575
 21
18.7342
  0
LINE
  8
0
 10
11.5575
 20
18.7342
 11
11.6016
 21
18.8155
  0
LINE
  8
0
 10
11.6016
 20
18.8155
 11
11.6443
 21
18.8975
  0
LINE
  8
0
 10
11.6443
 20
18.8975
 11
11.6856
 21
18.9803
  0
LINE
  8
0
 10
11.6856
 20
18.9803
 11
11.709
 21
19.0293
  0
LINE
  8
0
 10
11.709
 20
19.0293
 11
11.808
 21
19.1903
  0
LINE
  8
0
 10
11.808
 20
19.1903
 11
11.7854
 21
19.1977
  0
LINE
  8
0
 10
11.7854
 20
19.1977
 11
11.8006
 21
19.2328
  0
LINE
  8
0
 10
11.8006
 20
19.2328
 11
11.836
 21
19.3182
  0
LINE
  8
0
 10
11.836
 20
19.3182
 11
11.8699
 21
19.4043
  0
LINE
  8
0
 10
11.8699
 20
19.4043
 11
11.9023
 21
19.491
  0
LINE
  8
0
 10
11.9023
 20
19.491
 11
11.9332
 21
19.5781
  0
LINE
  8
0
 10
11.9332
 20
19.5781
 11
11.9626
 21
19.6659
  0
LINE
  8
0
 10
11.9626
 20
19.6659
 11
11.9904
 21
19.7541
  0
LINE
  8
0
 10
11.9904
 20
19.7541
 11
12.0167
 21
19.8428
  0
LINE
  8
0
 10
12.0167
 20
19.8428
 11
12.0414
 21
19.9319
  0
LINE
  8
0
 10
12.0414
 20
19.9319
 11
12.0645
 21
20.0215
  0
LINE
  8
0
 10
12.0645
 20
20.0215
 11
12.0861
 21
20.1114
  0
LINE
  8
0
 10
12.0861
 20
20.1114
 11
12.1062
 21
20.2017
  0
LINE
  8
0
 10
12.1062
 20
20.2017
 11
12.1246
 21
20.2924
  0
LINE
  8
0
 10
12.1246
 20
20.2924
 11
12.1414
 21
20.3833
  0
LINE
  8
0
 10
12.1414
 20
20.3833
 11
12.1567
 21
20.4745
  0
LINE
  8
0
 10
12.1567
 20
20.4745
 11
12.1704
 21
20.566
  0
LINE
  8
0
 10
12.1704
 20
20.566
 11
12.1825
 21
20.6577
  0
LINE
  8
0
 10
12.1825
 20
20.6577
 11
12.1929
 21
20.7497
  0
LINE
  8
0
 10
12.1929
 20
20.7497
 11
12.2018
 21
20.8417
  0
LINE
  8
0
 10
12.2018
 20
20.8417
 11
12.2091
 21
20.9339
  0
LINE
  8
0
 10
12.2091
 20
20.9339
 11
12.2147
 21
21.0263
  0
LINE
  8
0
 10
12.2147
 20
21.0263
 11
12.2188
 21
21.1187
  0
LINE
  8
0
 10
12.2188
 20
21.1187
 11
12.2212
 21
21.2112
  0
LINE
  8
0
 10
12.2212
 20
21.2112
 11
12.222
 21
21.3037
  0
LINE
  8
0
 10
12.222
 20
21.3037
 11
12.2212
 21
21.3961
  0
LINE
  8
0
 10
12.2212
 20
21.3961
 11
12.2188
 21
21.4886
  0
LINE
  8
0
 10
12.2188
 20
21.4886
 11
12.2147
 21
21.581
  0
LINE
  8
0
 10
12.2147
 20
21.581
 11
12.2091
 21
21.6734
  0
LINE
  8
0
 10
12.2091
 20
21.6734
 11
12.2018
 21
21.7656
  0
LINE
  8
0
 10
12.2018
 20
21.7656
 11
12.1929
 21
21.8577
  0
LINE
  8
0
 10
12.1929
 20
21.8577
 11
12.1825
 21
21.9496
  0
LINE
  8
0
 10
12.1825
 20
21.9496
 11
12.1704
 21
22.0413
  0
LINE
  8
0
 10
12.1704
 20
22.0413
 11
12.1567
 21
22.1328
  0
LINE
  8
0
 10
12.1567
 20
22.1328
 11
12.1414
 21
22.224
  0
LINE
  8
0
 10
12.1414
 20
22.224
 11
12.1246
 21
22.3149
  0
LINE
  8
0
 10
12.1246
 20
22.3149
 11
12.1062
 21
22.4056
  0
LINE
  8
0
 10
12.1062
 20
22.4056
 11
12.0861
 21
22.4959
  0
LINE
  8
0
 10
12.0861
 20
22.4959
 11
12.0645
 21
22.5858
  0
LINE
  8
0
 10
12.0645
 20
22.5858
 11
12.0414
 21
22.6754
  0
LINE
  8
0
 10
12.0414
 20
22.6754
 11
12.0167
 21
22.7645
  0
LINE
  8
0
 10
12.0167
 20
22.7645
 11
11.9904
 21
22.8532
  0
LINE
  8
0
 10
11.9904
 20
22.8532
 11
11.9626
 21
22.9415
  0
LINE
  8
0
 10
11.9626
 20
22.9415
 11
11.9332
 21
23.0292
  0
LINE
  8
0
 10
11.9332
 20
23.0292
 11
11.9023
 21
23.1164
  0
LINE
  8
0
 10
11.9023
 20
23.1164
 11
11.8699
 21
23.203
  0
LINE
  8
0
 10
11.8699
 20
23.203
 11
11.836
 21
23.2891
  0
LINE
  8
0
 10
11.836
 20
23.2891
 11
11.8006
 21
23.3745
  0
LINE
  8
0
 10
11.8006
 20
23.3745
 11
11.7638
 21
23.4594
  0
LINE
  8
0
 10
11.7638
 20
23.4594
 11
11.7254
 21
23.5435
  0
LINE
  8
0
 10
11.7254
 20
23.5435
 11
11.6856
 21
23.627
  0
LINE
  8
0
 10
11.6856
 20
23.627
 11
11.6443
 21
23.7098
  0
LINE
  8
0
 10
11.6443
 20
23.7098
 11
11.6016
 21
23.7919
  0
LINE
  8
0
 10
11.6016
 20
23.7919
 11
11.5575
 21
23.8732
  0
LINE
  8
0
 10
11.5575
 20
23.8732
 11
11.5119
 21
23.9537
  0
LINE
  8
0
 10
11.5119
 20
23.9537
 11
11.465
 21
24.0334
  0
LINE
  8
0
 10
11.465
 20
24.0334
 11
11.4166
 21
24.1122
  0
LINE
  8
0
 10
11.4166
 20
24.1122
 11
11.3669
 21
24.1902
  0
LINE
  8
0
 10
11.3669
 20
24.1902
 11
11.3159
 21
24.2674
  0
LINE
  8
0
 10
11.3159
 20
24.2674
 11
11.2635
 21
24.3436
  0
LINE
  8
0
 10
11.2635
 20
24.3436
 11
11.2098
 21
24.4189
  0
LINE
  8
0
 10
11.2098
 20
24.4189
 11
11.1547
 21
24.4933
  0
LINE
  8
0
 10
11.1547
 20
24.4933
 11
11.0984
 21
24.5667
  0
LINE
  8
0
 10
11.0984
 20
24.5667
 11
11.0408
 21
24.6391
  0
LINE
  8
0
 10
11.0408
 20
24.6391
 11
10.982
 21
24.7104
  0
LINE
  8
0
 10
10.982
 20
24.7104
 11
10.9219
 21
24.7808
  0
LINE
  8
0
 10
10.9219
 20
24.7808
 11
10.8606
 21
24.8501
  0
LINE
  8
0
 10
10.8606
 20
24.8501
 11
10.7981
 21
24.9182
  0
LINE
  8
0
 10
10.7981
 20
24.9182
 11
10.7345
 21
24.9854
  0
LINE
  8
0
 10
10.7345
 20
24.9854
 11
10.6696
 21
25.0513
  0
LINE
  8
0
 10
10.6696
 20
25.0513
 11
10.6037
 21
25.1162
  0
LINE
  8
0
 10
10.6037
 20
25.1162
 11
10.5366
 21
25.1798
  0
LINE
  8
0
 10
10.5366
 20
25.1798
 11
10.4684
 21
25.2423
  0
LINE
  8
0
 10
10.4684
 20
25.2423
 11
10.3991
 21
25.3036
  0
LINE
  8
0
 10
10.3991
 20
25.3036
 11
10.3288
 21
25.3637
  0
LINE
  8
0
 10
10.3288
 20
25.3637
 11
10.2574
 21
25.4225
  0
LINE
  8
0
 10
10.2574
 20
25.4225
 11
10.185
 21
25.4801
  0
LINE
  8
0
 10
10.185
 20
25.4801
 11
10.1116
 21
25.5364
  0
LINE
  8
0
 10
10.1116
 20
25.5364
 11
10.0372
 21
25.5914
  0
LINE
  8
0
 10
10.0372
 20
25.5914
 11
9.96193
 21
25.6452
  0
LINE
  8
0
 10
9.96193
 20
25.6452
 11
9.8857
 21
25.6976
  0
LINE
  8
0
 10
9.8857
 20
25.6976
 11
9.80856
 21
25.7486
  0
LINE
  8
0
 10
9.80856
 20
25.7486
 11
9.73055
 21
25.7983
  0
LINE
  8
0
 10
9.73055
 20
25.7983
 11
9.65167
 21
25.8466
  0
LINE
  8
0
 10
9.65167
 20
25.8466
 11
9.57198
 21
25.8936
  0
LINE
  8
0
 10
9.57198
 20
25.8936
 11
9.49147
 21
25.9391
  0
LINE
  8
0
 10
9.49147
 20
25.9391
 11
9.41017
 21
25.9833
  0
LINE
  8
0
 10
9.41017
 20
25.9833
 11
9.32812
 21
26.026
  0
LINE
  8
0
 10
9.32812
 20
26.026
 11
9.24535
 21
26.0673
  0
LINE
  8
0
 10
9.24535
 20
26.0673
 11
9.16185
 21
26.1071
  0
LINE
  8
0
 10
9.16185
 20
26.1071
 11
9.07768
 21
26.1454
  0
LINE
  8
0
 10
9.07768
 20
26.1454
 11
8.99284
 21
26.1823
  0
LINE
  8
0
 10
8.99284
 20
26.1823
 11
8.90739
 21
26.2177
  0
LINE
  8
0
 10
8.90739
 20
26.2177
 11
8.82132
 21
26.2516
  0
LINE
  8
0
 10
8.82132
 20
26.2516
 11
8.73468
 21
26.284
  0
LINE
  8
0
 10
8.73468
 20
26.284
 11
8.64749
 21
26.3149
  0
LINE
  8
0
 10
8.64749
 20
26.3149
 11
8.55977
 21
26.3443
  0
LINE
  8
0
 10
8.55977
 20
26.3443
 11
8.47154
 21
26.3721
  0
LINE
  8
0
 10
8.47154
 20
26.3721
 11
8.38286
 21
26.3983
  0
LINE
  8
0
 10
8.38286
 20
26.3983
 11
8.29372
 21
26.4231
  0
LINE
  8
0
 10
8.29372
 20
26.4231
 11
8.20416
 21
26.4462
  0
LINE
  8
0
 10
8.20416
 20
26.4462
 11
8.11421
 21
26.4678
  0
LINE
  8
0
 10
8.11421
 20
26.4678
 11
8.02391
 21
26.4878
  0
LINE
  8
0
 10
8.02391
 20
26.4878
 11
7.93326
 21
26.5063
  0
LINE
  8
0
 10
7.93326
 20
26.5063
 11
7.84232
 21
26.5231
  0
LINE
  8
0
 10
7.84232
 20
26.5231
 11
7.75107
 21
26.5384
  0
LINE
  8
0
 10
7.75107
 20
26.5384
 11
7.65959
 21
26.5521
  0
LINE
  8
0
 10
7.65959
 20
26.5521
 11
7.56789
 21
26.5641
  0
LINE
  8
0
 10
7.56789
 20
26.5641
 11
7.47597
 21
26.5746
  0
LINE
  8
0
 10
7.47597
 20
26.5746
 11
7.3839
 21
26.5835
  0
LINE
  8
0
 10
7.3839
 20
26.5835
 11
7.29169
 21
26.5907
  0
LINE
  8
0
 10
7.29169
 20
26.5907
 11
7.19936
 21
26.5964
  0
LINE
  8
0
 10
7.19936
 20
26.5964
 11
7.10693
 21
26.6004
  0
LINE
  8
0
 10
7.10693
 20
26.6004
 11
7.01447
 21
26.6028
  0
LINE
  8
0
 10
7.01447
 20
26.6028
 11
6.92197
 21
26.6037
  0
LINE
  8
0
 10
6.92197
 20
26.6037
 11
6.82947
 21
26.6028
  0
LINE
  8
0
 10
6.82947
 20
26.6028
 11
6.737
 21
26.6004
  0
LINE
  8
0
 10
6.737
 20
26.6004
 11
6.64459
 21
26.5964
  0
LINE
  8
0
 10
6.64459
 20
26.5964
 11
6.55226
 21
26.5907
  0
LINE
  8
0
 10
6.55226
 20
26.5907
 11
6.46005
 21
26.5835
  0
LINE
  8
0
 10
6.46005
 20
26.5835
 11
6.36797
 21
26.5746
  0
LINE
  8
0
 10
6.36797
 20
26.5746
 11
6.27606
 21
26.5641
  0
LINE
  8
0
 10
6.27606
 20
26.5641
 11
6.18436
 21
26.5521
  0
LINE
  8
0
 10
6.18436
 20
26.5521
 11
6.09286
 21
26.5384
  0
LINE
  8
0
 10
6.09286
 20
26.5384
 11
6.00163
 21
26.5231
  0
LINE
  8
0
 10
6.00163
 20
26.5231
 11
5.91069
 21
26.5063
  0
LINE
  8
0
 10
5.91069
 20
26.5063
 11
5.82004
 21
26.4878
  0
LINE
  8
0
 10
5.82004
 20
26.4878
 11
5.72974
 21
26.4678
  0
LINE
  8
0
 10
5.72974
 20
26.4678
 11
5.63979
 21
26.4462
  0
LINE
  8
0
 10
5.63979
 20
26.4462
 11
5.55023
 21
26.4231
  0
LINE
  8
0
 10
5.55023
 20
26.4231
 11
5.46109
 21
26.3983
  0
LINE
  8
0
 10
5.46109
 20
26.3983
 11
5.37241
 21
26.3721
  0
LINE
  8
0
 10
5.37241
 20
26.3721
 11
5.28418
 21
26.3443
  0
LINE
  8
0
 10
5.28418
 20
26.3443
 11
5.19646
 21
26.3149
  0
LINE
  8
0
 10
5.19646
 20
26.3149
 11
5.10927
 21
26.284
  0
LINE
  8
0
 10
5.10927
 20
26.284
 11
5.02263
 21
26.2516
  0
LINE
  8
0
 10
5.02263
 20
26.2516
 11
4.93655
 21
26.2177
  0
LINE
  8
0
 10
4.93655
 20
26.2177
 11
4.8511
 21
26.1823
  0
LINE
  8
0
 10
4.8511
 20
26.1823
 11
4.76627
 21
26.1454
  0
LINE
  8
0
 10
4.76627
 20
26.1454
 11
4.6821
 21
26.1071
  0
LINE
  8
0
 10
4.6821
 20
26.1071
 11
4.5986
 21
26.0673
  0
LINE
  8
0
 10
4.5986
 20
26.0673
 11
4.51582
 21
26.026
  0
LINE
  8
0
 10
4.51582
 20
26.026
 11
4.43378
 21
25.9833
  0
LINE
  8
0
 10
4.43378
 20
25.9833
 11
4.35248
 21
25.9391
  0
LINE
  8
0
 10
4.35248
 20
25.9391
 11
4.27197
 21
25.8936
  0
LINE
  8
0
 10
4.27197
 20
25.8936
 11
4.19228
 21
25.8466
  0
LINE
  8
0
 10
4.19228
 20
25.8466
 11
4.1134
 21
25.7983
  0
LINE
  8
0
 10
4.1134
 20
25.7983
 11
4.03539
 21
25.7486
  0
LINE
  8
0
 10
4.03539
 20
25.7486
 11
3.95825
 21
25.6976
  0
LINE
  8
0
 10
3.95825
 20
25.6976
 11
3.88202
 21
25.6452
  0
LINE
  8
0
 10
3.88202
 20
25.6452
 11
3.80672
 21
25.5914
  0
LINE
  8
0
 10
3.80672
 20
25.5914
 11
3.73236
 21
25.5364
  0
LINE
  8
0
 10
3.73236
 20
25.5364
 11
3.65897
 21
25.4801
  0
LINE
  8
0
 10
3.65897
 20
25.4801
 11
3.58658
 21
25.4225
  0
LINE
  8
0
 10
3.58658
 20
25.4225
 11
3.5152
 21
25.3637
  0
LINE
  8
0
 10
3.5152
 20
25.3637
 11
3.44485
 21
25.3036
  0
LINE
  8
0
 10
3.44485
 20
25.3036
 11
3.37558
 21
25.2423
  0
LINE
  8
0
 10
3.37558
 20
25.2423
 11
3.30739
 21
25.1798
  0
LINE
  8
0
 10
3.30739
 20
25.1798
 11
3.24028
 21
25.1162
  0
LINE
  8
0
 10
3.24028
 20
25.1162
 11
3.1743
 21
25.0513
  0
LINE
  8
0
 10
3.1743
 20
25.0513
 11
3.10947
 21
24.9854
  0
LINE
  8
0
 10
3.10947
 20
24.9854
 11
3.04579
 21
24.9182
  0
LINE
  8
0
 10
3.04579
 20
24.9182
 11
2.98331
 21
24.8501
  0
LINE
  8
0
 10
2.98331
 20
24.8501
 11
2.92201
 21
24.7808
  0
LINE
  8
0
 10
2.92201
 20
24.7808
 11
2.86194
 21
24.7104
  0
LINE
  8
0
 10
2.86194
 20
24.7104
 11
2.8031
 21
24.6391
  0
LINE
  8
0
 10
2.8031
 20
24.6391
 11
2.74551
 21
24.5667
  0
LINE
  8
0
 10
2.74551
 20
24.5667
 11
2.68921
 21
24.4933
  0
LINE
  8
0
 10
2.68921
 20
24.4933
 11
2.63419
 21
24.4189
  0
LINE
  8
0
 10
2.63419
 20
24.4189
 11
2.58046
 21
24.3436
  0
LINE
  8
0
 10
2.58046
 20
24.3436
 11
2.52808
 21
24.2674
  0
LINE
  8
0
 10
2.52808
 20
24.2674
 11
2.47702
 21
24.1902
  0
LINE
  8
0
 10
2.47702
 20
24.1902
 11
2.42732
 21
24.1122
  0
LINE
  8
0
 10
2.42732
 20
24.1122
 11
2.37898
 21
24.0334
  0
LINE
  8
0
 10
2.37898
 20
24.0334
 11
2.33203
 21
23.9537
  0
LINE
  8
0
 10
2.33203
 20
23.9537
 11
2.28648
 21
23.8732
  0
LINE
  8
0
 10
2.28648
 20
23.8732
 11
2.24236
 21
23.7919
  0
LINE
  8
0
 10
2.24236
 20
23.7919
 11
2.19965
 21
23.7098
  0
LINE
  8
0
 10
2.19965
 20
23.7098
 11
2.15837
 21
23.627
  0
LINE
  8
0
 10
2.15837
 20
23.627
 11
2.11855
 21
23.5435
  0
LINE
  8
0
 10
2.11855
 20
23.5435
 11
2.08018
 21
23.4594
  0
LINE
  8
0
 10
2.08018
 20
23.4594
 11
2.0433
 21
23.3745
  0
LINE
  8
0
 10
2.0433
 20
23.3745
 11
2.0079
 21
23.2891
  0
LINE
  8
0
 10
2.0079
 20
23.2891
 11
1.974
 21
23.203
  0
LINE
  8
0
 10
1.974
 20
23.203
 11
1.9416
 21
23.1164
  0
LINE
  8
0
 10
1.9416
 20
23.1164
 11
1.91072
 21
23.0292
  0
LINE
  8
0
 10
1.91072
 20
23.0292
 11
1.88138
 21
22.9415
  0
LINE
  8
0
 10
1.88138
 20
22.9415
 11
1.85356
 21
22.8532
  0
LINE
  8
0
 10
1.85356
 20
22.8532
 11
1.82729
 21
22.7645
  0
LINE
  8
0
 10
1.82729
 20
22.7645
 11
1.80257
 21
22.6754
  0
LINE
  8
0
 10
1.80257
 20
22.6754
 11
1.7794
 21
22.5858
  0
LINE
  8
0
 10
1.7794
 20
22.5858
 11
1.75781
 21
22.4959
  0
LINE
  8
0
 10
1.75781
 20
22.4959
 11
1.74953
 21
22.4585
  0
LINE
  8
0
 10
1.74953
 20
22.4585
 11
1.72687
 21
22.4659
  0
LINE
  8
0
 10
1.72687
 20
22.4659
 11
1.71237
 21
22.2773
  0
LINE
  8
0
 10
1.71237
 20
22.2773
 11
1.7025
 21
22.224
  0
LINE
  8
0
 10
1.7025
 20
22.224
 11
1.68723
 21
22.1328
  0
LINE
  8
0
 10
1.68723
 20
22.1328
 11
1.67355
 21
22.0413
  0
LINE
  8
0
 10
1.67355
 20
22.0413
 11
1.66148
 21
21.9496
  0
LINE
  8
0
 10
1.66148
 20
21.9496
 11
1.651
 21
21.8577
  0
LINE
  8
0
 10
1.651
 20
21.8577
 11
1.64214
 21
21.7656
  0
LINE
  8
0
 10
1.64214
 20
21.7656
 11
1.63489
 21
21.6734
  0
LINE
  8
0
 10
1.63489
 20
21.6734
 11
1.62924
 21
21.581
  0
LINE
  8
0
 10
1.62924
 20
21.581
 11
1.6252
 21
21.4886
  0
LINE
  8
0
 10
1.6252
 20
21.4886
 11
1.62279
 21
21.3961
  0
LINE
  8
0
 10
1.62279
 20
21.3961
 11
1.62198
 21
21.3037
  0
LINE
  8
0
 10
1.62198
 20
21.3037
 11
1.62279
 21
21.2112
  0
LINE
  8
0
 10
1.62279
 20
21.2112
 11
1.62473
 21
21.137
  0
LINE
  8
0
 10
1.62473
 20
21.137
 11
0.549866
 21
7.15363
  0
LINE
  8
0
 10
0.549866
 20
7.15363
 11
0.500488
 21
7.15752
  0
LINE
  8
0
 10
0.500488
 20
7.15752
 11
0.375504
 21
7.16516
  0
LINE
  8
0
 10
0.375504
 20
7.16516
 11
0.250397
 21
7.17062
  0
LINE
  8
0
 10
0.250397
 20
7.17062
 11
0.125214
 21
7.1739
  0
LINE
  8
0
 10
0.125214
 20
7.1739
 11
0
 21
7.17499
  0
LINE
  8
0
 10
0
 20
7.17499
 11
-0.125214
 21
7.1739
  0
LINE
  8
0
 10
-0.125214
 20
7.1739
 11
-0.250397
 21
7.17062
  0
LINE
  8
0
 10
-0.250397
 20
7.17062
 11
-0.375504
 21
7.16516
  0
LINE
  8
0
 10
-0.375504
 20
7.16516
 11
-0.500488
 21
7.15752
  0
LINE
  8
0
 10
-0.500488
 20
7.15752
 11
-0.549866
 21
7.15363
  0
LINE
  8
0
 10
-0.549866
 20
7.15363
 11
-1.62473
 21
21.137
  0
LINE
  8
0
 10
-1.62473
 20
21.137
 11
-1.62279
 21
21.2112
  0
LINE
  8
0
 10
-1.62279
 20
21.2112
 11
-1.62198
 21
21.3037
  0
LINE
  8
0
 10
-1.62198
 20
21.3037
 11
-1.62279
 21
21.3961
  0
LINE
  8
0
 10
-1.62279
 20
21.3961
 11
-1.6252
 21
21.4886
  0
LINE
  8
0
 10
-1.6252
 20
21.4886
 11
-1.62924
 21
21.581
  0
LINE
  8
0
 10
-1.62924
 20
21.581
 11
-1.63489
 21
21.6734
  0
LINE
  8
0
 10
-1.63489
 20
21.6734
 11
-1.64214
 21
21.7656
  0
LINE
  8
0
 10
-1.64214
 20
21.7656
 11
-1.651
 21
21.8577
  0
LINE
  8
0
 10
-1.651
 20
21.8577
 11
-1.66148
 21
21.9496
  0
LINE
  8
0
 10
-1.66148
 20
21.9496
 11
-1.67355
 21
22.0413
  0
LINE
  8
0
 10
-1.67355
 20
22.0413
 11
-1.68723
 21
22.1328
  0
LINE
  8
0
 10
-1.68723
 20
22.1328
 11
-1.7025
 21
22.224
  0
LINE
  8
0
 10
-1.7025
 20
22.224
 11
-1.71237
 21
22.2773
  0
LINE
  8
0
 10
-1.71237
 20
22.2773
 11
-1.72687
 21
22.4659
  0
LINE
  8
0
 10
-1.72687
 20
22.4659
 11
-1.74953
 21
22.4585
  0
LINE
  8
0
 10
-1.74953
 20
22.4585
 11
-1.75781
 21
22.4959
  0
LINE
  8
0
 10
-1.75781
 20
22.4959
 11
-1.7794
 21
22.5858
  0
LINE
  8
0
 10
-1.7794
 20
22.5858
 11
-1.80257
 21
22.6754
  0
LINE
  8
0
 10
-1.80257
 20
22.6754
 11
-1.82729
 21
22.7645
  0
LINE
  8
0
 10
-1.82729
 20
22.7645
 11
-1.85356
 21
22.8532
  0
LINE
  8
0
 10
-1.85356
 20
22.8532
 11
-1.88138
 21
22.9415
  0
LINE
  8
0
 10
-1.88138
 20
22.9415
 11
-1.91072
 21
23.0292
  0
LINE
  8
0
 10
-1.91072
 20
23.0292
 11
-1.9416
 21
23.1164
  0
LINE
  8
0
 10
-1.9416
 20
23.1164
 11
-1.974
 21
23.203
  0
LINE
  8
0
 10
-1.974
 20
23.203
 11
-2.0079
 21
23.2891
  0
LINE
  8
0
 10
-2.0079
 20
23.2891
 11
-2.0433
 21
23.3745
  0
LINE
  8
0
 10
-2.0433
 20
23.3745
 11
-2.08018
 21
23.4594
  0
LINE
  8
0
 10
-2.08018
 20
23.4594
 11
-2.11855
 21
23.5435
  0
LINE
  8
0
 10
-2.11855
 20
23.5435
 11
-2.15837
 21
23.627
  0
LINE
  8
0
 10
-2.15837
 20
23.627
 11
-2.19965
 21
23.7098
  0
LINE
  8
0
 10
-2.19965
 20
23.7098
 11
-2.24236
 21
23.7919
  0
LINE
  8
0
 10
-2.24236
 20
23.7919
 11
-2.28648
 21
23.8732
  0
LINE
  8
0
 10
-2.28648
 20
23.8732
 11
-2.33203
 21
23.9537
  0
LINE
  8
0
 10
-2.33203
 20
23.9537
 11
-2.37898
 21
24.0334
  0
LINE
  8
0
 10
-2.37898
 20
24.0334
 11
-2.42732
 21
24.1122
  0
LINE
  8
0
 10
-2.42732
 20
24.1122
 11
-2.47702
 21
24.1902
  0
LINE
  8
0
 10
-2.47702
 20
24.1902
 11
-2.52808
 21
24.2674
  0
LINE
  8
0
 10
-2.52808
 20
24.2674
 11
-2.58046
 21
24.3436
  0
LINE
  8
0
 10
-2.58046
 20
24.3436
 11
-2.63419
 21
24.4189
  0
LINE
  8
0
 10
-2.63419
 20
24.4189
 11
-2.68921
 21
24.4933
  0
LINE
  8
0
 10
-2.68921
 20
24.4933
 11
-2.74551
 21
24.5667
  0
LINE
  8
0
 10
-2.74551
 20
24.5667
 11
-2.8031
 21
24.6391
  0
LINE
  8
0
 10
-2.8031
 20
24.6391
 11
-2.86194
 21
24.7104
  0
LINE
  8
0
 10
-2.86194
 20
24.7104
 11
-2.92201
 21
24.7808
  0
LINE
  8
0
 10
-2.92201
 20
24.7808
 11
-2.98331
 21
24.8501
  0
LINE
  8
0
 10
-2.98331
 20
24.8501
 11
-3.04579
 21
24.9182
  0
LINE
  8
0
 10
-3.04579
 20
24.9182
 11
-3.10947
 21
24.9854
  0
LINE
  8
0
 10
-3.10947
 20
24.9854
 11
-3.1743
 21
25.0513
  0
LINE
  8
0
 10
-3.1743
 20
25.0513
 11
-3.24028
 21
25.1162
  0
LINE
  8
0
 10
-3.24028
 20
25.1162
 11
-3.30739
 21
25.1798
  0
LINE
  8
0
 10
-3.30739
 20
25.1798
 11
-3.37558
 21
25.2423
  0
LINE
  8
0
 10
-3.37558
 20
25.2423
 11
-3.44485
 21
25.3036
  0
LINE
  8
0
 10
-3.44485
 20
25.3036
 11
-3.5152
 21
25.3637
  0
LINE
  8
0
 10
-3.5152
 20
25.3637
 11
-3.58658
 21
25.4225
  0
LINE
  8
0
 10
-3.58658
 20
25.4225
 11
-3.65897
 21
25.4801
  0
LINE
  8
0
 10
-3.65897
 20
25.4801
 11
-3.73236
 21
25.5364
  0
LINE
  8
0
 10
-3.73236
 20
25.5364
 11
-3.80672
 21
25.5914
  0
LINE
  8
0
 10
-3.80672
 20
25.5914
 11
-3.88202
 21
25.6452
  0
LINE
  8
0
 10
-3.88202
 20
25.6452
 11
-3.95825
 21
25.6976
  0
LINE
  8
0
 10
-3.95825
 20
25.6976
 11
-4.03539
 21
25.7486
  0
LINE
  8
0
 10
-4.03539
 20
25.7486
 11
-4.1134
 21
25.7983
  0
LINE
  8
0
 10
-4.1134
 20
25.7983
 11
-4.19228
 21
25.8466
  0
LINE
  8
0
 10
-4.19228
 20
25.8466
 11
-4.27197
 21
25.8936
  0
LINE
  8
0
 10
-4.27197
 20
25.8936
 11
-4.35248
 21
25.9391
  0
LINE
  8
0
 10
-4.35248
 20
25.9391
 11
-4.43378
 21
25.9833
  0
LINE
  8
0
 10
-4.43378
 20
25.9833
 11
-4.51582
 21
26.026
  0
LINE
  8
0
 10
-4.51582
 20
26.026
 11
-4.5986
 21
26.0673
  0
LINE
  8
0
 10
-4.5986
 20
26.0673
 11
-4.6821
 21
26.1071
  0
LINE
  8
0
 10
-4.6821
 20
26.1071
 11
-4.76627
 21
26.1454
  0
LINE
  8
0
 10
-4.76627
 20
26.1454
 11
-4.8511
 21
26.1823
  0
LINE
  8
0
 10
-4.8511
 20
26.1823
 11
-4.93655
 21
26.2177
  0
LINE
  8
0
 10
-4.93655
 20
26.2177
 11
-5.02263
 21
26.2516
  0
LINE
  8
0
 10
-5.02263
 20
26.2516
 11
-5.10927
 21
26.284
  0
LINE
  8
0
 10
-5.10927
 20
26.284
 11
-5.19646
 21
26.3149
  0
LINE
  8
0
 10
-5.19646
 20
26.3149
 11
-5.28418
 21
26.3443
  0
LINE
  8
0
 10
-5.28418
 20
26.3443
 11
-5.37241
 21
26.3721
  0
LINE
  8
0
 10
-5.37241
 20
26.3721
 11
-5.46109
 21
26.3983
  0
LINE
  8
0
 10
-5.46109
 20
26.3983
 11
-5.55023
 21
26.4231
  0
LINE
  8
0
 10
-5.55023
 20
26.4231
 11
-5.63979
 21
26.4462
  0
LINE
  8
0
 10
-5.63979
 20
26.4462
 11
-5.72974
 21
26.4678
  0
LINE
  8
0
 10
-5.72974
 20
26.4678
 11
-5.82004
 21
26.4878
  0
LINE
  8
0
 10
-5.82004
 20
26.4878
 11
-5.91069
 21
26.5063
  0
LINE
  8
0
 10
-5.91069
 20
26.5063
 11
-6.00163
 21
26.5231
  0
LINE
  8
0
 10
-6.00163
 20
26.5231
 11
-6.09286
 21
26.5384
  0
LINE
  8
0
 10
-6.09286
 20
26.5384
 11
-6.18436
 21
26.5521
  0
LINE
  8
0
 10
-6.18436
 20
26.5521
 11
-6.27606
 21
26.5641
  0
LINE
  8
0
 10
-6.27606
 20
26.5641
 11
-6.36797
 21
26.5746
  0
LINE
  8
0
 10
-6.36797
 20
26.5746
 11
-6.46005
 21
26.5835
  0
LINE
  8
0
 10
-6.46005
 20
26.5835
 11
-6.55226
 21
26.5907
  0
LINE
  8
0
 10
-6.55226
 20
26.5907
 11
-6.64459
 21
26.5964
  0
LINE
  8
0
 10
-6.64459
 20
26.5964
 11
-6.737
 21
26.6004
  0
LINE
  8
0
 10
-6.737
 20
26.6004
 11
-6.82947
 21
26.6028
  0
LINE
  8
0
 10
-6.82947
 20
26.6028
 11
-6.92197
 21
26.6037
  0
LINE
  8
0
 10
-6.92197
 20
26.6037
 11
-7.01447
 21
26.6028
  0
LINE
  8
0
 10
-7.01447
 20
26.6028
 11
-7.10693
 21
26.6004
  0
LINE
  8
0
 10
-7.10693
 20
26.6004
 11
-7.19936
 21
26.5964
  0
LINE
  8
0
 10
-7.19936
 20
26.5964
 11
-7.29169
 21
26.5907
  0
LINE
  8
0
 10
-7.29169
 20
26.5907
 11
-7.3839
 21
26.5835
  0
LINE
  8
0
 10
-7.3839
 20
26.5835
 11
-7.47597
 21
26.5746
  0
LINE
  8
0
 10
-7.47597
 20
26.5746
 11
-7.56789
 21
26.5641
  0
LINE
  8
0
 10
-7.56789
 20
26.5641
 11
-7.65959
 21
26.5521
  0
LINE
  8
0
 10
-7.65959
 20
26.5521
 11
-7.75107
 21
26.5384
  0
LINE
  8
0
 10
-7.75107
 20
26.5384
 11
-7.84232
 21
26.5231
  0
LINE
  8
0
 10
-7.84232
 20
26.5231
 11
-7.93326
 21
26.5063
  0
LINE
  8
0
 10
-7.93326
 20
26.5063
 11
-8.02391
 21
26.4878
  0
LINE
  8
0
 10
-8.02391
 20
26.4878
 11
-8.11421
 21
26.4678
  0
LINE
  8
0
 10
-8.11421
 20
26.4678
 11
-8.20416
 21
26.4462
  0
LINE
  8
0
 10
-8.20416
 20
26.4462
 11
-8.29372
 21
26.4231
  0
LINE
  8
0
 10
-8.29372
 20
26.4231
 11
-8.38286
 21
26.3983
  0
LINE
  8
0
 10
-8.38286
 20
26.3983
 11
-8.47154
 21
26.3721
  0
LINE
  8
0
 10
-8.47154
 20
26.3721
 11
-8.55977
 21
26.3443
  0
LINE
  8
0
 10
-8.55977
 20
26.3443
 11
-8.64749
 21
26.3149
  0
LINE
  8
0
 10
-8.64749
 20
26.3149
 11
-8.73468
 21
26.284
  0
LINE
  8
0
 10
-8.73468
 20
26.284
 11
-8.82132
 21
26.2516
  0
LINE
  8
0
 10
-8.82132
 20
26.2516
 11
-8.90739
 21
26.2177
  0
LINE
  8
0
 10
-8.90739
 20
26.2177
 11
-8.99284
 21
26.1823
  0
LINE
  8
0
 10
-8.99284
 20
26.1823
 11
-9.07768
 21
26.1454
  0
LINE
  8
0
 10
-9.07768
 20
26.1454
 11
-9.16185
 21
26.1071
  0
LINE
  8
0
 10
-9.16185
 20
26.1071
 11
-9.24535
 21
26.0673
  0
LINE
  8
0
 10
-9.24535
 20
26.0673
 11
-9.32812
 21
26.026
  0
LINE
  8
0
 10
-9.32812
 20
26.026
 11
-9.41017
 21
25.9833
  0
LINE
  8
0
 10
-9.41017
 20
25.9833
 11
-9.49147
 21
25.9391
  0
LINE
  8
0
 10
-9.49147
 20
25.9391
 11
-9.57198
 21
25.8936
  0
LINE
  8
0
 10
-9.57198
 20
25.8936
 11
-9.65167
 21
25.8466
  0
LINE
  8
0
 10
-9.65167
 20
25.8466
 11
-9.73055
 21
25.7983
  0
LINE
  8
0
 10
-9.73055
 20
25.7983
 11
-9.80856
 21
25.7486
  0
LINE
  8
0
 10
-9.80856
 20
25.7486
 11
-9.8857
 21
25.6976
  0
LINE
  8
0
 10
-9.8857
 20
25.6976
 11
-9.96193
 21
25.6452
  0
LINE
  8
0
 10
-9.96193
 20
25.6452
 11
-10.0372
 21
25.5914
  0
LINE
  8
0
 10
-10.0372
 20
25.5914
 11
-10.1116
 21
25.5364
  0
LINE
  8
0
 10
-10.1116
 20
25.5364
 11
-10.185
 21
25.4801
  0
LINE
  8
0
 10
-10.185
 20
25.4801
 11
-10.2574
 21
25.4225
  0
LINE
  8
0
 10
-10.2574
 20
25.4225
 11
-10.3288
 21
25.3637
  0
LINE
  8
0
 10
-10.3288
 20
25.3637
 11
-10.3991
 21
25.3036
  0
LINE
  8
0
 10
-10.3991
 20
25.3036
 11
-10.4684
 21
25.2423
  0
LINE
  8
0
 10
-10.4684
 20
25.2423
 11
-10.5366
 21
25.1798
  0
LINE
  8
0
 10
-10.5366
 20
25.1798
 11
-10.6037
 21
25.1162
  0
LINE
  8
0
 10
-10.6037
 20
25.1162
 11
-10.6696
 21
25.0513
  0
LINE
  8
0
 10
-10.6696
 20
25.0513
 11
-10.7345
 21
24.9854
  0
LINE
  8
0
 10
-10.7345
 20
24.9854
 11
-10.7981
 21
24.9182
  0
LINE
  8
0
 10
-10.7981
 20
24.9182
 11
-10.8606
 21
24.8501
  0
LINE
  8
0
 10
-10.8606
 20
24.8501
 11
-10.9219
 21
24.7808
  0
LINE
  8
0
 10
-10.9219
 20
24.7808
 11
-10.982
 21
24.7104
  0
LINE
  8
0
 10
-10.982
 20
24.7104
 11
-11.0408
 21
24.6391
  0
LINE
  8
0
 10
-11.0408
 20
24.6391
 11
-11.0984
 21
24.5667
  0
LINE
  8
0
 10
-11.0984
 20
24.5667
 11
-11.1547
 21
24.4933
  0
LINE
  8
0
 10
-11.1547
 20
24.4933
 11
-11.2098
 21
24.4189
  0
LINE
  8
0
 10
-11.2098
 20
24.4189
 11
-11.2635
 21
24.3436
  0
LINE
  8
0
 10
-11.2635
 20
24.3436
 11
-11.3159
 21
24.2674
  0
LINE
  8
0
 10
-11.3159
 20
24.2674
 11
-11.3669
 21
24.1902
  0
LINE
  8
0
 10
-11.3669
 20
24.1902
 11
-11.4166
 21
24.1122
  0
LINE
  8
0
 10
-11.4166
 20
24.1122
 11
-11.465
 21
24.0334
  0
LINE
  8
0
 10
-11.465
 20
24.0334
 11
-11.5119
 21
23.9537
  0
LINE
  8
0
 10
-11.5119
 20
23.9537
 11
-11.5575
 21
23.8732
  0
LINE
  8
0
 10
-11.5575
 20
23.8732
 11
-11.6016
 21
23.7919
  0
LINE
  8
0
 10
-11.6016
 20
23.7919
 11
-11.6443
 21
23.7098
  0
LINE
  8
0
 10
-11.6443
 20
23.7098
 11
-11.6856
 21
23.627
  0
LINE
  8
0
 10
-11.6856
 20
23.627
 11
-11.7254
 21
23.5435
  0
LINE
  8
0
 10
-11.7254
 20
23.5435
 11
-11.7638
 21
23.4594
  0
LINE
  8
0
 10
-11.7638
 20
23.4594
 11
-11.8006
 21
23.3745
  0
LINE
  8
0
 10
-11.8006
 20
23.3745
 11
-11.836
 21
23.2891
  0
LINE
  8
0
 10
-11.836
 20
23.2891
 11
-11.8699
 21
23.203
  0
LINE
  8
0
 10
-11.8699
 20
23.203
 11
-11.9023
 21
23.1164
  0
LINE
  8
0
 10
-11.9023
 20
23.1164
 11
-11.9332
 21
23.0292
  0
LINE
  8
0
 10
-11.9332
 20
23.0292
 11
-11.9626
 21
22.9415
  0
LINE
  8
0
 10
-11.9626
 20
22.9415
 11
-11.9904
 21
22.8532
  0
LINE
  8
0
 10
-11.9904
 20
22.8532
 11
-12.0167
 21
22.7645
  0
LINE
  8
0
 10
-12.0167
 20
22.7645
 11
-12.0414
 21
22.6754
  0
LINE
  8
0
 10
-12.0414
 20
22.6754
 11
-12.0645
 21
22.5858
  0
LINE
  8
0
 10
-12.0645
 20
22.5858
 11
-12.0861
 21
22.4959
  0
LINE
  8
0
 10
-12.0861
 20
22.4959
 11
-12.1062
 21
22.4056
  0
LINE
  8
0
 10
-12.1062
 20
22.4056
 11
-12.1246
 21
22.3149
  0
LINE
  8
0
 10
-12.1246
 20
22.3149
 11
-12.1414
 21
22.224
  0
LINE
  8
0
 10
-12.1414
 20
22.224
 11
-12.1567
 21
22.1328
  0
LINE
  8
0
 10
-12.1567
 20
22.1328
 11
-12.1704
 21
22.0413
  0
LINE
  8
0
 10
-12.1704
 20
22.0413
 11
-12.1825
 21
21.9496
  0
LINE
  8
0
 10
-12.1825
 20
21.9496
 11
-12.1929
 21
21.8577
  0
LINE
  8
0
 10
-12.1929
 20
21.8577
 11
-12.2018
 21
21.7656
  0
LINE
  8
0
 10
-12.2018
 20
21.7656
 11
-12.2091
 21
21.6734
  0
LINE
  8
0
 10
-12.2091
 20
21.6734
 11
-12.2147
 21
21.581
  0
LINE
  8
0
 10
-12.2147
 20
21.581
 11
-12.2188
 21
21.4886
  0
LINE
  8
0
 10
-12.2188
 20
21.4886
 11
-12.2212
 21
21.3961
  0
LINE
  8
0
 10
-12.2212
 20
21.3961
 11
-12.222
 21
21.3037
  0
LINE
  8
0
 10
-12.222
 20
21.3037
 11
-12.2212
 21
21.2112
  0
LINE
  8
0
 10
-12.2212
 20
21.2112
 11
-12.2188
 21
21.1187
  0
LINE
  8
0
 10
-12.2188
 20
21.1187
 11
-12.2147
 21
21.0263
  0
LINE
  8
0
 10
-12.2147
 20
21.0263
 11
-12.2091
 21
20.9339
  0
LINE
  8
0
 10
-12.2091
 20
20.9339
 11
-12.2018
 21
20.8417
  0
LINE
  8
0
 10
-12.2018
 20
20.8417
 11
-12.1929
 21
20.7497
  0
LINE
  8
0
 10
-12.1929
 20
20.7497
 11
-12.1825
 21
20.6577
  0
LINE
  8
0
 10
-12.1825
 20
20.6577
 11
-12.1704
 21
20.566
  0
LINE
  8
0
 10
-12.1704
 20
20.566
 11
-12.1567
 21
20.4745
  0
LINE
  8
0
 10
-12.1567
 20
20.4745
 11
-12.1414
 21
20.3833
  0
LINE
  8
0
 10
-12.1414
 20
20.3833
 11
-12.1246
 21
20.2924
  0
LINE
  8
0
 10
-12.1246
 20
20.2924
 11
-12.1062
 21
20.2017
  0
LINE
  8
0
 10
-12.1062
 20
20.2017
 11
-12.0861
 21
20.1114
  0
LINE
  8
0
 10
-12.0861
 20
20.1114
 11
-12.0645
 21
20.0215
  0
LINE
  8
0
 10
-12.0645
 20
20.0215
 11
-12.0414
 21
19.9319
  0
LINE
  8
0
 10
-12.0414
 20
19.9319
 11
-12.0167
 21
19.8428
  0
LINE
  8
0
 10
-12.0167
 20
19.8428
 11
-11.9904
 21
19.7541
  0
LINE
  8
0
 10
-11.9904
 20
19.7541
 11
-11.9626
 21
19.6659
  0
LINE
  8
0
 10
-11.9626
 20
19.6659
 11
-11.9332
 21
19.5781
  0
LINE
  8
0
 10
-11.9332
 20
19.5781
 11
-11.9023
 21
19.491
  0
LINE
  8
0
 10
-11.9023
 20
19.491
 11
-11.8699
 21
19.4043
  0
LINE
  8
0
 10
-11.8699
 20
19.4043
 11
-11.836
 21
19.3182
  0
LINE
  8
0
 10
-11.836
 20
19.3182
 11
-11.8006
 21
19.2328
  0
LINE
  8
0
 10
-11.8006
 20
19.2328
 11
-11.7854
 21
19.1977
  0
LINE
  8
0
 10
-11.7854
 20
19.1977
 11
-11.808
 21
19.1903
  0
LINE
  8
0
 10
-11.808
 20
19.1903
 11
-11.709
 21
19.0293
  0
LINE
  8
0
 10
-11.709
 20
19.0293
 11
-11.6856
 21
18.9803
  0
LINE
  8
0
 10
-11.6856
 20
18.9803
 11
-11.6443
 21
18.8975
  0
LINE
  8
0
 10
-11.6443
 20
18.8975
 11
-11.6016
 21
18.8155
  0
LINE
  8
0
 10
-11.6016
 20
18.8155
 11
-11.5575
 21
18.7342
  0
LINE
  8
0
 10
-11.5575
 20
18.7342
 11
-11.5119
 21
18.6537
  0
LINE
  8
0
 10
-11.5119
 20
18.6537
 11
-11.465
 21
18.574
  0
LINE
  8
0
 10
-11.465
 20
18.574
 11
-11.4166
 21
18.4951
  0
LINE
  8
0
 10
-11.4166
 20
18.4951
 11
-11.3669
 21
18.4171
  0
LINE
  8
0
 10
-11.3669
 20
18.4171
 11
-11.3159
 21
18.3399
  0
LINE
  8
0
 10
-11.3159
 20
18.3399
 11
-11.2635
 21
18.2637
  0
LINE
  8
0
 10
-11.2635
 20
18.2637
 11
-11.2098
 21
18.1884
  0
LINE
  8
0
 10
-11.2098
 20
18.1884
 11
-11.1547
 21
18.114
  0
LINE
  8
0
 10
-11.1547
 20
18.114
 11
-11.1095
 21
18.0551
  0
LINE
  8
0
 10
-11.1095
 20
18.0551
 11
-3.75993
 21
6.11061
  0
LINE
  8
0
 10
-3.75993
 20
6.11061
 11
-3.80217
 21
6.08473
  0
LINE
  8
0
 10
-3.80217
 20
6.08473
 11
-3.90778
 21
6.01746
  0
LINE
  8
0
 10
-3.90778
 20
6.01746
 11
-4.01221
 21
5.94833
  0
LINE
  8
0
 10
-4.01221
 20
5.94833
 11
-4.1154
 21
5.87741
  0
LINE
  8
0
 10
-4.1154
 20
5.87741
 11
-4.21735
 21
5.80469
  0
LINE
  8
0
 10
-4.21735
 20
5.80469
 11
-4.31801
 21
5.73021
  0
LINE
  8
0
 10
-4.31801
 20
5.73021
 11
-4.41736
 21
5.65398
  0
LINE
  8
0
 10
-4.41736
 20
5.65398
 11
-4.51537
 21
5.57602
  0
LINE
  8
0
 10
-4.51537
 20
5.57602
 11
-4.612
 21
5.49637
  0
LINE
  8
0
 10
-4.612
 20
5.49637
 11
-4.64966
 21
5.4642
  0
LINE
  8
0
 10
-4.64966
 20
5.4642
 11
-13.7384
 21
16.1451
  0
LINE
  8
0
 10
-13.7384
 20
16.1451
 11
-13.7805
 21
16.2063
  0
LINE
  8
0
 10
-13.7805
 20
16.2063
 11
-13.8342
 21
16.2816
  0
LINE
  8
0
 10
-13.8342
 20
16.2816
 11
-13.8892
 21
16.356
  0
LINE
  8
0
 10
-13.8892
 20
16.356
 11
-13.9455
 21
16.4294
  0
LINE
  8
0
 10
-13.9455
 20
16.4294
 11
-14.0031
 21
16.5018
  0
LINE
  8
0
 10
-14.0031
 20
16.5018
 11
-14.0619
 21
16.5732
  0
LINE
  8
0
 10
-14.0619
 20
16.5732
 11
-14.122
 21
16.6435
  0
LINE
  8
0
 10
-14.122
 20
16.6435
 11
-14.1833
 21
16.7128
  0
LINE
  8
0
 10
-14.1833
 20
16.7128
 11
-14.2458
 21
16.781
  0
LINE
  8
0
 10
-14.2458
 20
16.781
 11
-14.3095
 21
16.8481
  0
LINE
  8
0
 10
-14.3095
 20
16.8481
 11
-14.3743
 21
16.914
  0
LINE
  8
0
 10
-14.3743
 20
16.914
 11
-14.4403
 21
16.9789
  0
LINE
  8
0
 10
-14.4403
 20
16.9789
 11
-14.4796
 21
17.0162
  0
LINE
  8
0
 10
-14.4796
 20
17.0162
 11
-14.6022
 21
17.1603
  0
LINE
  8
0
 10
-14.6022
 20
17.1603
 11
-14.6162
 21
17.141
  0
LINE
  8
0
 10
-14.6162
 20
17.141
 11
-14.6449
 21
17.1663
  0
LINE
  8
0
 10
-14.6449
 20
17.1663
 11
-14.7152
 21
17.2264
  0
LINE
  8
0
 10
-14.7152
 20
17.2264
 11
-14.7866
 21
17.2853
  0
LINE
  8
0
 10
-14.7866
 20
17.2853
 11
-14.859
 21
17.3428
  0
LINE
  8
0
 10
-14.859
 20
17.3428
 11
-14.9324
 21
17.3992
  0
LINE
  8
0
 10
-14.9324
 20
17.3992
 11
-15.0067
 21
17.4542
  0
LINE
  8
0
 10
-15.0067
 20
17.4542
 11
-15.082
 21
17.5079
  0
LINE
  8
0
 10
-15.082
 20
17.5079
 11
-15.1582
 21
17.5603
  0
LINE
  8
0
 10
-15.1582
 20
17.5603
 11
-15.2354
 21
17.6113
  0
LINE
  8
0
 10
-15.2354
 20
17.6113
 11
-15.3134
 21
17.661
  0
LINE
  8
0
 10
-15.3134
 20
17.661
 11
-15.3923
 21
17.7094
  0
LINE
  8
0
 10
-15.3923
 20
17.7094
 11
-15.472
 21
17.7563
  0
LINE
  8
0
 10
-15.472
 20
17.7563
 11
-15.5525
 21
17.8019
  0
LINE
  8
0
 10
-15.5525
 20
17.8019
 11
-15.6338
 21
17.846
  0
LINE
  8
0
 10
-15.6338
 20
17.846
 11
-15.7158
 21
17.8887
  0
LINE
  8
0
 10
-15.7158
 20
17.8887
 11
-15.7986
 21
17.93
  0
LINE
  8
0
 10
-15.7986
 20
17.93
 11
-15.8821
 21
17.9698
  0
LINE
  8
0
 10
-15.8821
 20
17.9698
 11
-15.9663
 21
18.0082
  0
LINE
  8
0
 10
-15.9663
 20
18.0082
 11
-16.0511
 21
18.0451
  0
LINE
  8
0
 10
-16.0511
 20
18.0451
 11
-16.1366
 21
18.0805
  0
LINE
  8
0
 10
-16.1366
 20
18.0805
 11
-16.2226
 21
18.1144
  0
LINE
  8
0
 10
-16.2226
 20
18.1144
 11
-16.3093
 21
18.1468
  0
LINE
  8
0
 10
-16.3093
 20
18.1468
 11
-16.3965
 21
18.1776
  0
LINE
  8
0
 10
-16.3965
 20
18.1776
 11
-16.4842
 21
18.207
  0
LINE
  8
0
 10
-16.4842
 20
18.207
 11
-16.5724
 21
18.2348
  0
LINE
  8
0
 10
-16.5724
 20
18.2348
 11
-16.6611
 21
18.2611
  0
LINE
  8
0
 10
-16.6611
 20
18.2611
 11
-16.7502
 21
18.2858
  0
LINE
  8
0
 10
-16.7502
 20
18.2858
 11
-16.8398
 21
18.3089
  0
LINE
  8
0
 10
-16.8398
 20
18.3089
 11
-16.9297
 21
18.3305
  0
LINE
  8
0
 10
-16.9297
 20
18.3305
 11
-17.02
 21
18.3506
  0
LINE
  8
0
 10
-17.02
 20
18.3506
 11
-17.1107
 21
18.369
  0
LINE
  8
0
 10
-17.1107
 20
18.369
 11
-17.2016
 21
18.3859
  0
LINE
  8
0
 10
-17.2016
 20
18.3859
 11
-17.2929
 21
18.4011
  0
LINE
  8
0
 10
-17.2929
 20
18.4011
 11
-17.3844
 21
18.4148
  0
LINE
  8
0
 10
-17.3844
 20
18.4148
 11
-17.4761
 21
18.4269
  0
LINE
  8
0
 10
-17.4761
 20
18.4269
 11
-17.568
 21
18.4373
  0
LINE
  8
0
 10
-17.568
 20
18.4373
 11
-17.66
 21
18.4462
  0
LINE
  8
0
 10
-17.66
 20
18.4462
 11
-17.7523
 21
18.4535
  0
LINE
  8
0
 10
-17.7523
 20
18.4535
 11
-17.8446
 21
18.4591
  0
LINE
  8
0
 10
-17.8446
 20
18.4591
 11
-17.937
 21
18.4632
  0
LINE
  8
0
 10
-17.937
 20
18.4632
 11
-18.0295
 21
18.4656
  0
LINE
  8
0
 10
-18.0295
 20
18.4656
 11
-18.122
 21
18.4664
  0
LINE
  8
0
 10
-18.122
 20
18.4664
 11
-18.2145
 21
18.4656
  0
LINE
  8
0
 10
-18.2145
 20
18.4656
 11
-18.3069
 21
18.4632
  0
LINE
  8
0
 10
-18.3069
 20
18.4632
 11
-18.3994
 21
18.4591
  0
LINE
  8
0
 10
-18.3994
 20
18.4591
 11
-18.4917
 21
18.4535
  0
LINE
  8
0
 10
-18.4917
 20
18.4535
 11
-18.5839
 21
18.4462
  0
LINE
  8
0
 10
-18.5839
 20
18.4462
 11
-18.676
 21
18.4373
  0
LINE
  8
0
 10
-18.676
 20
18.4373
 11
-18.7679
 21
18.4269
  0
LINE
  8
0
 10
-18.7679
 20
18.4269
 11
-18.8596
 21
18.4148
  0
LINE
  8
0
 10
-18.8596
 20
18.4148
 11
-18.9511
 21
18.4011
  0
LINE
  8
0
 10
-18.9511
 20
18.4011
 11
-19.0423
 21
18.3859
  0
LINE
  8
0
 10
-19.0423
 20
18.3859
 11
-19.1333
 21
18.369
  0
LINE
  8
0
 10
-19.1333
 20
18.369
 11
-19.2239
 21
18.3506
  0
LINE
  8
0
 10
-19.2239
 20
18.3506
 11
-19.3142
 21
18.3305
  0
LINE
  8
0
 10
-19.3142
 20
18.3305
 11
-19.4042
 21
18.3089
  0
LINE
  8
0
 10
-19.4042
 20
18.3089
 11
-19.4937
 21
18.2858
  0
LINE
  8
0
 10
-19.4937
 20
18.2858
 11
-19.5829
 21
18.2611
  0
LINE
  8
0
 10
-19.5829
 20
18.2611
 11
-19.6715
 21
18.2348
  0
LINE
  8
0
 10
-19.6715
 20
18.2348
 11
-19.7598
 21
18.207
  0
LINE
  8
0
 10
-19.7598
 20
18.207
 11
-19.8475
 21
18.1776
  0
LINE
  8
0
 10
-19.8475
 20
18.1776
 11
-19.9347
 21
18.1468
  0
LINE
  8
0
 10
-19.9347
 20
18.1468
 11
-20.0213
 21
18.1144
  0
LINE
  8
0
 10
-20.0213
 20
18.1144
 11
-20.1074
 21
18.0805
  0
LINE
  8
0
 10
-20.1074
 20
18.0805
 11
-20.1928
 21
18.0451
  0
LINE
  8
0
 10
-20.1928
 20
18.0451
 11
-20.2777
 21
18.0082
  0
LINE
  8
0
 10
-20.2777
 20
18.0082
 11
-20.3618
 21
17.9698
  0
LINE
  8
0
 10
-20.3618
 20
17.9698
 11
-20.4453
 21
17.93
  0
LINE
  8
0
 10
-20.4453
 20
17.93
 11
-20.5281
 21
17.8887
  0
LINE
  8
0
 10
-20.5281
 20
17.8887
 11
-20.6102
 21
17.846
  0
LINE
  8
0
 10
-20.6102
 20
17.846
 11
-20.6915
 21
17.8019
  0
LINE
  8
0
 10
-20.6915
 20
17.8019
 11
-20.772
 21
17.7563
  0
LINE
  8
0
 10
-20.772
 20
17.7563
 11
-20.8517
 21
17.7094
  0
LINE
  8
0
 10
-20.8517
 20
17.7094
 11
-20.9305
 21
17.661
  0
LINE
  8
0
 10
-20.9305
 20
17.661
 11
-21.0086
 21
17.6113
  0
LINE
  8
0
 10
-21.0086
 20
17.6113
 11
-21.0857
 21
17.5603
  0
LINE
  8
0
 10
-21.0857
 20
17.5603
 11
-21.1619
 21
17.5079
  0
LINE
  8
0
 10
-21.1619
 20
17.5079
 11
-21.2372
 21
17.4542
  0
LINE
  8
0
 10
-21.2372
 20
17.4542
 11
-21.3116
 21
17.3992
  0
LINE
  8
0
 10
-21.3116
 20
17.3992
 11
-21.385
 21
17.3428
  0
LINE
  8
0
 10
-21.385
 20
17.3428
 11
-21.4574
 21
17.2853
  0
LINE
  8
0
 10
-21.4574
 20
17.2853
 11
-21.5287
 21
17.2264
  0
LINE
  8
0
 10
-21.5287
 20
17.2264
 11
-21.5991
 21
17.1663
  0
LINE
  8
0
 10
-21.5991
 20
17.1663
 11
-21.6684
 21
17.1051
  0
LINE
  8
0
 10
-21.6684
 20
17.1051
 11
-21.7366
 21
17.0426
  0
LINE
  8
0
 10
-21.7366
 20
17.0426
 11
-21.8037
 21
16.9789
  0
LINE
  8
0
 10
-21.8037
 20
16.9789
 11
-21.8696
 21
16.914
  0
LINE
  8
0
 10
-21.8696
 20
16.914
 11
-21.9345
 21
16.8481
  0
LINE
  8
0
 10
-21.9345
 20
16.8481
 11
-21.9982
 21
16.781
  0
LINE
  8
0
 10
-21.9982
 20
16.781
 11
-22.0606
 21
16.7128
  0
LINE
  8
0
 10
-22.0606
 20
16.7128
 11
-22.1219
 21
16.6435
  0
LINE
  8
0
 10
-22.1219
 20
16.6435
 11
-22.182
 21
16.5732
  0
LINE
  8
0
 10
-22.182
 20
16.5732
 11
-22.2408
 21
16.5018
  0
LINE
  8
0
 10
-22.2408
 20
16.5018
 11
-22.2984
 21
16.4294
  0
LINE
  8
0
 10
-22.2984
 20
16.4294
 11
-22.3547
 21
16.356
  0
LINE
  8
0
 10
-22.3547
 20
16.356
 11
-22.4098
 21
16.2816
  0
LINE
  8
0
 10
-22.4098
 20
16.2816
 11
-22.4635
 21
16.2063
  0
LINE
  8
0
 10
-22.4635
 20
16.2063
 11
-22.5159
 21
16.1301
  0
LINE
  8
0
 10
-22.5159
 20
16.1301
 11
-22.5669
 21
16.053
  0
LINE
  8
0
 10
-22.5669
 20
16.053
 11
-22.6166
 21
15.975
  0
LINE
  8
0
 10
-22.6166
 20
15.975
 11
-22.665
 21
15.8961
  0
LINE
  8
0
 10
-22.665
 20
15.8961
 11
-22.7119
 21
15.8164
  0
LINE
  8
0
 10
-22.7119
 20
15.8164
 11
-22.7575
 21
15.7359
  0
LINE
  8
0
 10
-22.7575
 20
15.7359
 11
-22.8016
 21
15.6546
  0
LINE
  8
0
 10
-22.8016
 20
15.6546
 11
-22.8443
 21
15.5725
  0
LINE
  8
0
 10
-22.8443
 20
15.5725
 11
-22.8856
 21
15.4897
  0
LINE
  8
0
 10
-22.8856
 20
15.4897
 11
-22.9254
 21
15.4063
  0
LINE
  8
0
 10
-22.9254
 20
15.4063
 11
-22.9638
 21
15.3221
  0
LINE
  8
0
 10
-22.9638
 20
15.3221
 11
-23.0007
 21
15.2373
  0
LINE
  8
0
 10
-23.0007
 20
15.2373
 11
-23.036
 21
15.1518
  0
LINE
  8
0
 10
-23.036
 20
15.1518
 11
-23.0699
 21
15.0657
  0
LINE
  8
0
 10
-23.0699
 20
15.0657
 11
-23.1023
 21
14.9791
  0
LINE
  8
0
 10
-23.1023
 20
14.9791
 11
-23.1332
 21
14.8919
  0
LINE
  8
0
 10
-23.1332
 20
14.8919
 11
-23.1626
 21
14.8042
  0
LINE
  8
0
 10
-23.1626
 20
14.8042
 11
-23.1904
 21
14.716
  0
LINE
  8
0
 10
-23.1904
 20
14.716
 11
-23.2167
 21
14.6273
  0
LINE
  8
0
 10
-23.2167
 20
14.6273
 11
-23.2414
 21
14.5381
  0
LINE
  8
0
 10
-23.2414
 20
14.5381
 11
-23.2645
 21
14.4486
  0
LINE
  8
0
 10
-23.2645
 20
14.4486
 11
-23.2861
 21
14.3586
  0
LINE
  8
0
 10
-23.2861
 20
14.3586
 11
-23.3062
 21
14.2683
  0
LINE
  8
0
 10
-23.3062
 20
14.2683
 11
-23.3246
 21
14.1777
  0
LINE
  8
0
 10
-23.3246
 20
14.1777
 11
-23.3415
 21
14.0867
  0
LINE
  8
0
 10
-23.3415
 20
14.0867
 11
-23.3567
 21
13.9955
  0
LINE
  8
0
 10
-23.3567
 20
13.9955
 11
-23.3704
 21
13.904
  0
LINE
  8
0
 10
-23.3704
 20
13.904
 11
-23.3825
 21
13.8123
  0
LINE
  8
0
 10
-23.3825
 20
13.8123
 11
-23.3929
 21
13.7204
  0
LINE
  8
0
 10
-23.3929
 20
13.7204
 11
-23.4018
 21
13.6283
  0
LINE
  8
0
 10
-23.4018
 20
13.6283
 11
-23.4091
 21
13.5361
  0
LINE
  8
0
 10
-23.4091
 20
13.5361
 11
-23.4147
 21
13.4438
  0
LINE
  8
0
 10
-23.4147
 20
13.4438
 11
-23.4187
 21
13.3513
  0
LINE
  8
0
 10
-23.4187
 20
13.3513
 11
-23.4212
 21
13.2589
  0
LINE
  8
0
 10
-23.4212
 20
13.2589
 11
-23.422
 21
13.1664
  0
LINE
  8
0
 10
-23.422
 20
13.1664
 11
-23.4212
 21
13.0739
  0
LINE
  8
0
 10
-23.4212
 20
13.0739
 11
-23.4187
 21
12.9814
  0
LINE
  8
0
 10
-23.4187
 20
12.9814
 11
-23.4147
 21
12.889
  0
LINE
  8
0
 10
-23.4147
 20
12.889
 11
-23.4091
 21
12.7967
  0
LINE
  8
0
 10
-23.4091
 20
12.7967
 11
-23.4018
 21
12.7045
  0
LINE
  8
0
 10
-23.4018
 20
12.7045
 11
-23.3929
 21
12.6124
  0
LINE
  8
0
 10
-23.3929
 20
12.6124
 11
-23.3825
 21
12.5205
  0
LINE
  8
0
 10
-23.3825
 20
12.5205
 11
-23.3704
 21
12.4288
  0
LINE
  8
0
 10
-23.3704
 20
12.4288
 11
-23.3567
 21
12.3373
  0
LINE
  8
0
 10
-23.3567
 20
12.3373
 11
-23.3415
 21
12.246
  0
LINE
  8
0
 10
-23.3415
 20
12.246
 11
-23.3246
 21
12.1551
  0
LINE
  8
0
 10
-23.3246
 20
12.1551
 11
-23.3062
 21
12.0645
  0
LINE
  8
0
 10
-23.3062
 20
12.0645
 11
-23.2861
 21
11.9741
  0
LINE
  8
0
 10
-23.2861
 20
11.9741
 11
-23.2645
 21
11.8842
  0
LINE
  8
0
 10
-23.2645
 20
11.8842
 11
-23.2414
 21
11.7946
  0
LINE
  8
0
 10
-23.2414
 20
11.7946
 11
-23.2167
 21
11.7055
  0
LINE
  8
0
 10
-23.2167
 20
11.7055
 11
-23.1904
 21
11.6168
  0
LINE
  8
0
 10
-23.1904
 20
11.6168
 11
-23.1626
 21
11.5286
  0
LINE
  8
0
 10
-23.1626
 20
11.5286
 11
-23.1332
 21
11.4409
  0
LINE
  8
0
 10
-23.1332
 20
11.4409
 11
-23.1023
 21
11.3537
  0
LINE
  8
0
 10
-23.1023
 20
11.3537
 11
-23.0699
 21
11.267
  0
LINE
  8
0
 10
-23.0699
 20
11.267
 11
-23.036
 21
11.181
  0
LINE
  8
0
 10
-23.036
 20
11.181
 11
-23.0007
 21
11.0955
  0
LINE
  8
0
 10
-23.0007
 20
11.0955
 11
-22.9638
 21
11.0107
  0
LINE
  8
0
 10
-22.9638
 20
11.0107
 11
-22.9254
 21
10.9265
  0
LINE
  8
0
 10
-22.9254
 20
10.9265
 11
-22.8856
 21
10.843
  0
LINE
  8
0
 10
-22.8856
 20
10.843
 11
-22.8443
 21
10.7602
  0
LINE
  8
0
 10
-22.8443
 20
10.7602
 11
-22.8016
 21
10.6782
  0
LINE
  8
0
 10
-22.8016
 20
10.6782
 11
-22.7575
 21
10.5969
  0
LINE
  8
0
 10
-22.7575
 20
10.5969
 11
-22.7119
 21
10.5164
  0
LINE
  8
0
 10
-22.7119
 20
10.5164
 11
-22.665
 21
10.4367
  0
LINE
  8
0
 10
-22.665
 20
10.4367
 11
-22.6166
 21
10.3578
  0
LINE
  8
0
 10
-22.6166
 20
10.3578
 11
-22.5669
 21
10.2798
  0
LINE
  8
0
 10
-22.5669
 20
10.2798
 11
-22.5159
 21
10.2027
  0
LINE
  8
0
 10
-22.5159
 20
10.2027
 11
-22.4635
 21
10.1264
  0
LINE
  8
0
 10
-22.4635
 20
10.1264
 11
-22.4098
 21
10.0511
  0
LINE
  8
0
 10
-22.4098
 20
10.0511
 11
-22.3547
 21
9.97676
  0
LINE
  8
0
 10
-22.3547
 20
9.97676
 11
-22.2984
 21
9.90338
  0
LINE
  8
0
 10
-22.2984
 20
9.90338
 11
-22.2408
 21
9.83098
  0
LINE
  8
0
 10
-22.2408
 20
9.83098
 11
-22.182
 21
9.75961
  0
LINE
  8
0
 10
-22.182
 20
9.75961
 11
-22.1219
 21
9.68927
  0
LINE
  8
0
 10
-22.1219
 20
9.68927
 11
-22.0606
 21
9.62
  0
LINE
  8
0
 10
-22.0606
 20
9.62
 11
-21.9982
 21
9.55179
  0
LINE
  8
0
 10
-21.9982
 20
9.55179
 11
-21.9345
 21
9.4847
  0
LINE
  8
0
 10
-21.9345
 20
9.4847
 11
-21.8696
 21
9.41872
  0
LINE
  8
0
 10
-21.8696
 20
9.41872
 11
-21.8037
 21
9.35388
  0
LINE
  8
0
 10
-21.8037
 20
9.35388
 11
-21.7366
 21
9.29021
  0
LINE
  8
0
 10
-21.7366
 20
9.29021
 11
-21.6684
 21
9.22771
  0
LINE
  8
0
 10
-21.6684
 20
9.22771
 11
-21.5991
 21
9.16643
  0
LINE
  8
0
 10
-21.5991
 20
9.16643
 11
-21.5287
 21
9.10635
  0
LINE
  8
0
 10
-21.5287
 20
9.10635
 11
-21.4574
 21
9.04752
  0
LINE
  8
0
 10
-21.4574
 20
9.04752
 11
-21.385
 21
8.98993
  0
LINE
  8
0
 10
-21.385
 20
8.98993
 11
-21.3116
 21
8.93361
  0
LINE
  8
0
 10
-21.3116
 20
8.93361
 11
-21.2372
 21
8.87859
  0
LINE
  8
0
 10
-21.2372
 20
8.87859
 11
-21.1619
 21
8.82487
  0
LINE
  8
0
 10
-21.1619
 20
8.82487
 11
-21.0857
 21
8.77248
  0
LINE
  8
0
 10
-21.0857
 20
8.77248
 11
-21.0086
 21
8.72144
  0
LINE
  8
0
 10
-21.0086
 20
8.72144
 11
-20.9305
 21
8.67172
  0
LINE
  8
0
 10
-20.9305
 20
8.67172
 11
-20.8517
 21
8.6234
  0
LINE
  8
0
 10
-20.8517
 20
8.6234
 11
-20.8187
 21
8.60397
  0
LINE
  8
0
 10
-20.8187
 20
8.60397
 11
-20.8327
 21
8.5847
  0
LINE
  8
0
 10
-20.8327
 20
8.5847
 11
-20.6578
 21
8.51263
  0
LINE
  8
0
 10
-20.6578
 20
8.51263
 11
-20.6102
 21
8.48676
  0
LINE
  8
0
 10
-20.6102
 20
8.48676
 11
-20.5281
 21
8.44405
  0
LINE
  8
0
 10
-20.5281
 20
8.44405
 11
-20.4453
 21
8.40277
  0
LINE
  8
0
 10
-20.4453
 20
8.40277
 11
-20.3618
 21
8.36295
  0
LINE
  8
0
 10
-20.3618
 20
8.36295
 11
-20.2777
 21
8.32458
  0
LINE
  8
0
 10
-20.2777
 20
8.32458
 11
-20.1928
 21
8.2877
  0
LINE
  8
0
 10
-20.1928
 20
8.2877
 11
-20.1074
 21
8.2523
  0
LINE
  8
0
 10
-20.1074
 20
8.2523
 11
-20.0213
 21
8.2184
  0
LINE
  8
0
 10
-20.0213
 20
8.2184
 11
-19.9347
 21
8.186
  0
LINE
  8
0
 10
-19.9347
 20
8.186
 11
-19.8475
 21
8.15514
  0
LINE
  8
0
 10
-19.8475
 20
8.15514
 11
-19.7598
 21
8.12578
  0
LINE
  8
0
 10
-19.7598
 20
8.12578
 11
-19.6715
 21
8.09796
  0
LINE
  8
0
 10
-19.6715
 20
8.09796
 11
-19.6004
 21
8.0769
  0
LINE
  8
0
 10
-19.6004
 20
8.0769
 11
-6.63359
 21
2.73355
  0
LINE
  8
0
 10
-6.63359
 20
2.73355
 11
-6.65254
 21
2.68779
  0
LINE
  8
0
 10
-6.65254
 20
2.68779
 11
-6.69843
 21
2.57129
  0
LINE
  8
0
 10
-6.69843
 20
2.57129
 11
-6.74229
 21
2.45398
  0
LINE
  8
0
 10
-6.74229
 20
2.45398
 11
-6.78409
 21
2.33594
  0
LINE
  8
0
 10
-6.78409
 20
2.33594
 11
-6.82382
 21
2.21719
  0
LINE
  8
0
 10
-6.82382
 20
2.21719
 11
-6.86148
 21
2.09776
  0
LINE
  8
0
 10
-6.86148
 20
2.09776
 11
-6.89705
 21
1.97769
  0
LINE
  8
0
 10
-6.89705
 20
1.97769
 11
-6.93051
 21
1.85703
  0
LINE
  8
0
 10
-6.93051
 20
1.85703
 11
-6.96187
 21
1.73578
  0
LINE
  8
0
 10
-6.96187
 20
1.73578
 11
-6.97343
 21
1.68764
  0
LINE
  8
0
 10
-6.97343
 20
1.68764
 11
-20.6046
 21
4.98648
  0
LINE
  8
0
 10
-20.6046
 20
4.98648
 11
-20.6745
 21
5.01125
  0
LINE
  8
0
 10
-20.6745
 20
5.01125
 11
-20.7622
 21
5.04059
  0
LINE
  8
0
 10
-20.7622
 20
5.04059
 11
-20.8504
 21
5.06841
  0
LINE
  8
0
 10
-20.8504
 20
5.06841
 11
-20.9391
 21
5.09468
  0
LINE
  8
0
 10
-20.9391
 20
5.09468
 11
-21.0282
 21
5.1194
  0
LINE
  8
0
 10
-21.0282
 20
5.1194
 11
-21.1178
 21
5.14256
  0
LINE
  8
0
 10
-21.1178
 20
5.14256
 11
-21.2077
 21
5.16415
  0
LINE
  8
0
 10
-21.2077
 20
5.16415
 11
-21.2981
 21
5.18417
  0
LINE
  8
0
 10
-21.2981
 20
5.18417
 11
-21.3887
 21
5.20262
  0
LINE
  8
0
 10
-21.3887
 20
5.20262
 11
-21.4797
 21
5.21947
  0
LINE
  8
0
 10
-21.4797
 20
5.21947
 11
-21.5709
 21
5.23474
  0
LINE
  8
0
 10
-21.5709
 20
5.23474
 11
-21.6624
 21
5.24841
  0
LINE
  8
0
 10
-21.6624
 20
5.24841
 11
-21.7161
 21
5.25548
  0
LINE
  8
0
 10
-21.7161
 20
5.25548
 11
-21.9
 21
5.29999
  0
LINE
  8
0
 10
-21.9
 20
5.29999
 11
-21.9
 21
5.27617
  0
LINE
  8
0
 10
-21.9
 20
5.27617
 11
-21.9381
 21
5.27983
  0
LINE
  8
0
 10
-21.9381
 20
5.27983
 11
-22.0303
 21
5.28708
  0
LINE
  8
0
 10
-22.0303
 20
5.28708
 11
-22.1226
 21
5.29272
  0
LINE
  8
0
 10
-22.1226
 20
5.29272
 11
-22.215
 21
5.29677
  0
LINE
  8
0
 10
-22.215
 20
5.29677
 11
-22.3075
 21
5.29918
  0
LINE
  8
0
 10
-22.3075
 20
5.29918
 11
-22.4
 21
5.29999
  0
LINE
  8
0
 10
-22.4
 20
5.29999
 11
-22.4925
 21
5.29918
  0
LINE
  8
0
 10
-22.4925
 20
5.29918
 11
-22.585
 21
5.29677
  0
LINE
  8
0
 10
-22.585
 20
5.29677
 11
-22.6774
 21
5.29272
  0
LINE
  8
0
 10
-22.6774
 20
5.29272
 11
-22.7697
 21
5.28708
  0
LINE
  8
0
 10
-22.7697
 20
5.28708
 11
-22.8619
 21
5.27983
  0
LINE
  8
0
 10
-22.8619
 20
5.27983
 11
-22.954
 21
5.27097
  0
LINE
  8
0
 10
-22.954
 20
5.27097
 11
-23.0459
 21
5.26048
  0
LINE
  8
0
 10
-23.0459
 20
5.26048
 11
-23.1376
 21
5.24841
  0
LINE
  8
0
 10
-23.1376
 20
5.24841
 11
-23.2291
 21
5.23474
  0
LINE
  8
0
 10
-23.2291
 20
5.23474
 11
-23.3203
 21
5.21947
  0
LINE
  8
0
 10
-23.3203
 20
5.21947
 11
-23.4113
 21
5.20262
  0
LINE
  8
0
 10
-23.4113
 20
5.20262
 11
-23.5019
 21
5.18417
  0
LINE
  8
0
 10
-23.5019
 20
5.18417
 11
-23.5922
 21
5.16415
  0
LINE
  8
0
 10
-23.5922
 20
5.16415
 11
-23.6822
 21
5.14256
  0
LINE
  8
0
 10
-23.6822
 20
5.14256
 11
-23.7717
 21
5.1194
  0
LINE
  8
0
 10
-23.7717
 20
5.1194
 11
-23.8609
 21
5.09468
  0
LINE
  8
0
 10
-23.8609
 20
5.09468
 11
-23.9496
 21
5.06841
  0
LINE
  8
0
 10
-23.9496
 20
5.06841
 11
-24.0378
 21
5.04059
  0
LINE
  8
0
 10
-24.0378
 20
5.04059
 11
-24.1255
 21
5.01125
  0
LINE
  8
0
 10
-24.1255
 20
5.01125
 11
-24.2127
 21
4.98036
  0
LINE
  8
0
 10
-24.2127
 20
4.98036
 11
-24.2993
 21
4.94797
  0
LINE
  8
0
 10
-24.2993
 20
4.94797
 11
-24.3854
 21
4.91406
  0
LINE
  8
0
 10
-24.3854
 20
4.91406
 11
-24.4709
 21
4.87866
  0
LINE
  8
0
 10
-24.4709
 20
4.87866
 11
-24.5557
 21
4.84178
  0
LINE
  8
0
 10
-24.5557
 20
4.84178
 11
-24.6399
 21
4.80342
  0
LINE
  8
0
 10
-24.6399
 20
4.80342
 11
-24.7234
 21
4.7636
  0
LINE
  8
0
 10
-24.7234
 20
4.7636
 11
-24.8061
 21
4.72232
  0
LINE
  8
0
 10
-24.8061
 20
4.72232
 11
-24.8882
 21
4.67961
  0
LINE
  8
0
 10
-24.8882
 20
4.67961
 11
-24.9695
 21
4.63548
  0
LINE
  8
0
 10
-24.9695
 20
4.63548
 11
-25.05
 21
4.58992
  0
LINE
  8
0
 10
-25.05
 20
4.58992
 11
-25.1297
 21
4.54298
  0
LINE
  8
0
 10
-25.1297
 20
4.54298
 11
-25.2086
 21
4.49464
  0
LINE
  8
0
 10
-25.2086
 20
4.49464
 11
-25.2866
 21
4.44495
  0
LINE
  8
0
 10
-25.2866
 20
4.44495
 11
-25.3637
 21
4.39389
  0
LINE
  8
0
 10
-25.3637
 20
4.39389
 11
-25.4399
 21
4.34149
  0
LINE
  8
0
 10
-25.4399
 20
4.34149
 11
-25.5153
 21
4.28778
  0
LINE
  8
0
 10
-25.5153
 20
4.28778
 11
-25.5896
 21
4.23276
  0
LINE
  8
0
 10
-25.5896
 20
4.23276
 11
-25.663
 21
4.17645
  0
LINE
  8
0
 10
-25.663
 20
4.17645
 11
-25.7354
 21
4.11887
  0
LINE
  8
0
 10
-25.7354
 20
4.11887
 11
-25.8068
 21
4.06003
  0
LINE
  8
0
 10
-25.8068
 20
4.06003
 11
-25.8771
 21
3.99995
  0
LINE
  8
0
 10
-25.8771
 20
3.99995
 11
-25.9464
 21
3.93866
  0
LINE
  8
0
 10
-25.9464
 20
3.93866
 11
-26.0146
 21
3.87616
  0
LINE
  8
0
 10
-26.0146
 20
3.87616
 11
-26.0817
 21
3.8125
  0
LINE
  8
0
 10
-26.0817
 20
3.8125
 11
-26.1477
 21
3.74767
  0
LINE
  8
0
 10
-26.1477
 20
3.74767
 11
-26.2125
 21
3.68169
  0
LINE
  8
0
 10
-26.2125
 20
3.68169
 11
-26.2762
 21
3.61458
  0
LINE
  8
0
 10
-26.2762
 20
3.61458
 11
-26.3387
 21
3.54639
  0
LINE
  8
0
 10
-26.3387
 20
3.54639
 11
-26.3999
 21
3.47711
  0
LINE
  8
0
 10
-26.3999
 20
3.47711
 11
-26.46
 21
3.40677
  0
LINE
  8
0
 10
-26.46
 20
3.40677
 11
-26.5189
 21
3.33539
  0
LINE
  8
0
 10
-26.5189
 20
3.33539
 11
-26.5764
 21
3.263
  0
LINE
  8
0
 10
-26.5764
 20
3.263
 11
-26.6328
 21
3.18961
  0
LINE
  8
0
 10
-26.6328
 20
3.18961
 11
-26.6878
 21
3.11525
  0
LINE
  8
0
 10
-26.6878
 20
3.11525
 11
-26.7415
 21
3.03995
  0
LINE
  8
0
 10
-26.7415
 20
3.03995
 11
-26.7939
 21
2.96371
  0
LINE
  8
0
 10
-26.7939
 20
2.96371
 11
-26.8449
 21
2.88658
  0
LINE
  8
0
 10
-26.8449
 20
2.88658
 11
-26.8947
 21
2.80856
  0
LINE
  8
0
 10
-26.8947
 20
2.80856
 11
-26.943
 21
2.72969
  0
LINE
  8
0
 10
-26.943
 20
2.72969
 11
-26.9899
 21
2.64999
  0
LINE
  8
0
 10
-26.9899
 20
2.64999
 11
-27.0355
 21
2.56949
  0
LINE
  8
0
 10
-27.0355
 20
2.56949
 11
-27.0796
 21
2.48819
  0
LINE
  8
0
 10
-27.0796
 20
2.48819
 11
-27.1223
 21
2.40614
  0
LINE
  8
0
 10
-27.1223
 20
2.40614
 11
-27.1636
 21
2.32336
  0
LINE
  8
0
 10
-27.1636
 20
2.32336
 11
-27.2034
 21
2.23987
  0
LINE
  8
0
 10
-27.2034
 20
2.23987
 11
-27.2418
 21
2.1557
  0
LINE
  8
0
 10
-27.2418
 20
2.1557
 11
-27.2787
 21
2.07086
  0
LINE
  8
0
 10
-27.2787
 20
2.07086
 11
-27.3141
 21
1.98541
  0
LINE
  8
0
 10
-27.3141
 20
1.98541
 11
-27.348
 21
1.89934
  0
LINE
  8
0
 10
-27.348
 20
1.89934
 11
-27.3804
 21
1.8127
  0
LINE
  8
0
 10
-27.3804
 20
1.8127
 11
-27.4112
 21
1.72551
  0
LINE
  8
0
 10
-27.4112
 20
1.72551
 11
-27.4406
 21
1.63779
  0
LINE
  8
0
 10
-27.4406
 20
1.63779
 11
-27.4684
 21
1.54956
  0
LINE
  8
0
 10
-27.4684
 20
1.54956
 11
-27.4947
 21
1.46088
  0
LINE
  8
0
 10
-27.4947
 20
1.46088
 11
-27.5194
 21
1.37173
  0
LINE
  8
0
 10
-27.5194
 20
1.37173
 11
-27.5426
 21
1.28218
  0
LINE
  8
0
 10
-27.5426
 20
1.28218
 11
-27.5641
 21
1.19223
  0
LINE
  8
0
 10
-27.5641
 20
1.19223
 11
-27.5842
 21
1.10193
  0
LINE
  8
0
 10
-27.5842
 20
1.10193
 11
-27.6026
 21
1.01128
  0
LINE
  8
0
 10
-27.6026
 20
1.01128
 11
-27.6195
 21
0.920334
  0
LINE
  8
0
 10
-27.6195
 20
0.920334
 11
-27.6347
 21
0.829102
  0
LINE
  8
0
 10
-27.6347
 20
0.829102
 11
-27.6484
 21
0.73761
  0
LINE
  8
0
 10
-27.6484
 20
0.73761
 11
-27.6605
 21
0.645905
  0
LINE
  8
0
 10
-27.6605
 20
0.645905
 11
-27.671
 21
0.554001
  0
LINE
  8
0
 10
-27.671
 20
0.554001
 11
-27.6798
 21
0.461914
  0
LINE
  8
0
 10
-27.6798
 20
0.461914
 11
-27.6871
 21
0.369705
  0
LINE
  8
0
 10
-27.6871
 20
0.369705
 11
-27.6927
 21
0.277374
  0
LINE
  8
0
 10
-27.6927
 20
0.277374
 11
-27.6968
 21
0.184967
  0
LINE
  8
0
 10
-27.6968
 20
0.184967
 11
-27.6992
 21
0.0924835
  0
LINE
  8
0
 10
-27.6992
 20
0.0924835
 11
-27.7
 21
0
  0
LINE
  8
0
 10
-27.7
 20
0
 11
-27.6992
 21
-0.0924835
  0
LINE
  8
0
 10
-27.6992
 20
-0.0924835
 11
-27.6968
 21
-0.184967
  0
LINE
  8
0
 10
-27.6968
 20
-0.184967
 11
-27.6927
 21
-0.277374
  0
LINE
  8
0
 10
-27.6927
 20
-0.277374
 11
-27.6871
 21
-0.369705
  0
LINE
  8
0
 10
-27.6871
 20
-0.369705
 11
-27.6798
 21
-0.461914
  0
LINE
  8
0
 10
-27.6798
 20
-0.461914
 11
-27.671
 21
-0.554001
  0
LINE
  8
0
 10
-27.671
 20
-0.554001
 11
-27.6605
 21
-0.645905
  0
LINE
  8
0
 10
-27.6605
 20
-0.645905
 11
-27.6484
 21
-0.73761
  0
LINE
  8
0
 10
-27.6484
 20
-0.73761
 11
-27.6347
 21
-0.829102
  0
LINE
  8
0
 10
-27.6347
 20
-0.829102
 11
-27.6195
 21
-0.920334
  0
LINE
  8
0
 10
-27.6195
 20
-0.920334
 11
-27.6026
 21
-1.01128
  0
LINE
  8
0
 10
-27.6026
 20
-1.01128
 11
-27.5842
 21
-1.10193
  0
LINE
  8
0
 10
-27.5842
 20
-1.10193
 11
-27.5641
 21
-1.19223
  0
LINE
  8
0
 10
-27.5641
 20
-1.19223
 11
-27.5426
 21
-1.28218
  0
LINE
  8
0
 10
-27.5426
 20
-1.28218
 11
-27.5194
 21
-1.37173
  0
LINE
  8
0
 10
-27.5194
 20
-1.37173
 11
-27.4947
 21
-1.46088
  0
LINE
  8
0
 10
-27.4947
 20
-1.46088
 11
-27.4684
 21
-1.54956
  0
LINE
  8
0
 10
-27.4684
 20
-1.54956
 11
-27.4406
 21
-1.63779
  0
LINE
  8
0
 10
-27.4406
 20
-1.63779
 11
-27.4112
 21
-1.72551
  0
LINE
  8
0
 10
-27.4112
 20
-1.72551
 11
-27.3804
 21
-1.8127
  0
LINE
  8
0
 10
-27.3804
 20
-1.8127
 11
-27.348
 21
-1.89934
  0
LINE
  8
0
 10
-27.348
 20
-1.89934
 11
-27.3141
 21
-1.98541
  0
LINE
  8
0
 10
-27.3141
 20
-1.98541
 11
-27.2787
 21
-2.07086
  0
LINE
  8
0
 10
-27.2787
 20
-2.07086
 11
-27.2418
 21
-2.1557
  0
LINE
  8
0
 10
-27.2418
 20
-2.1557
 11
-27.2034
 21
-2.23987
  0
LINE
  8
0
 10
-27.2034
 20
-2.23987
 11
-27.1636
 21
-2.32336
  0
LINE
  8
0
 10
-27.1636
 20
-2.32336
 11
-27.1223
 21
-2.40614
  0
LINE
  8
0
 10
-27.1223
 20
-2.40614
 11
-27.0796
 21
-2.48819
  0
LINE
  8
0
 10
-27.0796
 20
-2.48819
 11
-27.0355
 21
-2.56949
  0
LINE
  8
0
 10
-27.0355
 20
-2.56949
 11
-26.9899
 21
-2.64999
  0
LINE
  8
0
 10
-26.9899
 20
-2.64999
 11
-26.943
 21
-2.72969
  0
LINE
  8
0
 10
-26.943
 20
-2.72969
 11
-26.8947
 21
-2.80856
  0
LINE
  8
0
 10
-26.8947
 20
-2.80856
 11
-26.8449
 21
-2.88658
  0
LINE
  8
0
 10
-26.8449
 20
-2.88658
 11
-26.7939
 21
-2.96371
  0
LINE
  8
0
 10
-26.7939
 20
-2.96371
 11
-26.7415
 21
-3.03995
  0
LINE
  8
0
 10
-26.7415
 20
-3.03995
 11
-26.6878
 21
-3.11525
  0
LINE
  8
0
 10
-26.6878
 20
-3.11525
 11
-26.6328
 21
-3.18961
  0
LINE
  8
0
 10
-26.6328
 20
-3.18961
 11
-26.5764
 21
-3.263
  0
LINE
  8
0
 10
-26.5764
 20
-3.263
 11
-26.5189
 21
-3.33539
  0
LINE
  8
0
 10
-26.5189
 20
-3.33539
 11
-26.46
 21
-3.40677
  0
LINE
  8
0
 10
-26.46
 20
-3.40677
 11
-26.3999
 21
-3.47711
  0
LINE
  8
0
 10
-26.3999
 20
-3.47711
 11
-26.3387
 21
-3.54639
  0
LINE
  8
0
 10
-26.3387
 20
-3.54639
 11
-26.2762
 21
-3.61458
  0
LINE
  8
0
 10
-26.2762
 20
-3.61458
 11
-26.2125
 21
-3.68169
  0
LINE
  8
0
 10
-26.2125
 20
-3.68169
 11
-26.1477
 21
-3.74767
  0
LINE
  8
0
 10
-26.1477
 20
-3.74767
 11
-26.0817
 21
-3.8125
  0
LINE
  8
0
 10
-26.0817
 20
-3.8125
 11
-26.0146
 21
-3.87616
  0
LINE
  8
0
 10
-26.0146
 20
-3.87616
 11
-25.9464
 21
-3.93866
  0
LINE
  8
0
 10
-25.9464
 20
-3.93866
 11
-25.8771
 21
-3.99995
  0
LINE
  8
0
 10
-25.8771
 20
-3.99995
 11
-25.8068
 21
-4.06003
  0
LINE
  8
0
 10
-25.8068
 20
-4.06003
 11
-25.7354
 21
-4.11887
  0
LINE
  8
0
 10
-25.7354
 20
-4.11887
 11
-25.663
 21
-4.17645
  0
LINE
  8
0
 10
-25.663
 20
-4.17645
 11
-25.5896
 21
-4.23276
  0
LINE
  8
0
 10
-25.5896
 20
-4.23276
 11
-25.5153
 21
-4.28778
  0
LINE
  8
0
 10
-25.5153
 20
-4.28778
 11
-25.4399
 21
-4.34149
  0
LINE
  8
0
 10
-25.4399
 20
-4.34149
 11
-25.3637
 21
-4.39389
  0
LINE
  8
0
 10
-25.3637
 20
-4.39389
 11
-25.2866
 21
-4.44495
  0
LINE
  8
0
 10
-25.2866
 20
-4.44495
 11
-25.2086
 21
-4.49464
  0
LINE
  8
0
 10
-25.2086
 20
-4.49464
 11
-25.1297
 21
-4.54298
  0
LINE
  8
0
 10
-25.1297
 20
-4.54298
 11
-25.05
 21
-4.58992
  0
LINE
  8
0
 10
-25.05
 20
-4.58992
 11
-24.9695
 21
-4.63548
  0
LINE
  8
0
 10
-24.9695
 20
-4.63548
 11
-24.8882
 21
-4.67961
  0
LINE
  8
0
 10
-24.8882
 20
-4.67961
 11
-24.8061
 21
-4.72232
  0
LINE
  8
0
 10
-24.8061
 20
-4.72232
 11
-24.7234
 21
-4.7636
  0
LINE
  8
0
 10
-24.7234
 20
-4.7636
 11
-24.6399
 21
-4.80342
  0
LINE
  8
0
 10
-24.6399
 20
-4.80342
 11
-24.5557
 21
-4.84178
  0
LINE
  8
0
 10
-24.5557
 20
-4.84178
 11
-24.4709
 21
-4.87866
  0
LINE
  8
0
 10
-24.4709
 20
-4.87866
 11
-24.3854
 21
-4.91406
  0
LINE
  8
0
 10
-24.3854
 20
-4.91406
 11
-24.2993
 21
-4.94797
  0
LINE
  8
0
 10
-24.2993
 20
-4.94797
 11
-24.2127
 21
-4.98036
  0
LINE
  8
0
 10
-24.2127
 20
-4.98036
 11
-24.1255
 21
-5.01125
  0
LINE
  8
0
 10
-24.1255
 20
-5.01125
 11
-24.0378
 21
-5.04059
  0
LINE
  8
0
 10
-24.0378
 20
-5.04059
 11
-23.9496
 21
-5.06841
  0
LINE
  8
0
 10
-23.9496
 20
-5.06841
 11
-23.8609
 21
-5.09468
  0
LINE
  8
0
 10
-23.8609
 20
-5.09468
 11
-23.7717
 21
-5.1194
  0
LINE
  8
0
 10
-23.7717
 20
-5.1194
 11
-23.6822
 21
-5.14256
  0
LINE
  8
0
 10
-23.6822
 20
-5.14256
 11
-23.5922
 21
-5.16415
  0
LINE
  8
0
 10
-23.5922
 20
-5.16415
 11
-23.5019
 21
-5.18417
  0
LINE
  8
0
 10
-23.5019
 20
-5.18417
 11
-23.4113
 21
-5.20262
  0
LINE
  8
0
 10
-23.4113
 20
-5.20262
 11
-23.3203
 21
-5.21947
  0
LINE
  8
0
 10
-23.3203
 20
-5.21947
 11
-23.2291
 21
-5.23474
  0
LINE
  8
0
 10
-23.2291
 20
-5.23474
 11
-23.1376
 21
-5.24841
  0
LINE
  8
0
 10
-23.1376
 20
-5.24841
 11
-23.0459
 21
-5.26048
  0
LINE
  8
0
 10
-23.0459
 20
-5.26048
 11
-22.954
 21
-5.27097
  0
LINE
  8
0
 10
-22.954
 20
-5.27097
 11
-22.8619
 21
-5.27983
  0
LINE
  8
0
 10
-22.8619
 20
-5.27983
 11
-22.7697
 21
-5.28708
  0
LINE
  8
0
 10
-22.7697
 20
-5.28708
 11
-22.6774
 21
-5.29272
  0
LINE
  8
0
 10
-22.6774
 20
-5.29272
 11
-22.585
 21
-5.29677
  0
LINE
  8
0
 10
-22.585
 20
-5.29677
 11
-22.4925
 21
-5.29918
  0
LINE
  8
0
 10
-22.4925
 20
-5.29918
 11
-22.4
 21
-5.29999
  0
LINE
  8
0
 10
-22.4
 20
-5.29999
 11
-22.3075
 21
-5.29918
  0
LINE
  8
0
 10
-22.3075
 20
-5.29918
 11
-22.215
 21
-5.29677
  0
LINE
  8
0
 10
-22.215
 20
-5.29677
 11
-22.1226
 21
-5.29272
  0
LINE
  8
0
 10
-22.1226
 20
-5.29272
 11
-22.0303
 21
-5.28708
  0
LINE
  8
0
 10
-22.0303
 20
-5.28708
 11
-21.9381
 21
-5.27983
  0
LINE
  8
0
 10
-21.9381
 20
-5.27983
 11
-21.9
 21
-5.27617
  0
LINE
  8
0
 10
-21.9
 20
-5.27617
 11
-21.9
 21
-5.29999
  0
LINE
  8
0
 10
-21.9
 20
-5.29999
 11
-21.7161
 21
-5.25548
  0
LINE
  8
0
 10
-21.7161
 20
-5.25548
 11
-21.6624
 21
-5.24841
  0
LINE
  8
0
 10
-21.6624
 20
-5.24841
 11
-21.5709
 21
-5.23474
  0
LINE
  8
0
 10
-21.5709
 20
-5.23474
 11
-21.4797
 21
-5.21947
  0
LINE
  8
0
 10
-21.4797
 20
-5.21947
 11
-21.3887
 21
-5.20262
  0
LINE
  8
0
 10
-21.3887
 20
-5.20262
 11
-21.2981
 21
-5.18417
  0
LINE
  8
0
 10
-21.2981
 20
-5.18417
 11
-21.2077
 21
-5.16415
  0
LINE
  8
0
 10
-21.2077
 20
-5.16415
 11
-21.1178
 21
-5.14256
  0
LINE
  8
0
 10
-21.1178
 20
-5.14256
 11
-21.0282
 21
-5.1194
  0
LINE
  8
0
 10
-21.0282
 20
-5.1194
 11
-20.9391
 21
-5.09468
  0
LINE
  8
0
 10
-20.9391
 20
-5.09468
 11
-20.8504
 21
-5.06841
  0
LINE
  8
0
 10
-20.8504
 20
-5.06841
 11
-20.7622
 21
-5.04059
  0
LINE
  8
0
 10
-20.7622
 20
-5.04059
 11
-20.6745
 21
-5.01125
  0
LINE
  8
0
 10
-20.6745
 20
-5.01125
 11
-20.6046
 21
-4.98648
  0
LINE
  8
0
 10
-20.6046
 20
-4.98648
 11
-6.97343
 21
-1.68764
  0
LINE
  8
0
 10
-6.97343
 20
-1.68764
 11
-6.96187
 21
-1.73578
  0
LINE
  8
0
 10
-6.96187
 20
-1.73578
 11
-6.93051
 21
-1.85703
  0
LINE
  8
0
 10
-6.93051
 20
-1.85703
 11
-6.89705
 21
-1.97769
  0
LINE
  8
0
 10
-6.89705
 20
-1.97769
 11
-6.86148
 21
-2.09776
  0
LINE
  8
0
 10
-6.86148
 20
-2.09776
 11
-6.82382
 21
-2.21719
  0
LINE
  8
0
 10
-6.82382
 20
-2.21719
 11
-6.78409
 21
-2.33594
  0
LINE
  8
0
 10
-6.78409
 20
-2.33594
 11
-6.74229
 21
-2.45398
  0
LINE
  8
0
 10
-6.74229
 20
-2.45398
 11
-6.69843
 21
-2.57129
  0
LINE
  8
0
 10
-6.69843
 20
-2.57129
 11
-6.65254
 21
-2.68779
  0
LINE
  8
0
 10
-6.65254
 20
-2.68779
 11
-6.63359
 21
-2.73355
  0
LINE
  8
0
 10
-6.63359
 20
-2.73355
 11
-19.6004
 21
-8.0769
  0
LINE
  8
0
 10
-19.6004
 20
-8.0769
 11
-19.6715
 21
-8.09796
  0
LINE
  8
0
 10
-19.6715
 20
-8.09796
 11
-19.7598
 21
-8.12578
  0
LINE
  8
0
 10
-19.7598
 20
-8.12578
 11
-19.8475
 21
-8.15514
  0
LINE
  8
0
 10
-19.8475
 20
-8.15514
 11
-19.9347
 21
-8.186
  0
LINE
  8
0
 10
-19.9347
 20
-8.186
 11
-20.0213
 21
-8.2184
  0
LINE
  8
0
 10
-20.0213
 20
-8.2184
 11
-20.1074
 21
-8.2523
  0
LINE
  8
0
 10
-20.1074
 20
-8.2523
 11
-20.1928
 21
-8.2877
  0
LINE
  8
0
 10
-20.1928
 20
-8.2877
 11
-20.2777
 21
-8.32458
  0
LINE
  8
0
 10
-20.2777
 20
-8.32458
 11
-20.3618
 21
-8.36295
  0
LINE
  8
0
 10
-20.3618
 20
-8.36295
 11
-20.4453
 21
-8.40277
  0
LINE
  8
0
 10
-20.4453
 20
-8.40277
 11
-20.5281
 21
-8.44405
  0
LINE
  8
0
 10
-20.5281
 20
-8.44405
 11
-20.6102
 21
-8.48676
  0
LINE
  8
0
 10
-20.6102
 20
-8.48676
 11
-20.6578
 21
-8.51263
  0
LINE
  8
0
 10
-20.6578
 20
-8.51263
 11
-20.8327
 21
-8.5847
  0
LINE
  8
0
 10
-20.8327
 20
-8.5847
 11
-20.8187
 21
-8.60397
  0
LINE
  8
0
 10
-20.8187
 20
-8.60397
 11
-20.8517
 21
-8.6234
  0
LINE
  8
0
 10
-20.8517
 20
-8.6234
 11
-20.9305
 21
-8.67172
  0
LINE
  8
0
 10
-20.9305
 20
-8.67172
 11
-21.0086
 21
-8.72144
  0
LINE
  8
0
 10
-21.0086
 20
-8.72144
 11
-21.0857
 21
-8.77248
  0
LINE
  8
0
 10
-21.0857
 20
-8.77248
 11
-21.1619
 21
-8.82487
  0
LINE
  8
0
 10
-21.1619
 20
-8.82487
 11
-21.2372
 21
-8.87859
  0
LINE
  8
0
 10
-21.2372
 20
-8.87859
 11
-21.3116
 21
-8.93361
  0
LINE
  8
0
 10
-21.3116
 20
-8.93361
 11
-21.385
 21
-8.98993
  0
LINE
  8
0
 10
-21.385
 20
-8.98993
 11
-21.4574
 21
-9.04752
  0
LINE
  8
0
 10
-21.4574
 20
-9.04752
 11
-21.5287
 21
-9.10635
  0
LINE
  8
0
 10
-21.5287
 20
-9.10635
 11
-21.5991
 21
-9.16643
  0
LINE
  8
0
 10
-21.5991
 20
-9.16643
 11
-21.6684
 21
-9.22771
  0
LINE
  8
0
 10
-21.6684
 20
-9.22771
 11
-21.7366
 21
-9.29021
  0
LINE
  8
0
 10
-21.7366
 20
-9.29021
 11
-21.8037
 21
-9.35388
  0
LINE
  8
0
 10
-21.8037
 20
-9.35388
 11
-21.8696
 21
-9.41872
  0
LINE
  8
0
 10
-21.8696
 20
-9.41872
 11
-21.9345
 21
-9.4847
  0
LINE
  8
0
 10
-21.9345
 20
-9.4847
 11
-21.9982
 21
-9.55179
  0
LINE
  8
0
 10
-21.9982
 20
-9.55179
 11
-22.0606
 21
-9.62
  0
LINE
  8
0
 10
-22.0606
 20
-9.62
 11
-22.1219
 21
-9.68927
  0
LINE
  8
0
 10
-22.1219
 20
-9.68927
 11
-22.182
 21
-9.75961
  0
LINE
  8
0
 10
-22.182
 20
-9.75961
 11
-22.2408
 21
-9.83098
  0
LINE
  8
0
 10
-22.2408
 20
-9.83098
 11
-22.2984
 21
-9.90338
  0
LINE
  8
0
 10
-22.2984
 20
-9.90338
 11
-22.3547
 21
-9.97676
  0
LINE
  8
0
 10
-22.3547
 20
-9.97676
 11
-22.4098
 21
-10.0511
  0
LINE
  8
0
 10
-22.4098
 20
-10.0511
 11
-22.4635
 21
-10.1264
  0
LINE
  8
0
 10
-22.4635
 20
-10.1264
 11
-22.5159
 21
-10.2027
  0
LINE
  8
0
 10
-22.5159
 20
-10.2027
 11
-22.5669
 21
-10.2798
  0
LINE
  8
0
 10
-22.5669
 20
-10.2798
 11
-22.6166
 21
-10.3578
  0
LINE
  8
0
 10
-22.6166
 20
-10.3578
 11
-22.665
 21
-10.4367
  0
LINE
  8
0
 10
-22.665
 20
-10.4367
 11
-22.7119
 21
-10.5164
  0
LINE
  8
0
 10
-22.7119
 20
-10.5164
 11
-22.7575
 21
-10.5969
  0
LINE
  8
0
 10
-22.7575
 20
-10.5969
 11
-22.8016
 21
-10.6782
  0
LINE
  8
0
 10
-22.8016
 20
-10.6782
 11
-22.8443
 21
-10.7602
  0
LINE
  8
0
 10
-22.8443
 20
-10.7602
 11
-22.8856
 21
-10.843
  0
LINE
  8
0
 10
-22.8856
 20
-10.843
 11
-22.9254
 21
-10.9265
  0
LINE
  8
0
 10
-22.9254
 20
-10.9265
 11
-22.9638
 21
-11.0107
  0
LINE
  8
0
 10
-22.9638
 20
-11.0107
 11
-23.0007
 21
-11.0955
  0
LINE
  8
0
 10
-23.0007
 20
-11.0955
 11
-23.036
 21
-11.181
  0
LINE
  8
0
 10
-23.036
 20
-11.181
 11
-23.0699
 21
-11.267
  0
LINE
  8
0
 10
-23.0699
 20
-11.267
 11
-23.1023
 21
-11.3537
  0
LINE
  8
0
 10
-23.1023
 20
-11.3537
 11
-23.1332
 21
-11.4409
  0
LINE
  8
0
 10
-23.1332
 20
-11.4409
 11
-23.1626
 21
-11.5286
  0
LINE
  8
0
 10
-23.1626
 20
-11.5286
 11
-23.1904
 21
-11.6168
  0
LINE
  8
0
 10
-23.1904
 20
-11.6168
 11
-23.2167
 21
-11.7055
  0
LINE
  8
0
 10
-23.2167
 20
-11.7055
 11
-23.2414
 21
-11.7946
  0
LINE
  8
0
 10
-23.2414
 20
-11.7946
 11
-23.2645
 21
-11.8842
  0
LINE
  8
0
 10
-23.2645
 20
-11.8842
 11
-23.2861
 21
-11.9741
  0
LINE
  8
0
 10
-23.2861
 20
-11.9741
 11
-23.3062
 21
-12.0645
  0
LINE
  8
0
 10
-23.3062
 20
-12.0645
 11
-23.3246
 21
-12.1551
  0
LINE
  8
0
 10
-23.3246
 20
-12.1551
 11
-23.3415
 21
-12.246
  0
LINE
  8
0
 10
-23.3415
 20
-12.246
 11
-23.3567
 21
-12.3373
  0
LINE
  8
0
 10
-23.3567
 20
-12.3373
 11
-23.3704
 21
-12.4288
  0
LINE
  8
0
 10
-23.3704
 20
-12.4288
 11
-23.3825
 21
-12.5205
  0
LINE
  8
0
 10
-23.3825
 20
-12.5205
 11
-23.3929
 21
-12.6124
  0
LINE
  8
0
 10
-23.3929
 20
-12.6124
 11
-23.4018
 21
-12.7045
  0
LINE
  8
0
 10
-23.4018
 20
-12.7045
 11
-23.4091
 21
-12.7967
  0
LINE
  8
0
 10
-23.4091
 20
-12.7967
 11
-23.4147
 21
-12.889
  0
LINE
  8
0
 10
-23.4147
 20
-12.889
 11
-23.4187
 21
-12.9814
  0
LINE
  8
0
 10
-23.4187
 20
-12.9814
 11
-23.4212
 21
-13.0739
  0
LINE
  8
0
 10
-23.4212
 20
-13.0739
 11
-23.422
 21
-13.1664
  0
LINE
  8
0
 10
-23.422
 20
-13.1664
 11
-23.4212
 21
-13.2589
  0
LINE
  8
0
 10
-23.4212
 20
-13.2589
 11
-23.4187
 21
-13.3513
  0
LINE
  8
0
 10
-23.4187
 20
-13.3513
 11
-23.4147
 21
-13.4438
  0
LINE
  8
0
 10
-23.4147
 20
-13.4438
 11
-23.4091
 21
-13.5361
  0
LINE
  8
0
 10
-23.4091
 20
-13.5361
 11
-23.4018
 21
-13.6283
  0
LINE
  8
0
 10
-23.4018
 20
-13.6283
 11
-23.3929
 21
-13.7204
  0
LINE
  8
0
 10
-23.3929
 20
-13.7204
 11
-23.3825
 21
-13.8123
  0
LINE
  8
0
 10
-23.3825
 20
-13.8123
 11
-23.3704
 21
-13.904
  0
LINE
  8
0
 10
-23.3704
 20
-13.904
 11
-23.3567
 21
-13.9955
  0
LINE
  8
0
 10
-23.3567
 20
-13.9955
 11
-23.3415
 21
-14.0867
  0
LINE
  8
0
 10
-23.3415
 20
-14.0867
 11
-23.3246
 21
-14.1777
  0
LINE
  8
0
 10
-23.3246
 20
-14.1777
 11
-23.3062
 21
-14.2683
  0
LINE
  8
0
 10
-23.3062
 20
-14.2683
 11
-23.2861
 21
-14.3586
  0
LINE
  8
0
 10
-23.2861
 20
-14.3586
 11
-23.2645
 21
-14.4486
  0
LINE
  8
0
 10
-23.2645
 20
-14.4486
 11
-23.2414
 21
-14.5381
  0
LINE
  8
0
 10
-23.2414
 20
-14.5381
 11
-23.2167
 21
-14.6273
  0
LINE
  8
0
 10
-23.2167
 20
-14.6273
 11
-23.1904
 21
-14.716
  0
LINE
  8
0
 10
-23.1904
 20
-14.716
 11
-23.1626
 21
-14.8042
  0
LINE
  8
0
 10
-23.1626
 20
-14.8042
 11
-23.1332
 21
-14.8919
  0
LINE
  8
0
 10
-23.1332
 20
-14.8919
 11
-23.1023
 21
-14.9791
  0
LINE
  8
0
 10
-23.1023
 20
-14.9791
 11
-23.0699
 21
-15.0657
  0
LINE
  8
0
 10
-23.0699
 20
-15.0657
 11
-23.036
 21
-15.1518
  0
LINE
  8
0
 10
-23.036
 20
-15.1518
 11
-23.0007
 21
-15.2373
  0
LINE
  8
0
 10
-23.0007
 20
-15.2373
 11
-22.9638
 21
-15.3221
  0
LINE
  8
0
 10
-22.9638
 20
-15.3221
 11
-22.9254
 21
-15.4063
  0
LINE
  8
0
 10
-22.9254
 20
-15.4063
 11
-22.8856
 21
-15.4897
  0
LINE
  8
0
 10
-22.8856
 20
-15.4897
 11
-22.8443
 21
-15.5725
  0
LINE
  8
0
 10
-22.8443
 20
-15.5725
 11
-22.8016
 21
-15.6546
  0
LINE
  8
0
 10
-22.8016
 20
-15.6546
 11
-22.7575
 21
-15.7359
  0
LINE
  8
0
 10
-22.7575
 20
-15.7359
 11
-22.7119
 21
-15.8164
  0
LINE
  8
0
 10
-22.7119
 20
-15.8164
 11
-22.665
 21
-15.8961
  0
LINE
  8
0
 10
-22.665
 20
-15.8961
 11
-22.6166
 21
-15.975
  0
LINE
  8
0
 10
-22.6166
 20
-15.975
 11
-22.5669
 21
-16.053
  0
LINE
  8
0
 10
-22.5669
 20
-16.053
 11
-22.5159
 21
-16.1301
  0
LINE
  8
0
 10
-22.5159
 20
-16.1301
 11
-22.4635
 21
-16.2063
  0
LINE
  8
0
 10
-22.4635
 20
-16.2063
 11
-22.4098
 21
-16.2816
  0
LINE
  8
0
 10
-22.4098
 20
-16.2816
 11
-22.3547
 21
-16.356
  0
LINE
  8
0
 10
-22.3547
 20
-16.356
 11
-22.2984
 21
-16.4294
  0
LINE
  8
0
 10
-22.2984
 20
-16.4294
 11
-22.2408
 21
-16.5018
  0
LINE
  8
0
 10
-22.2408
 20
-16.5018
 11
-22.182
 21
-16.5732
  0
LINE
  8
0
 10
-22.182
 20
-16.5732
 11
-22.1219
 21
-16.6435
  0
LINE
  8
0
 10
-22.1219
 20
-16.6435
 11
-22.0606
 21
-16.7128
  0
LINE
  8
0
 10
-22.0606
 20
-16.7128
 11
-21.9982
 21
-16.781
  0
LINE
  8
0
 10
-21.9982
 20
-16.781
 11
-21.9345
 21
-16.8481
  0
LINE
  8
0
 10
-21.9345
 20
-16.8481
 11
-21.8696
 21
-16.914
  0
LINE
  8
0
 10
-21.8696
 20
-16.914
 11
-21.8037
 21
-16.9789
  0
LINE
  8
0
 10
-21.8037
 20
-16.9789
 11
-21.7366
 21
-17.0426
  0
LINE
  8
0
 10
-21.7366
 20
-17.0426
 11
-21.6684
 21
-17.1051
  0
LINE
  8
0
 10
-21.6684
 20
-17.1051
 11
-21.5991
 21
-17.1663
  0
LINE
  8
0
 10
-21.5991
 20
-17.1663
 11
-21.5287
 21
-17.2264
  0
LINE
  8
0
 10
-21.5287
 20
-17.2264
 11
-21.4574
 21
-17.2853
  0
LINE
  8
0
 10
-21.4574
 20
-17.2853
 11
-21.385
 21
-17.3428
  0
LINE
  8
0
 10
-21.385
 20
-17.3428
 11
-21.3116
 21
-17.3992
  0
LINE
  8
0
 10
-21.3116
 20
-17.3992
 11
-21.2372
 21
-17.4542
  0
LINE
  8
0
 10
-21.2372
 20
-17.4542
 11
-21.1619
 21
-17.5079
  0
LINE
  8
0
 10
-21.1619
 20
-17.5079
 11
-21.0857
 21
-17.5603
  0
LINE
  8
0
 10
-21.0857
 20
-17.5603
 11
-21.0086
 21
-17.6113
  0
LINE
  8
0
 10
-21.0086
 20
-17.6113
 11
-20.9305
 21
-17.661
  0
LINE
  8
0
 10
-20.9305
 20
-17.661
 11
-20.8517
 21
-17.7094
  0
LINE
  8
0
 10
-20.8517
 20
-17.7094
 11
-20.772
 21
-17.7563
  0
LINE
  8
0
 10
-20.772
 20
-17.7563
 11
-20.6915
 21
-17.8019
  0
LINE
  8
0
 10
-20.6915
 20
-17.8019
 11
-20.6102
 21
-17.846
  0
LINE
  8
0
 10
-20.6102
 20
-17.846
 11
-20.5281
 21
-17.8887
  0
LINE
  8
0
 10
-20.5281
 20
-17.8887
 11
-20.4453
 21
-17.93
  0
LINE
  8
0
 10
-20.4453
 20
-17.93
 11
-20.3618
 21
-17.9698
  0
LINE
  8
0
 10
-20.3618
 20
-17.9698
 11
-20.2777
 21
-18.0082
  0
LINE
  8
0
 10
-20.2777
 20
-18.0082
 11
-20.1928
 21
-18.0451
  0
LINE
  8
0
 10
-20.1928
 20
-18.0451
 11
-20.1074
 21
-18.0805
  0
LINE
  8
0
 10
-20.1074
 20
-18.0805
 11
-20.0213
 21
-18.1144
  0
LINE
  8
0
 10
-20.0213
 20
-18.1144
 11
-19.9347
 21
-18.1468
  0
LINE
  8
0
 10
-19.9347
 20
-18.1468
 11
-19.8475
 21
-18.1776
  0
LINE
  8
0
 10
-19.8475
 20
-18.1776
 11
-19.7598
 21
-18.207
  0
LINE
  8
0
 10
-19.7598
 20
-18.207
 11
-19.6715
 21
-18.2348
  0
LINE
  8
0
 10
-19.6715
 20
-18.2348
 11
-19.5829
 21
-18.2611
  0
LINE
  8
0
 10
-19.5829
 20
-18.2611
 11
-19.4937
 21
-18.2858
  0
LINE
  8
0
 10
-19.4937
 20
-18.2858
 11
-19.4042
 21
-18.3089
  0
LINE
  8
0
 10
-19.4042
 20
-18.3089
 11
-19.3142
 21
-18.3305
  0
LINE
  8
0
 10
-19.3142
 20
-18.3305
 11
-19.2239
 21
-18.3506
  0
LINE
  8
0
 10
-19.2239
 20
-18.3506
 11
-19.1333
 21
-18.369
  0
LINE
  8
0
 10
-19.1333
 20
-18.369
 11
-19.0423
 21
-18.3859
  0
LINE
  8
0
 10
-19.0423
 20
-18.3859
 11
-18.9511
 21
-18.4011
  0
LINE
  8
0
 10
-18.9511
 20
-18.4011
 11
-18.8596
 21
-18.4148
  0
LINE
  8
0
 10
-18.8596
 20
-18.4148
 11
-18.7679
 21
-18.4269
  0
LINE
  8
0
 10
-18.7679
 20
-18.4269
 11
-18.676
 21
-18.4373
  0
LINE
  8
0
 10
-18.676
 20
-18.4373
 11
-18.5839
 21
-18.4462
  0
LINE
  8
0
 10
-18.5839
 20
-18.4462
 11
-18.4917
 21
-18.4535
  0
LINE
  8
0
 10
-18.4917
 20
-18.4535
 11
-18.3994
 21
-18.4591
  0
LINE
  8
0
 10
-18.3994
 20
-18.4591
 11
-18.3069
 21
-18.4632
  0
LINE
  8
0
 10
-18.3069
 20
-18.4632
 11
-18.2145
 21
-18.4656
  0
LINE
  8
0
 10
-18.2145
 20
-18.4656
 11
-18.122
 21
-18.4664
  0
LINE
  8
0
 10
-18.122
 20
-18.4664
 11
-18.0295
 21
-18.4656
  0
LINE
  8
0
 10
-18.0295
 20
-18.4656
 11
-17.937
 21
-18.4632
  0
LINE
  8
0
 10
-17.937
 20
-18.4632
 11
-17.8446
 21
-18.4591
  0
LINE
  8
0
 10
-17.8446
 20
-18.4591
 11
-17.7523
 21
-18.4535
  0
LINE
  8
0
 10
-17.7523
 20
-18.4535
 11
-17.66
 21
-18.4462
  0
LINE
  8
0
 10
-17.66
 20
-18.4462
 11
-17.568
 21
-18.4373
  0
LINE
  8
0
 10
-17.568
 20
-18.4373
 11
-17.4761
 21
-18.4269
  0
LINE
  8
0
 10
-17.4761
 20
-18.4269
 11
-17.3844
 21
-18.4148
  0
LINE
  8
0
 10
-17.3844
 20
-18.4148
 11
-17.2929
 21
-18.4011
  0
LINE
  8
0
 10
-17.2929
 20
-18.4011
 11
-17.2016
 21
-18.3859
  0
LINE
  8
0
 10
-17.2016
 20
-18.3859
 11
-17.1107
 21
-18.369
  0
LINE
  8
0
 10
-17.1107
 20
-18.369
 11
-17.02
 21
-18.3506
  0
LINE
  8
0
 10
-17.02
 20
-18.3506
 11
-16.9297
 21
-18.3305
  0
LINE
  8
0
 10
-16.9297
 20
-18.3305
 11
-16.8398
 21
-18.3089
  0
LINE
  8
0
 10
-16.8398
 20
-18.3089
 11
-16.7502
 21
-18.2858
  0
LINE
  8
0
 10
-16.7502
 20
-18.2858
 11
-16.6611
 21
-18.2611
  0
LINE
  8
0
 10
-16.6611
 20
-18.2611
 11
-16.5724
 21
-18.2348
  0
LINE
  8
0
 10
-16.5724
 20
-18.2348
 11
-16.4842
 21
-18.207
  0
LINE
  8
0
 10
-16.4842
 20
-18.207
 11
-16.3965
 21
-18.1776
  0
LINE
  8
0
 10
-16.3965
 20
-18.1776
 11
-16.3093
 21
-18.1468
  0
LINE
  8
0
 10
-16.3093
 20
-18.1468
 11
-16.2226
 21
-18.1144
  0
LINE
  8
0
 10
-16.2226
 20
-18.1144
 11
-16.1366
 21
-18.0805
  0
LINE
  8
0
 10
-16.1366
 20
-18.0805
 11
-16.0511
 21
-18.0451
  0
LINE
  8
0
 10
-16.0511
 20
-18.0451
 11
-15.9663
 21
-18.0082
  0
LINE
  8
0
 10
-15.9663
 20
-18.0082
 11
-15.8821
 21
-17.9698
  0
LINE
  8
0
 10
-15.8821
 20
-17.9698
 11
-15.7986
 21
-17.93
  0
LINE
  8
0
 10
-15.7986
 20
-17.93
 11
-15.7158
 21
-17.8887
  0
LINE
  8
0
 10
-15.7158
 20
-17.8887
 11
-15.6338
 21
-17.846
  0
LINE
  8
0
 10
-15.6338
 20
-17.846
 11
-15.5525
 21
-17.8019
  0
LINE
  8
0
 10
-15.5525
 20
-17.8019
 11
-15.472
 21
-17.7563
  0
LINE
  8
0
 10
-15.472
 20
-17.7563
 11
-15.3923
 21
-17.7094
  0
LINE
  8
0
 10
-15.3923
 20
-17.7094
 11
-15.3134
 21
-17.661
  0
LINE
  8
0
 10
-15.3134
 20
-17.661
 11
-15.2354
 21
-17.6113
  0
LINE
  8
0
 10
-15.2354
 20
-17.6113
 11
-15.1582
 21
-17.5603
  0
LINE
  8
0
 10
-15.1582
 20
-17.5603
 11
-15.082
 21
-17.5079
  0
LINE
  8
0
 10
-15.082
 20
-17.5079
 11
-15.0067
 21
-17.4542
  0
LINE
  8
0
 10
-15.0067
 20
-17.4542
 11
-14.9324
 21
-17.3992
  0
LINE
  8
0
 10
-14.9324
 20
-17.3992
 11
-14.859
 21
-17.3428
  0
LINE
  8
0
 10
-14.859
 20
-17.3428
 11
-14.7866
 21
-17.2853
  0
LINE
  8
0
 10
-14.7866
 20
-17.2853
 11
-14.7152
 21
-17.2264
  0
LINE
  8
0
 10
-14.7152
 20
-17.2264
 11
-14.6449
 21
-17.1663
  0
LINE
  8
0
 10
-14.6449
 20
-17.1663
 11
-14.6162
 21
-17.141
  0
LINE
  8
0
 10
-14.6162
 20
-17.141
 11
-14.6022
 21
-17.1603
  0
LINE
  8
0
 10
-14.6022
 20
-17.1603
 11
-14.4796
 21
-17.0162
  0
LINE
  8
0
 10
-14.4796
 20
-17.0162
 11
-14.4403
 21
-16.9789
  0
LINE
  8
0
 10
-14.4403
 20
-16.9789
 11
-14.3743
 21
-16.914
  0
LINE
  8
0
 10
-14.3743
 20
-16.914
 11
-14.3095
 21
-16.8481
  0
LINE
  8
0
 10
-14.3095
 20
-16.8481
 11
-14.2458
 21
-16.781
  0
LINE
  8
0
 10
-14.2458
 20
-16.781
 11
-14.1833
 21
-16.7128
  0
LINE
  8
0
 10
-14.1833
 20
-16.7128
 11
-14.122
 21
-16.6435
  0
LINE
  8
0
 10
-14.122
 20
-16.6435
 11
-14.0619
 21
-16.5732
  0
LINE
  8
0
 10
-14.0619
 20
-16.5732
 11
-14.0031
 21
-16.5018
  0
LINE
  8
0
 10
-14.0031
 20
-16.5018
 11
-13.9455
 21
-16.4294
  0
LINE
  8
0
 10
-13.9455
 20
-16.4294
 11
-13.8892
 21
-16.356
  0
LINE
  8
0
 10
-13.8892
 20
-16.356
 11
-13.8342
 21
-16.2816
  0
LINE
  8
0
 10
-13.8342
 20
-16.2816
 11
-13.7805
 21
-16.2063
  0
LINE
  8
0
 10
-13.7805
 20
-16.2063
 11
-13.7384
 21
-16.1451
  0
LINE
  8
0
 10
-13.7384
 20
-16.1451
 11
-4.64966
 21
-5.4642
  0
LINE
  8
0
 10
-4.64966
 20
-5.4642
 11
-4.612
 21
-5.49637
  0
LINE
  8
0
 10
-4.612
 20
-5.49637
 11
-4.51537
 21
-5.57602
  0
LINE
  8
0
 10
-4.51537
 20
-5.57602
 11
-4.41736
 21
-5.65398
  0
LINE
  8
0
 10
-4.41736
 20
-5.65398
 11
-4.31801
 21
-5.73021
  0
LINE
  8
0
 10
-4.31801
 20
-5.73021
 11
-4.21735
 21
-5.80469
  0
LINE
  8
0
 10
-4.21735
 20
-5.80469
 11
-4.1154
 21
-5.87741
  0
LINE
  8
0
 10
-4.1154
 20
-5.87741
 11
-4.01221
 21
-5.94833
  0
LINE
  8
0
 10
-4.01221
 20
-5.94833
 11
-3.90778
 21
-6.01746
  0
LINE
  8
0
 10
-3.90778
 20
-6.01746
 11
-3.80217
 21
-6.08473
  0
LINE
  8
0
 10
-3.80217
 20
-6.08473
 11
-3.75993
 21
-6.11061
  0
LINE
  8
0
 10
-3.75993
 20
-6.11061
 11
-11.1095
 21
-18.0551
  0
LINE
  8
0
 10
-11.1095
 20
-18.0551
 11
-11.1547
 21
-18.114
  0
LINE
  8
0
 10
-11.1547
 20
-18.114
 11
-11.2098
 21
-18.1884
  0
LINE
  8
0
 10
-11.2098
 20
-18.1884
 11
-11.2635
 21
-18.2637
  0
LINE
  8
0
 10
-11.2635
 20
-18.2637
 11
-11.3159
 21
-18.3399
  0
LINE
  8
0
 10
-11.3159
 20
-18.3399
 11
-11.3669
 21
-18.4171
  0
LINE
  8
0
 10
-11.3669
 20
-18.4171
 11
-11.4166
 21
-18.4951
  0
LINE
  8
0
 10
-11.4166
 20
-18.4951
 11
-11.465
 21
-18.574
  0
LINE
  8
0
 10
-11.465
 20
-18.574
 11
-11.5119
 21
-18.6537
  0
LINE
  8
0
 10
-11.5119
 20
-18.6537
 11
-11.5575
 21
-18.7342
  0
LINE
  8
0
 10
-11.5575
 20
-18.7342
 11
-11.6016
 21
-18.8155
  0
LINE
  8
0
 10
-11.6016
 20
-18.8155
 11
-11.6443
 21
-18.8975
  0
LINE
  8
0
 10
-11.6443
 20
-18.8975
 11
-11.6856
 21
-18.9803
  0
LINE
  8
0
 10
-11.6856
 20
-18.9803
 11
-11.709
 21
-19.0293
  0
LINE
  8
0
 10
-11.709
 20
-19.0293
 11
-11.808
 21
-19.1903
  0
LINE
  8
0
 10
-11.808
 20
-19.1903
 11
-11.7854
 21
-19.1977
  0
LINE
  8
0
 10
-11.7854
 20
-19.1977
 11
-11.8006
 21
-19.2328
  0
LINE
  8
0
 10
-11.8006
 20
-19.2328
 11
-11.836
 21
-19.3182
  0
LINE
  8
0
 10
-11.836
 20
-19.3182
 11
-11.8699
 21
-19.4043
  0
LINE
  8
0
 10
-11.8699
 20
-19.4043
 11
-11.9023
 21
-19.491
  0
LINE
  8
0
 10
-11.9023
 20
-19.491
 11
-11.9332
 21
-19.5781
  0
LINE
  8
0
 10
-11.9332
 20
-19.5781
 11
-11.9626
 21
-19.6659
  0
LINE
  8
0
 10
-11.9626
 20
-19.6659
 11
-11.9904
 21
-19.7541
  0
LINE
  8
0
 10
-11.9904
 20
-19.7541
 11
-12.0167
 21
-19.8428
  0
LINE
  8
0
 10
-12.0167
 20
-19.8428
 11
-12.0414
 21
-19.9319
  0
LINE
  8
0
 10
-12.0414
 20
-19.9319
 11
-12.0645
 21
-20.0215
  0
LINE
  8
0
 10
-12.0645
 20
-20.0215
 11
-12.0861
 21
-20.1114
  0
LINE
  8
0
 10
-12.0861
 20
-20.1114
 11
-12.1062
 21
-20.2017
  0
LINE
  8
0
 10
-12.1062
 20
-20.2017
 11
-12.1246
 21
-20.2924
  0
LINE
  8
0
 10
-12.1246
 20
-20.2924
 11
-12.1414
 21
-20.3833
  0
LINE
  8
0
 10
-12.1414
 20
-20.3833
 11
-12.1567
 21
-20.4745
  0
LINE
  8
0
 10
-12.1567
 20
-20.4745
 11
-12.1704
 21
-20.566
  0
LINE
  8
0
 10
-12.1704
 20
-20.566
 11
-12.1825
 21
-20.6577
  0
LINE
  8
0
 10
-12.1825
 20
-20.6577
 11
-12.1929
 21
-20.7497
  0
LINE
  8
0
 10
-12.1929
 20
-20.7497
 11
-12.2018
 21
-20.8417
  0
LINE
  8
0
 10
-12.2018
 20
-20.8417
 11
-12.2091
 21
-20.9339
  0
LINE
  8
0
 10
-12.2091
 20
-20.9339
 11
-12.2147
 21
-21.0263
  0
LINE
  8
0
 10
-12.2147
 20
-21.0263
 11
-12.2188
 21
-21.1187
  0
LINE
  8
0
 10
-12.2188
 20
-21.1187
 11
-12.2212
 21
-21.2112
  0
LINE
  8
0
 10
-12.2212
 20
-21.2112
 11
-12.222
 21
-21.3037
  0
LINE
  8
0
 10
-12.222
 20
-21.3037
 11
-12.2212
 21
-21.3961
  0
LINE
  8
0
 10
-12.2212
 20
-21.3961
 11
-12.2188
 21
-21.4886
  0
LINE
  8
0
 10
-12.2188
 20
-21.4886
 11
-12.2147
 21
-21.581
  0
LINE
  8
0
 10
-12.2147
 20
-21.581
 11
-12.2091
 21
-21.6734
  0
LINE
  8
0
 10
-12.2091
 20
-21.6734
 11
-12.2018
 21
-21.7656
  0
LINE
  8
0
 10
-12.2018
 20
-21.7656
 11
-12.1929
 21
-21.8577
  0
LINE
  8
0
 10
-12.1929
 20
-21.8577
 11
-12.1825
 21
-21.9496
  0
LINE
  8
0
 10
-12.1825
 20
-21.9496
 11
-12.1704
 21
-22.0413
  0
LINE
  8
0
 10
-12.1704
 20
-22.0413
 11
-12.1567
 21
-22.1328
  0
LINE
  8
0
 10
-12.1567
 20
-22.1328
 11
-12.1414
 21
-22.224
  0
LINE
  8
0
 10
-12.1414
 20
-22.224
 11
-12.1246
 21
-22.3149
  0
LINE
  8
0
 10
-12.1246
 20
-22.3149
 11
-12.1062
 21
-22.4056
  0
LINE
  8
0
 10
-12.1062
 20
-22.4056
 11
-12.0861
 21
-22.4959
  0
LINE
  8
0
 10
-12.0861
 20
-22.4959
 11
-12.0645
 21
-22.5858
  0
LINE
  8
0
 10
-12.0645
 20
-22.5858
 11
-12.0414
 21
-22.6754
  0
LINE
  8
0
 10
-12.0414
 20
-22.6754
 11
-12.0167
 21
-22.7645
  0
LINE
  8
0
 10
-12.0167
 20
-22.7645
 11
-11.9904
 21
-22.8532
  0
LINE
  8
0
 10
-11.9904
 20
-22.8532
 11
-11.9626
 21
-22.9415
  0
LINE
  8
0
 10
-11.9626
 20
-22.9415
 11
-11.9332
 21
-23.0292
  0
LINE
  8
0
 10
-11.9332
 20
-23.0292
 11
-11.9023
 21
-23.1164
  0
LINE
  8
0
 10
-11.9023
 20
-23.1164
 11
-11.8699
 21
-23.203
  0
LINE
  8
0
 10
-11.8699
 20
-23.203
 11
-11.836
 21
-23.2891
  0
LINE
  8
0
 10
-11.836
 20
-23.2891
 11
-11.8006
 21
-23.3745
  0
LINE
  8
0
 10
-11.8006
 20
-23.3745
 11
-11.7638
 21
-23.4594
  0
LINE
  8
0
 10
-11.7638
 20
-23.4594
 11
-11.7254
 21
-23.5435
  0
LINE
  8
0
 10
-11.7254
 20
-23.5435
 11
-11.6856
 21
-23.627
  0
LINE
  8
0
 10
-11.6856
 20
-23.627
 11
-11.6443
 21
-23.7098
  0
LINE
  8
0
 10
-11.6443
 20
-23.7098
 11
-11.6016
 21
-23.7919
  0
LINE
  8
0
 10
-11.6016
 20
-23.7919
 11
-11.5575
 21
-23.8732
  0
LINE
  8
0
 10
-11.5575
 20
-23.8732
 11
-11.5119
 21
-23.9537
  0
LINE
  8
0
 10
-11.5119
 20
-23.9537
 11
-11.465
 21
-24.0334
  0
LINE
  8
0
 10
-11.465
 20
-24.0334
 11
-11.4166
 21
-24.1122
  0
LINE
  8
0
 10
-11.4166
 20
-24.1122
 11
-11.3669
 21
-24.1902
  0
LINE
  8
0
 10
-11.3669
 20
-24.1902
 11
-11.3159
 21
-24.2674
  0
LINE
  8
0
 10
-11.3159
 20
-24.2674
 11
-11.2635
 21
-24.3436
  0
LINE
  8
0
 10
-11.2635
 20
-24.3436
 11
-11.2098
 21
-24.4189
  0
LINE
  8
0
 10
-11.2098
 20
-24.4189
 11
-11.1547
 21
-24.4933
  0
LINE
  8
0
 10
-11.1547
 20
-24.4933
 11
-11.0984
 21
-24.5667
  0
LINE
  8
0
 10
-11.0984
 20
-24.5667
 11
-11.0408
 21
-24.6391
  0
LINE
  8
0
 10
-11.0408
 20
-24.6391
 11
-10.982
 21
-24.7104
  0
LINE
  8
0
 10
-10.982
 20
-24.7104
 11
-10.9219
 21
-24.7808
  0
LINE
  8
0
 10
-10.9219
 20
-24.7808
 11
-10.8606
 21
-24.8501
  0
LINE
  8
0
 10
-10.8606
 20
-24.8501
 11
-10.7981
 21
-24.9182
  0
LINE
  8
0
 10
-10.7981
 20
-24.9182
 11
-10.7345
 21
-24.9854
  0
LINE
  8
0
 10
-10.7345
 20
-24.9854
 11
-10.6696
 21
-25.0513
  0
LINE
  8
0
 10
-10.6696
 20
-25.0513
 11
-10.6037
 21
-25.1162
  0
LINE
  8
0
 10
-10.6037
 20
-25.1162
 11
-10.5366
 21
-25.1798
  0
LINE
  8
0
 10
-10.5366
 20
-25.1798
 11
-10.4684
 21
-25.2423
  0
LINE
  8
0
 10
-10.4684
 20
-25.2423
 11
-10.3991
 21
-25.3036
  0
LINE
  8
0
 10
-10.3991
 20
-25.3036
 11
-10.3288
 21
-25.3637
  0
LINE
  8
0
 10
-10.3288
 20
-25.3637
 11
-10.2574
 21
-25.4225
  0
LINE
  8
0
 10
-10.2574
 20
-25.4225
 11
-10.185
 21
-25.4801
  0
LINE
  8
0
 10
-10.185
 20
-25.4801
 11
-10.1116
 21
-25.5364
  0
LINE
  8
0
 10
-10.1116
 20
-25.5364
 11
-10.0372
 21
-25.5914
  0
LINE
  8
0
 10
-10.0372
 20
-25.5914
 11
-9.96193
 21
-25.6452
  0
LINE
  8
0
 10
-9.96193
 20
-25.6452
 11
-9.8857
 21
-25.6976
  0
LINE
  8
0
 10
-9.8857
 20
-25.6976
 11
-9.80856
 21
-25.7486
  0
LINE
  8
0
 10
-9.80856
 20
-25.7486
 11
-9.73055
 21
-25.7983
  0
LINE
  8
0
 10
-9.73055
 20
-25.7983
 11
-9.65167
 21
-25.8466
  0
LINE
  8
0
 10
-9.65167
 20
-25.8466
 11
-9.57198
 21
-25.8936
  0
LINE
  8
0
 10
-9.57198
 20
-25.8936
 11
-9.49147
 21
-25.9391
  0
LINE
  8
0
 10
-9.49147
 20
-25.9391
 11
-9.41017
 21
-25.9833
  0
LINE
  8
0
 10
-9.41017
 20
-25.9833
 11
-9.32812
 21
-26.026
  0
LINE
  8
0
 10
-9.32812
 20
-26.026
 11
-9.24535
 21
-26.0673
  0
LINE
  8
0
 10
-9.24535
 20
-26.0673
 11
-9.16185
 21
-26.1071
  0
LINE
  8
0
 10
-9.16185
 20
-26.1071
 11
-9.07768
 21
-26.1454
  0
LINE
  8
0
 10
-9.07768
 20
-26.1454
 11
-8.99284
 21
-26.1823
  0
LINE
  8
0
 10
-8.99284
 20
-26.1823
 11
-8.90739
 21
-26.2177
  0
LINE
  8
0
 10
-8.90739
 20
-26.2177
 11
-8.82132
 21
-26.2516
  0
LINE
  8
0
 10
-8.82132
 20
-26.2516
 11
-8.73468
 21
-26.284
  0
LINE
  8
0
 10
-8.73468
 20
-26.284
 11
-8.64749
 21
-26.3149
  0
LINE
  8
0
 10
-8.64749
 20
-26.3149
 11
-8.55977
 21
-26.3443
  0
LINE
  8
0
 10
-8.55977
 20
-26.3443
 11
-8.47154
 21
-26.3721
  0
LINE
  8
0
 10
-8.47154
 20
-26.3721
 11
-8.38286
 21
-26.3983
  0
LINE
  8
0
 10
-8.38286
 20
-26.3983
 11
-8.29372
 21
-26.4231
  0
LINE
  8
0
 10
-8.29372
 20
-26.4231
 11
-8.20416
 21
-26.4462
  0
LINE
  8
0
 10
-8.20416
 20
-26.4462
 11
-8.11421
 21
-26.4678
  0
LINE
  8
0
 10
-8.11421
 20
-26.4678
 11
-8.02391
 21
-26.4878
  0
LINE
  8
0
 10
-8.02391
 20
-26.4878
 11
-7.93326
 21
-26.5063
  0
LINE
  8
0
 10
-7.93326
 20
-26.5063
 11
-7.84232
 21
-26.5231
  0
LINE
  8
0
 10
-7.84232
 20
-26.5231
 11
-7.75107
 21
-26.5384
  0
LINE
  8
0
 10
-7.75107
 20
-26.5384
 11
-7.65959
 21
-26.5521
  0
LINE
  8
0
 10
-7.65959
 20
-26.5521
 11
-7.56789
 21
-26.5641
  0
LINE
  8
0
 10
-7.56789
 20
-26.5641
 11
-7.47597
 21
-26.5746
  0
LINE
  8
0
 10
-7.47597
 20
-26.5746
 11
-7.3839
 21
-26.5835
  0
LINE
  8
0
 10
-7.3839
 20
-26.5835
 11
-7.29169
 21
-26.5907
  0
LINE
  8
0
 10
-7.29169
 20
-26.5907
 11
-7.19936
 21
-26.5964
  0
LINE
  8
0
 10
-7.19936
 20
-26.5964
 11
-7.10693
 21
-26.6004
  0
LINE
  8
0
 10
-7.10693
 20
-26.6004
 11
-7.01447
 21
-26.6028
  0
LINE
  8
0
 10
-7.01447
 20
-26.6028
 11
-6.92197
 21
-26.6037
  0
LINE
  8
0
 10
-6.92197
 20
-26.6037
 11
-6.82947
 21
-26.6028
  0
LINE
  8
0
 10
-6.82947
 20
-26.6028
 11
-6.737
 21
-26.6004
  0
LINE
  8
0
 10
-6.737
 20
-26.6004
 11
-6.64459
 21
-26.5964
  0
LINE
  8
0
 10
-6.64459
 20
-26.5964
 11
-6.55226
 21
-26.5907
  0
LINE
  8
0
 10
-6.55226
 20
-26.5907
 11
-6.46005
 21
-26.5835
  0
LINE
  8
0
 10
-6.46005
 20
-26.5835
 11
-6.36797
 21
-26.5746
  0
LINE
  8
0
 10
-6.36797
 20
-26.5746
 11
-6.27606
 21
-26.5641
  0
LINE
  8
0
 10
-6.27606
 20
-26.5641
 11
-6.18436
 21
-26.5521
  0
LINE
  8
0
 10
-6.18436
 20
-26.5521
 11
-6.09286
 21
-26.5384
  0
LINE
  8
0
 10
-6.09286
 20
-26.5384
 11
-6.00163
 21
-26.5231
  0
LINE
  8
0
 10
-6.00163
 20
-26.5231
 11
-5.91069
 21
-26.5063
  0
LINE
  8
0
 10
-5.91069
 20
-26.5063
 11
-5.82004
 21
-26.4878
  0
LINE
  8
0
 10
-5.82004
 20
-26.4878
 11
-5.72974
 21
-26.4678
  0
LINE
  8
0
 10
-5.72974
 20
-26.4678
 11
-5.63979
 21
-26.4462
  0
LINE
  8
0
 10
-5.63979
 20
-26.4462
 11
-5.55023
 21
-26.4231
  0
LINE
  8
0
 10
-5.55023
 20
-26.4231
 11
-5.46109
 21
-26.3983
  0
LINE
  8
0
 10
-5.46109
 20
-26.3983
 11
-5.37241
 21
-26.3721
  0
LINE
  8
0
 10
-5.37241
 20
-26.3721
 11
-5.28418
 21
-26.3443
  0
LINE
  8
0
 10
-5.28418
 20
-26.3443
 11
-5.19646
 21
-26.3149
  0
LINE
  8
0
 10
-5.19646
 20
-26.3149
 11
-5.10927
 21
-26.284
  0
LINE
  8
0
 10
-5.10927
 20
-26.284
 11
-5.02263
 21
-26.2516
  0
LINE
  8
0
 10
-5.02263
 20
-26.2516
 11
-4.93655
 21
-26.2177
  0
LINE
  8
0
 10
-4.93655
 20
-26.2177
 11
-4.8511
 21
-26.1823
  0
LINE
  8
0
 10
-4.8511
 20
-26.1823
 11
-4.76627
 21
-26.1454
  0
LINE
  8
0
 10
-4.76627
 20
-26.1454
 11
-4.6821
 21
-26.1071
  0
LINE
  8
0
 10
-4.6821
 20
-26.1071
 11
-4.5986
 21
-26.0673
  0
LINE
  8
0
 10
-4.5986
 20
-26.0673
 11
-4.51582
 21
-26.026
  0
LINE
  8
0
 10
-4.51582
 20
-26.026
 11
-4.43378
 21
-25.9833
  0
LINE
  8
0
 10
-4.43378
 20
-25.9833
 11
-4.35248
 21
-25.9391
  0
LINE
  8
0
 10
-4.35248
 20
-25.9391
 11
-4.27197
 21
-25.8936
  0
LINE
  8
0
 10
-4.27197
 20
-25.8936
 11
-4.19228
 21
-25.8466
  0
LINE
  8
0
 10
-4.19228
 20
-25.8466
 11
-4.1134
 21
-25.7983
  0
LINE
  8
0
 10
-4.1134
 20
-25.7983
 11
-4.03539
 21
-25.7486
  0
LINE
  8
0
 10
-4.03539
 20
-25.7486
 11
-3.95825
 21
-25.6976
  0
LINE
  8
0
 10
-3.95825
 20
-25.6976
 11
-3.88202
 21
-25.6452
  0
LINE
  8
0
 10
-3.88202
 20
-25.6452
 11
-3.80672
 21
-25.5914
  0
LINE
  8
0
 10
-3.80672
 20
-25.5914
 11
-3.73236
 21
-25.5364
  0
LINE
  8
0
 10
-3.73236
 20
-25.5364
 11
-3.65897
 21
-25.4801
  0
LINE
  8
0
 10
-3.65897
 20
-25.4801
 11
-3.58658
 21
-25.4225
  0
LINE
  8
0
 10
-3.58658
 20
-25.4225
 11
-3.5152
 21
-25.3637
  0
LINE
  8
0
 10
-3.5152
 20
-25.3637
 11
-3.44485
 21
-25.3036
  0
LINE
  8
0
 10
-3.44485
 20
-25.3036
 11
-3.37558
 21
-25.2423
  0
LINE
  8
0
 10
-3.37558
 20
-25.2423
 11
-3.30739
 21
-25.1798
  0
LINE
  8
0
 10
-3.30739
 20
-25.1798
 11
-3.24028
 21
-25.1162
  0
LINE
  8
0
 10
-3.24028
 20
-25.1162
 11
-3.1743
 21
-25.0513
  0
LINE
  8
0
 10
-3.1743
 20
-25.0513
 11
-3.10947
 21
-24.9854
  0
LINE
  8
0
 10
-3.10947
 20
-24.9854
 11
-3.04579
 21
-24.9182
  0
LINE
  8
0
 10
-3.04579
 20
-24.9182
 11
-2.98331
 21
-24.8501
  0
LINE
  8
0
 10
-2.98331
 20
-24.8501
 11
-2.92201
 21
-24.7808
  0
LINE
  8
0
 10
-2.92201
 20
-24.7808
 11
-2.86194
 21
-24.7104
  0
LINE
  8
0
 10
-2.86194
 20
-24.7104
 11
-2.8031
 21
-24.6391
  0
LINE
  8
0
 10
-2.8031
 20
-24.6391
 11
-2.74551
 21
-24.5667
  0
LINE
  8
0
 10
-2.74551
 20
-24.5667
 11
-2.68921
 21
-24.4933
  0
LINE
  8
0
 10
-2.68921
 20
-24.4933
 11
-2.63419
 21
-24.4189
  0
LINE
  8
0
 10
-2.63419
 20
-24.4189
 11
-2.58046
 21
-24.3436
  0
LINE
  8
0
 10
-2.58046
 20
-24.3436
 11
-2.52808
 21
-24.2674
  0
LINE
  8
0
 10
-2.52808
 20
-24.2674
 11
-2.47702
 21
-24.1902
  0
LINE
  8
0
 10
-2.47702
 20
-24.1902
 11
-2.42732
 21
-24.1122
  0
LINE
  8
0
 10
-2.42732
 20
-24.1122
 11
-2.37898
 21
-24.0334
  0
LINE
  8
0
 10
-2.37898
 20
-24.0334
 11
-2.33203
 21
-23.9537
  0
LINE
  8
0
 10
-2.33203
 20
-23.9537
 11
-2.28648
 21
-23.8732
  0
LINE
  8
0
 10
-2.28648
 20
-23.8732
 11
-2.24236
 21
-23.7919
  0
LINE
  8
0
 10
-2.24236
 20
-23.7919
 11
-2.19965
 21
-23.7098
  0
LINE
  8
0
 10
-2.19965
 20
-23.7098
 11
-2.15837
 21
-23.627
  0
LINE
  8
0
 10
-2.15837
 20
-23.627
 11
-2.11855
 21
-23.5435
  0
LINE
  8
0
 10
-2.11855
 20
-23.5435
 11
-2.08018
 21
-23.4594
  0
LINE
  8
0
 10
-2.08018
 20
-23.4594
 11
-2.0433
 21
-23.3745
  0
LINE
  8
0
 10
-2.0433
 20
-23.3745
 11
-2.0079
 21
-23.2891
  0
LINE
  8
0
 10
-2.0079
 20
-23.2891
 11
-1.974
 21
-23.203
  0
LINE
  8
0
 10
-1.974
 20
-23.203
 11
-1.9416
 21
-23.1164
  0
LINE
  8
0
 10
-1.9416
 20
-23.1164
 11
-1.91072
 21
-23.0292
  0
LINE
  8
0
 10
-1.91072
 20
-23.0292
 11
-1.88138
 21
-22.9415
  0
LINE
  8
0
 10
-1.88138
 20
-22.9415
 11
-1.85356
 21
-22.8532
  0
LINE
  8
0
 10
-1.85356
 20
-22.8532
 11
-1.82729
 21
-22.7645
  0
LINE
  8
0
 10
-1.82729
 20
-22.7645
 11
-1.80257
 21
-22.6754
  0
LINE
  8
0
 10
-1.80257
 20
-22.6754
 11
-1.7794
 21
-22.5858
  0
LINE
  8
0
 10
-1.7794
 20
-22.5858
 11
-1.75781
 21
-22.4959
  0
LINE
  8
0
 10
-1.75781
 20
-22.4959
 11
-1.74953
 21
-22.4585
  0
LINE
  8
0
 10
-1.74953
 20
-22.4585
 11
-1.72687
 21
-22.4659
  0
LINE
  8
0
 10
-1.72687
 20
-22.4659
 11
-1.71237
 21
-22.2773
  0
LINE
  8
0
 10
-1.71237
 20
-22.2773
 11
-1.7025
 21
-22.224
  0
LINE
  8
0
 10
-1.7025
 20
-22.224
 11
-1.68723
 21
-22.1328
  0
LINE
  8
0
 10
-1.68723
 20
-22.1328
 11
-1.67355
 21
-22.0413
  0
LINE
  8
0
 10
-1.67355
 20
-22.0413
 11
-1.66148
 21
-21.9496
  0
LINE
  8
0
 10
-1.66148
 20
-21.9496
 11
-1.651
 21
-21.8577
  0
LINE
  8
0
 10
-1.651
 20
-21.8577
 11
-1.64214
 21
-21.7656
  0
LINE
  8
0
 10
-1.64214
 20
-21.7656
 11
-1.63489
 21
-21.6734
  0
LINE
  8
0
 10
-1.63489
 20
-21.6734
 11
-1.62924
 21
-21.581
  0
LINE
  8
0
 10
-1.62924
 20
-21.581
 11
-1.6252
 21
-21.4886
  0
LINE
  8
0
 10
-1.6252
 20
-21.4886
 11
-1.62279
 21
-21.3961
  0
LINE
  8
0
 10
-1.62279
 20
-21.3961
 11
-1.62198
 21
-21.3037
  0
LINE
  8
0
 10
-1.62198
 20
-21.3037
 11
-1.62279
 21
-21.2112
  0
LINE
  8
0
 10
-1.62279
 20
-21.2112
 11
-1.62473
 21
-21.137
  0
LINE
  8
0
 10
-1.62473
 20
-21.137
 11
-0.549866
 21
-7.15363
  0
LINE
  8
0
 10
-0.549866
 20
-7.15363
 11
-0.500488
 21
-7.15752
  0
LINE
  8
0
 10
-0.500488
 20
-7.15752
 11
-0.375504
 21
-7.16516
  0
LINE
  8
0
 10
-0.375504
 20
-7.16516
 11
-0.250397
 21
-7.17062
  0
LINE
  8
0
 10
-0.250397
 20
-7.17062
 11
-0.125214
 21
-7.1739
  0
LINE
  8
0
 10
-0.125214
 20
-7.1739
 11
0
 21
-7.17499
  0
LINE
  8
0
 10
0
 20
-7.17499
 11
0.125214
 21
-7.1739
  0
LINE
  8
0
 10
0.125214
 20
-7.1739
 11
0.250397
 21
-7.17062
  0
LINE
  8
0
 10
0.250397
 20
-7.17062
 11
0.375504
 21
-7.16516
  0
LINE
  8
0
 10
0.375504
 20
-7.16516
 11
0.500488
 21
-7.15752
  0
LINE
  8
0
 10
0.500488
 20
-7.15752
 11
0.549866
 21
-7.15363
  0
LINE
  8
0
 10
0.549866
 20
-7.15363
 11
1.62473
 21
-21.137
  0
LINE
  8
0
 10
1.62473
 20
-21.137
 11
1.62279
 21
-21.2112
  0
LINE
  8
0
 10
1.62279
 20
-21.2112
 11
1.62198
 21
-21.3037
  0
LINE
  8
0
 10
1.62198
 20
-21.3037
 11
1.62279
 21
-21.3961
  0
LINE
  8
0
 10
1.62279
 20
-21.3961
 11
1.6252
 21
-21.4886
  0
LINE
  8
0
 10
1.6252
 20
-21.4886
 11
1.62924
 21
-21.581
  0
LINE
  8
0
 10
1.62924
 20
-21.581
 11
1.63489
 21
-21.6734
  0
LINE
  8
0
 10
1.63489
 20
-21.6734
 11
1.64214
 21
-21.7656
  0
LINE
  8
0
 10
1.64214
 20
-21.7656
 11
1.651
 21
-21.8577
  0
LINE
  8
0
 10
1.651
 20
-21.8577
 11
1.66148
 21
-21.9496
  0
LINE
  8
0
 10
1.66148
 20
-21.9496
 11
1.67355
 21
-22.0413
  0
LINE
  8
0
 10
1.67355
 20
-22.0413
 11
1.68723
 21
-22.1328
  0
LINE
  8
0
 10
1.68723
 20
-22.1328
 11
1.7025
 21
-22.224
  0
LINE
  8
0
 10
1.7025
 20
-22.224
 11
1.71237
 21
-22.2773
  0
LINE
  8
0
 10
1.71237
 20
-22.2773
 11
1.72687
 21
-22.4659
  0
LINE
  8
0
 10
1.72687
 20
-22.4659
 11
1.74953
 21
-22.4585
  0
LINE
  8
0
 10
1.74953
 20
-22.4585
 11
1.75781
 21
-22.4959
  0
LINE
  8
0
 10
1.75781
 20
-22.4959
 11
1.7794
 21
-22.5858
  0
LINE
  8
0
 10
1.7794
 20
-22.5858
 11
1.80257
 21
-22.6754
  0
LINE
  8
0
 10
1.80257
 20
-22.6754
 11
1.82729
 21
-22.7645
  0
LINE
  8
0
 10
1.82729
 20
-22.7645
 11
1.85356
 21
-22.8532
  0
LINE
  8
0
 10
1.85356
 20
-22.8532
 11
1.88138
 21
-22.9415
  0
LINE
  8
0
 10
1.88138
 20
-22.9415
 11
1.91072
 21
-23.0292
  0
LINE
  8
0
 10
1.91072
 20
-23.0292
 11
1.9416
 21
-23.1164
  0
LINE
  8
0
 10
1.9416
 20
-23.1164
 11
1.974
 21
-23.203
  0
LINE
  8
0
 10
1.974
 20
-23.203
 11
2.0079
 21
-23.2891
  0
LINE
  8
0
 10
2.0079
 20
-23.2891
 11
2.0433
 21
-23.3745
  0
LINE
  8
0
 10
2.0433
 20
-23.3745
 11
2.08018
 21
-23.4594
  0
LINE
  8
0
 10
2.08018
 20
-23.4594
 11
2.11855
 21
-23.5435
  0
LINE
  8
0
 10
2.11855
 20
-23.5435
 11
2.15837
 21
-23.627
  0
LINE
  8
0
 10
2.15837
 20
-23.627
 11
2.19965
 21
-23.7098
  0
LINE
  8
0
 10
2.19965
 20
-23.7098
 11
2.24236
 21
-23.7919
  0
LINE
  8
0
 10
2.24236
 20
-23.7919
 11
2.28648
 21
-23.8732
  0
LINE
  8
0
 10
2.28648
 20
-23.8732
 11
2.33203
 21
-23.9537
  0
LINE
  8
0
 10
2.33203
 20
-23.9537
 11
2.37898
 21
-24.0334
  0
LINE
  8
0
 10
2.37898
 20
-24.0334
 11
2.42732
 21
-24.1122
  0
LINE
  8
0
 10
2.42732
 20
-24.1122
 11
2.47702
 21
-24.1902
  0
LINE
  8
0
 10
2.47702
 20
-24.1902
 11
2.52808
 21
-24.2674
  0
LINE
  8
0
 10
2.52808
 20
-24.2674
 11
2.58046
 21
-24.3436
  0
LINE
  8
0
 10
2.58046
 20
-24.3436
 11
2.63419
 21
-24.4189
  0
LINE
  8
0
 10
2.63419
 20
-24.4189
 11
2.68921
 21
-24.4933
  0
LINE
  8
0
 10
2.68921
 20
-24.4933
 11
2.74551
 21
-24.5667
  0
LINE
  8
0
 10
2.74551
 20
-24.5667
 11
2.8031
 21
-24.6391
  0
LINE
  8
0
 10
2.8031
 20
-24.6391
 11
2.86194
 21
-24.7104
  0
LINE
  8
0
 10
2.86194
 20
-24.7104
 11
2.92201
 21
-24.7808
  0
LINE
  8
0
 10
2.92201
 20
-24.7808
 11
2.98331
 21
-24.8501
  0
LINE
  8
0
 10
2.98331
 20
-24.8501
 11
3.04579
 21
-24.9182
  0
LINE
  8
0
 10
3.04579
 20
-24.9182
 11
3.10947
 21
-24.9854
  0
LINE
  8
0
 10
3.10947
 20
-24.9854
 11
3.1743
 21
-25.0513
  0
LINE
  8
0
 10
3.1743
 20
-25.0513
 11
3.24028
 21
-25.1162
  0
LINE
  8
0
 10
3.24028
 20
-25.1162
 11
3.30739
 21
-25.1798
  0
LINE
  8
0
 10
3.30739
 20
-25.1798
 11
3.37558
 21
-25.2423
  0
LINE
  8
0
 10
3.37558
 20
-25.2423
 11
3.44485
 21
-25.3036
  0
LINE
  8
0
 10
3.44485
 20
-25.3036
 11
3.5152
 21
-25.3637
  0
LINE
  8
0
 10
3.5152
 20
-25.3637
 11
3.58658
 21
-25.4225
  0
LINE
  8
0
 10
3.58658
 20
-25.4225
 11
3.65897
 21
-25.4801
  0
LINE
  8
0
 10
3.65897
 20
-25.4801
 11
3.73236
 21
-25.5364
  0
LINE
  8
0
 10
3.73236
 20
-25.5364
 11
3.80672
 21
-25.5914
  0
LINE
  8
0
 10
3.80672
 20
-25.5914
 11
3.88202
 21
-25.6452
  0
LINE
  8
0
 10
3.88202
 20
-25.6452
 11
3.95825
 21
-25.6976
  0
LINE
  8
0
 10
3.95825
 20
-25.6976
 11
4.03539
 21
-25.7486
  0
LINE
  8
0
 10
4.03539
 20
-25.7486
 11
4.1134
 21
-25.7983
  0
LINE
  8
0
 10
4.1134
 20
-25.7983
 11
4.19228
 21
-25.8466
  0
LINE
  8
0
 10
4.19228
 20
-25.8466
 11
4.27197
 21
-25.8936
  0
LINE
  8
0
 10
4.27197
 20
-25.8936
 11
4.35248
 21
-25.9391
  0
LINE
  8
0
 10
4.35248
 20
-25.9391
 11
4.43378
 21
-25.9833
  0
LINE
  8
0
 10
4.43378
 20
-25.9833
 11
4.51582
 21
-26.026
  0
LINE
  8
0
 10
4.51582
 20
-26.026
 11
4.5986
 21
-26.0673
  0
LINE
  8
0
 10
4.5986
 20
-26.0673
 11
4.6821
 21
-26.1071
  0
LINE
  8
0
 10
4.6821
 20
-26.1071
 11
4.76627
 21
-26.1454
  0
LINE
  8
0
 10
4.76627
 20
-26.1454
 11
4.8511
 21
-26.1823
  0
LINE
  8
0
 10
4.8511
 20
-26.1823
 11
4.93655
 21
-26.2177
  0
LINE
  8
0
 10
4.93655
 20
-26.2177
 11
5.02263
 21
-26.2516
  0
LINE
  8
0
 10
5.02263
 20
-26.2516
 11
5.10927
 21
-26.284
  0
LINE
  8
0
 10
5.10927
 20
-26.284
 11
5.19646
 21
-26.3149
  0
LINE
  8
0
 10
5.19646
 20
-26.3149
 11
5.28418
 21
-26.3443
  0
LINE
  8
0
 10
5.28418
 20
-26.3443
 11
5.37241
 21
-26.3721
  0
LINE
  8
0
 10
5.37241
 20
-26.3721
 11
5.46109
 21
-26.3983
  0
LINE
  8
0
 10
5.46109
 20
-26.3983
 11
5.55023
 21
-26.4231
  0
LINE
  8
0
 10
5.55023
 20
-26.4231
 11
5.63979
 21
-26.4462
  0
LINE
  8
0
 10
5.63979
 20
-26.4462
 11
5.72974
 21
-26.4678
  0
LINE
  8
0
 10
5.72974
 20
-26.4678
 11
5.82004
 21
-26.4878
  0
LINE
  8
0
 10
5.82004
 20
-26.4878
 11
5.91069
 21
-26.5063
  0
LINE
  8
0
 10
5.91069
 20
-26.5063
 11
6.00163
 21
-26.5231
  0
LINE
  8
0
 10
6.00163
 20
-26.5231
 11
6.09286
 21
-26.5384
  0
LINE
  8
0
 10
6.09286
 20
-26.5384
 11
6.18436
 21
-26.5521
  0
LINE
  8
0
 10
6.18436
 20
-26.5521
 11
6.27606
 21
-26.5641
  0
LINE
  8
0
 10
6.27606
 20
-26.5641
 11
6.36797
 21
-26.5746
  0
LINE
  8
0
 10
6.36797
 20
-26.5746
 11
6.46005
 21
-26.5835
  0
LINE
  8
0
 10
6.46005
 20
-26.5835
 11
6.55226
 21
-26.5907
  0
LINE
  8
0
 10
6.55226
 20
-26.5907
 11
6.64459
 21
-26.5964
  0
LINE
  8
0
 10
6.64459
 20
-26.5964
 11
6.737
 21
-26.6004
  0
LINE
  8
0
 10
6.737
 20
-26.6004
 11
6.82947
 21
-26.6028
  0
LINE
  8
0
 10
6.82947
 20
-26.6028
 11
6.92197
 21
-26.6037
  0
LINE
  8
0
 10
6.92197
 20
-26.6037
 11
7.01447
 21
-26.6028
  0
LINE
  8
0
 10
-0.0523529
 20
-2.99954
 11
-0.104691
 21
-2.99817
  0
LINE
  8
0
 10
-0.104691
 20
-2.99817
 11
-0.156998
 21
-2.99588
  0
LINE
  8
0
 10
-0.156998
 20
-2.99588
 11
-0.209259
 21
-2.99269
  0
LINE
  8
0
 10
-0.209259
 20
-2.99269
 11
-0.261459
 21
-2.98857
  0
LINE
  8
0
 10
-0.261459
 20
-2.98857
 11
-0.313583
 21
-2.98355
  0
LINE
  8
0
 10
-0.313583
 20
-2.98355
 11
-0.365601
 21
-2.97763
  0
LINE
  8
0
 10
-0.365601
 20
-2.97763
 11
-0.417511
 21
-2.97079
  0
LINE
  8
0
 10
-0.417511
 20
-2.97079
 11
-0.469299
 21
-2.96306
  0
LINE
  8
0
 10
-0.469299
 20
-2.96306
 11
-0.520935
 21
-2.95442
  0
LINE
  8
0
 10
-0.520935
 20
-2.95442
 11
-0.572418
 21
-2.94487
  0
LINE
  8
0
 10
-0.572418
 20
-2.94487
 11
-0.623734
 21
-2.93443
  0
LINE
  8
0
 10
-0.623734
 20
-2.93443
 11
-0.67485
 21
-2.9231
  0
LINE
  8
0
 10
-0.67485
 20
-2.9231
 11
-0.725754
 21
-2.91087
  0
LINE
  8
0
 10
-0.725754
 20
-2.91087
 11
-0.776443
 21
-2.89777
  0
LINE
  8
0
 10
-0.776443
 20
-2.89777
 11
-0.826904
 21
-2.88377
  0
LINE
  8
0
 10
-0.826904
 20
-2.88377
 11
-0.877106
 21
-2.86891
  0
LINE
  8
0
 10
-0.877106
 20
-2.86891
 11
-0.927048
 21
-2.85316
  0
LINE
  8
0
 10
-0.927048
 20
-2.85316
 11
-0.9767
 21
-2.83655
  0
LINE
  8
0
 10
-0.9767
 20
-2.83655
 11
-1.02605
 21
-2.81908
  0
LINE
  8
0
 10
-1.02605
 20
-2.81908
 11
-1.0751
 21
-2.80074
  0
LINE
  8
0
 10
-1.0751
 20
-2.80074
 11
-1.12381
 21
-2.78154
  0
LINE
  8
0
 10
-1.12381
 20
-2.78154
 11
-1.17218
 21
-2.76151
  0
LINE
  8
0
 10
-1.17218
 20
-2.76151
 11
-1.2202
 21
-2.74063
  0
LINE
  8
0
 10
-1.2202
 20
-2.74063
 11
-1.26785
 21
-2.71892
  0
LINE
  8
0
 10
-1.26785
 20
-2.71892
 11
-1.31511
 21
-2.69638
  0
LINE
  8
0
 10
-1.31511
 20
-2.69638
 11
-1.36197
 21
-2.67302
  0
LINE
  8
0
 10
-1.36197
 20
-2.67302
 11
-1.4084
 21
-2.64883
  0
LINE
  8
0
 10
-1.4084
 20
-2.64883
 11
-1.45442
 21
-2.62386
  0
LINE
  8
0
 10
-1.45442
 20
-2.62386
 11
-1.5
 21
-2.59807
  0
LINE
  8
0
 10
-1.5
 20
-2.59807
 11
-1.5451
 21
-2.57149
  0
LINE
  8
0
 10
-1.5451
 20
-2.57149
 11
-1.58975
 21
-2.54414
  0
LINE
  8
0
 10
-1.58975
 20
-2.54414
 11
-1.63391
 21
-2.51601
  0
LINE
  8
0
 10
-1.63391
 20
-2.51601
 11
-1.67757
 21
-2.48711
  0
LINE
  8
0
 10
-1.67757
 20
-2.48711
 11
-1.72072
 21
-2.45744
  0
LINE
  8
0
 10
-1.72072
 20
-2.45744
 11
-1.76335
 21
-2.42705
  0
LINE
  8
0
 10
-1.76335
 20
-2.42705
 11
-1.80544
 21
-2.3959
  0
LINE
  8
0
 10
-1.80544
 20
-2.3959
 11
-1.84697
 21
-2.36403
  0
LINE
  8
0
 10
-1.84697
 20
-2.36403
 11
-1.88795
 21
-2.33144
  0
LINE
  8
0
 10
-1.88795
 20
-2.33144
 11
-1.92836
 21
-2.29813
  0
LINE
  8
0
 10
-1.92836
 20
-2.29813
 11
-1.96817
 21
-2.26411
  0
LINE
  8
0
 10
-1.96817
 20
-2.26411
 11
-2.00739
 21
-2.22943
  0
LINE
  8
0
 10
-2.00739
 20
-2.22943
 11
-2.04599
 21
-2.19405
  0
LINE
  8
0
 10
-2.04599
 20
-2.19405
 11
-2.08397
 21
-2.158
  0
LINE
  8
0
 10
-2.08397
 20
-2.158
 11
-2.12131
 21
-2.12131
  0
LINE
  8
0
 10
-2.12131
 20
-2.12131
 11
-2.158
 21
-2.08397
  0
LINE
  8
0
 10
-2.158
 20
-2.08397
 11
-2.19405
 21
-2.04599
  0
LINE
  8
0
 10
-2.19405
 20
-2.04599
 11
-2.22943
 21
-2.00739
  0
LINE
  8
0
 10
-2.22943
 20
-2.00739
 11
-2.26411
 21
-1.96817
  0
LINE
  8
0
 10
-2.26411
 20
-1.96817
 11
-2.29813
 21
-1.92836
  0
LINE
  8
0
 10
-2.29813
 20
-1.92836
 11
-2.33144
 21
-1.88795
  0
LINE
  8
0
 10
-2.33144
 20
-1.88795
 11
-2.36403
 21
-1.84697
  0
LINE
  8
0
 10
-2.36403
 20
-1.84697
 11
-2.3959
 21
-1.80544
  0
LINE
  8
0
 10
-2.3959
 20
-1.80544
 11
-2.42705
 21
-1.76335
  0
LINE
  8
0
 10
-2.42705
 20
-1.76335
 11
-2.45744
 21
-1.72072
  0
LINE
  8
0
 10
-2.45744
 20
-1.72072
 11
-2.48711
 21
-1.67757
  0
LINE
  8
0
 10
-2.48711
 20
-1.67757
 11
-2.51601
 21
-1.63391
  0
LINE
  8
0
 10
-2.51601
 20
-1.63391
 11
-2.54414
 21
-1.58975
  0
LINE
  8
0
 10
-2.54414
 20
-1.58975
 11
-2.57149
 21
-1.5451
  0
LINE
  8
0
 10
-2.57149
 20
-1.5451
 11
-2.59807
 21
-1.5
  0
LINE
  8
0
 10
-2.59807
 20
-1.5
 11
-2.62386
 21
-1.45442
  0
LINE
  8
0
 10
-2.62386
 20
-1.45442
 11
-2.64883
 21
-1.4084
  0
LINE
  8
0
 10
-2.64883
 20
-1.4084
 11
-2.67302
 21
-1.36197
  0
LINE
  8
0
 10
-2.67302
 20
-1.36197
 11
-2.69638
 21
-1.31511
  0
LINE
  8
0
 10
-2.69638
 20
-1.31511
 11
-2.71892
 21
-1.26785
  0
LINE
  8
0
 10
-2.71892
 20
-1.26785
 11
-2.74063
 21
-1.2202
  0
LINE
  8
0
 10
-2.74063
 20
-1.2202
 11
-2.76151
 21
-1.17218
  0
LINE
  8
0
 10
-2.76151
 20
-1.17218
 11
-2.78154
 21
-1.12381
  0
LINE
  8
0
 10
-2.78154
 20
-1.12381
 11
-2.80074
 21
-1.0751
  0
LINE
  8
0
 10
-2.80074
 20
-1.0751
 11
-2.81908
 21
-1.02605
  0
LINE
  8
0
 10
-2.81908
 20
-1.02605
 11
-2.83655
 21
-0.9767
  0
LINE
  8
0
 10
-2.83655
 20
-0.9767
 11
-2.85316
 21
-0.927048
  0
LINE
  8
0
 10
-2.85316
 20
-0.927048
 11
-2.86891
 21
-0.877106
  0
LINE
  8
0
 10
-2.86891
 20
-0.877106
 11
-2.88377
 21
-0.826904
  0
LINE
  8
0
 10
-2.88377
 20
-0.826904
 11
-2.89777
 21
-0.776443
  0
LINE
  8
0
 10
-2.89777
 20
-0.776443
 11
-2.91087
 21
-0.725754
  0
LINE
  8
0
 10
-2.91087
 20
-0.725754
 11
-2.9231
 21
-0.67485
  0
LINE
  8
0
 10
-2.9231
 20
-0.67485
 11
-2.93443
 21
-0.623734
  0
LINE
  8
0
 10
-2.93443
 20
-0.623734
 11
-2.94487
 21
-0.572418
  0
LINE
  8
0
 10
-2.94487
 20
-0.572418
 11
-2.95442
 21
-0.520935
  0
LINE
  8
0
 10
-2.95442
 20
-0.520935
 11
-2.96306
 21
-0.469299
  0
LINE
  8
0
 10
-2.96306
 20
-0.469299
 11
-2.97079
 21
-0.417511
  0
LINE
  8
0
 10
-2.97079
 20
-0.417511
 11
-2.97763
 21
-0.365601
  0
LINE
  8
0
 10
-2.97763
 20
-0.365601
 11
-2.98355
 21
-0.313583
  0
LINE
  8
0
 10
-2.98355
 20
-0.313583
 11
-2.98857
 21
-0.261459
  0
LINE
  8
0
 10
-2.98857
 20
-0.261459
 11
-2.99269
 21
-0.209259
  0
LINE
  8
0
 10
-2.99269
 20
-0.209259
 11
-2.99588
 21
-0.156998
  0
LINE
  8
0
 10
-2.99588
 20
-0.156998
 11
-2.99817
 21
-0.104691
  0
LINE
  8
0
 10
-2.99817
 20
-0.104691
 11
-2.99954
 21
-0.0523529
  0
LINE
  8
0
 10
-2.99954
 20
-0.0523529
 11
-3
 21
0
  0
LINE
  8
0
 10
-3
 20
0
 11
-2.99954
 21
0.0523529
  0
LINE
  8
0
 10
-2.99954
 20
0.0523529
 11
-2.99817
 21
0.104691
  0
LINE
  8
0
 10
-2.99817
 20
0.104691
 11
-2.99588
 21
0.156998
  0
LINE
  8
0
 10
-2.99588
 20
0.156998
 11
-2.99269
 21
0.209259
  0
LINE
  8
0
 10
-2.99269
 20
0.209259
 11
-2.98857
 21
0.261459
  0
LINE
  8
0
 10
-2.98857
 20
0.261459
 11
-2.98355
 21
0.313583
  0
LINE
  8
0
 10
-2.98355
 20
0.313583
 11
-2.97763
 21
0.365601
  0
LINE
  8
0
 10
-2.97763
 20
0.365601
 11
-2.97079
 21
0.417511
  0
LINE
  8
0
 10
-2.97079
 20
0.417511
 11
-2.96306
 21
0.469299
  0
LINE
  8
0
 10
-2.96306
 20
0.469299
 11
-2.95442
 21
0.520935
  0
LINE
  8
0
 10
-2.95442
 20
0.520935
 11
-2.94487
 21
0.572418
  0
LINE
  8
0
 10
-2.94487
 20
0.572418
 11
-2.93443
 21
0.623734
  0
LINE
  8
0
 10
-2.93443
 20
0.623734
 11
-2.9231
 21
0.67485
  0
LINE
  8
0
 10
-2.9231
 20
0.67485
 11
-2.91087
 21
0.725754
  0
LINE
  8
0
 10
-2.91087
 20
0.725754
 11
-2.89777
 21
0.776443
  0
LINE
  8
0
 10
-2.89777
 20
0.776443
 11
-2.88377
 21
0.826904
  0
LINE
  8
0
 10
-2.88377
 20
0.826904
 11
-2.86891
 21
0.877106
  0
LINE
  8
0
 10
-2.86891
 20
0.877106
 11
-2.85316
 21
0.927048
  0
LINE
  8
0
 10
-2.85316
 20
0.927048
 11
-2.83655
 21
0.9767
  0
LINE
  8
0
 10
-2.83655
 20
0.9767
 11
-2.81908
 21
1.02605
  0
LINE
  8
0
 10
-2.81908
 20
1.02605
 11
-2.80074
 21
1.0751
  0
LINE
  8
0
 10
-2.80074
 20
1.0751
 11
-2.78154
 21
1.12381
  0
LINE
  8
0
 10
-2.78154
 20
1.12381
 11
-2.76151
 21
1.17218
  0
LINE
  8
0
 10
-2.76151
 20
1.17218
 11
-2.74063
 21
1.2202
  0
LINE
  8
0
 10
-2.74063
 20
1.2202
 11
-2.71892
 21
1.26785
  0
LINE
  8
0
 10
-2.71892
 20
1.26785
 11
-2.69638
 21
1.31511
  0
LINE
  8
0
 10
-2.69638
 20
1.31511
 11
-2.67302
 21
1.36197
  0
LINE
  8
0
 10
-2.67302
 20
1.36197
 11
-2.64883
 21
1.4084
  0
LINE
  8
0
 10
-2.64883
 20
1.4084
 11
-2.62386
 21
1.45442
  0
LINE
  8
0
 10
-2.62386
 20
1.45442
 11
-2.59807
 21
1.5
  0
LINE
  8
0
 10
-2.59807
 20
1.5
 11
-2.57149
 21
1.5451
  0
LINE
  8
0
 10
-2.57149
 20
1.5451
 11
-2.54414
 21
1.58975
  0
LINE
  8
0
 10
-2.54414
 20
1.58975
 11
-2.51601
 21
1.63391
  0
LINE
  8
0
 10
-2.51601
 20
1.63391
 11
-2.48711
 21
1.67757
  0
LINE
  8
0
 10
-2.48711
 20
1.67757
 11
-2.45744
 21
1.72072
  0
LINE
  8
0
 10
-2.45744
 20
1.72072
 11
-2.42705
 21
1.76335
  0
LINE
  8
0
 10
-2.42705
 20
1.76335
 11
-2.3959
 21
1.80544
  0
LINE
  8
0
 10
-2.3959
 20
1.80544
 11
-2.36403
 21
1.84697
  0
LINE
  8
0
 10
-2.36403
 20
1.84697
 11
-2.33144
 21
1.88795
  0
LINE
  8
0
 10
-2.33144
 20
1.88795
 11
-2.29813
 21
1.92836
  0
LINE
  8
0
 10
-2.29813
 20
1.92836
 11
-2.26411
 21
1.96817
  0
LINE
  8
0
 10
-2.26411
 20
1.96817
 11
-2.22943
 21
2.00739
  0
LINE
  8
0
 10
-2.22943
 20
2.00739
 11
-2.19405
 21
2.04599
  0
LINE
  8
0
 10
-2.19405
 20
2.04599
 11
-2.158
 21
2.08397
  0
LINE
  8
0
 10
-2.158
 20
2.08397
 11
-2.12131
 21
2.12131
  0
LINE
  8
0
 10
-2.12131
 20
2.12131
 11
-2.08397
 21
2.158
  0
LINE
  8
0
 10
-2.08397
 20
2.158
 11
-2.04599
 21
2.19405
  0
LINE
  8
0
 10
-2.04599
 20
2.19405
 11
-2.00739
 21
2.22943
  0
LINE
  8
0
 10
-2.00739
 20
2.22943
 11
-1.96817
 21
2.26411
  0
LINE
  8
0
 10
-1.96817
 20
2.26411
 11
-1.92836
 21
2.29813
  0
LINE
  8
0
 10
-1.92836
 20
2.29813
 11
-1.88795
 21
2.33144
  0
LINE
  8
0
 10
-1.88795
 20
2.33144
 11
-1.84697
 21
2.36403
  0
LINE
  8
0
 10
-1.84697
 20
2.36403
 11
-1.80544
 21
2.3959
  0
LINE
  8
0
 10
-1.80544
 20
2.3959
 11
-1.76335
 21
2.42705
  0
LINE
  8
0
 10
-1.76335
 20
2.42705
 11
-1.72072
 21
2.45744
  0
LINE
  8
0
 10
-1.72072
 20
2.45744
 11
-1.67757
 21
2.48711
  0
LINE
  8
0
 10
-1.67757
 20
2.48711
 11
-1.63391
 21
2.51601
  0
LINE
  8
0
 10
-1.63391
 20
2.51601
 11
-1.58975
 21
2.54414
  0
LINE
  8
0
 10
-1.58975
 20
2.54414
 11
-1.5451
 21
2.57149
  0
LINE
  8
0
 10
-1.5451
 20
2.57149
 11
-1.5
 21
2.59807
  0
LINE
  8
0
 10
-1.5
 20
2.59807
 11
-1.45442
 21
2.62386
  0
LINE
  8
0
 10
-1.45442
 20
2.62386
 11
-1.4084
 21
2.64883
  0
LINE
  8
0
 10
-1.4084
 20
2.64883
 11
-1.36197
 21
2.67302
  0
LINE
  8
0
 10
-1.36197
 20
2.67302
 11
-1.31511
 21
2.69638
  0
LINE
  8
0
 10
-1.31511
 20
2.69638
 11
-1.26785
 21
2.71892
  0
LINE
  8
0
 10
-1.26785
 20
2.71892
 11
-1.2202
 21
2.74063
  0
LINE
  8
0
 10
-1.2202
 20
2.74063
 11
-1.17218
 21
2.76151
  0
LINE
  8
0
 10
-1.17218
 20
2.76151
 11
-1.12381
 21
2.78154
  0
LINE
  8
0
 10
-1.12381
 20
2.78154
 11
-1.0751
 21
2.80074
  0
LINE
  8
0
 10
-1.0751
 20
2.80074
 11
-1.02605
 21
2.81908
  0
LINE
  8
0
 10
-1.02605
 20
2.81908
 11
-0.9767
 21
2.83655
  0
LINE
  8
0
 10
-0.9767
 20
2.83655
 11
-0.927048
 21
2.85316
  0
LINE
  8
0
 10
-0.927048
 20
2.85316
 11
-0.877106
 21
2.86891
  0
LINE
  8
0
 10
-0.877106
 20
2.86891
 11
-0.826904
 21
2.88377
  0
LINE
  8
0
 10
-0.826904
 20
2.88377
 11
-0.776443
 21
2.89777
  0
LINE
  8
0
 10
-0.776443
 20
2.89777
 11
-0.725754
 21
2.91087
  0
LINE
  8
0
 10
-0.725754
 20
2.91087
 11
-0.67485
 21
2.9231
  0
LINE
  8
0
 10
-0.67485
 20
2.9231
 11
-0.623734
 21
2.93443
  0
LINE
  8
0
 10
-0.623734
 20
2.93443
 11
-0.572418
 21
2.94487
  0
LINE
  8
0
 10
-0.572418
 20
2.94487
 11
-0.520935
 21
2.95442
  0
LINE
  8
0
 10
-0.520935
 20
2.95442
 11
-0.469299
 21
2.96306
  0
LINE
  8
0
 10
-0.469299
 20
2.96306
 11
-0.417511
 21
2.97079
  0
LINE
  8
0
 10
-0.417511
 20
2.97079
 11
-0.365601
 21
2.97763
  0
LINE
  8
0
 10
-0.365601
 20
2.97763
 11
-0.313583
 21
2.98355
  0
LINE
  8
0
 10
-0.313583
 20
2.98355
 11
-0.261459
 21
2.98857
  0
LINE
  8
0
 10
-0.261459
 20
2.98857
 11
-0.209259
 21
2.99269
  0
LINE
  8
0
 10
-0.209259
 20
2.99269
 11
-0.156998
 21
2.99588
  0
LINE
  8
0
 10
-0.156998
 20
2.99588
 11
-0.104691
 21
2.99817
  0
LINE
  8
0
 10
-0.104691
 20
2.99817
 11
-0.0523529
 21
2.99954
  0
LINE
  8
0
 10
-0.0523529
 20
2.99954
 11
0
 21
3
  0
LINE
  8
0
 10
0
 20
3
 11
0.0523529
 21
2.99954
  0
LINE
  8
0
 10
0.0523529
 20
2.99954
 11
0.104691
 21
2.99817
  0
LINE
  8
0
 10
0.104691
 20
2.99817
 11
0.156998
 21
2.99588
  0
LINE
  8
0
 10
0.156998
 20
2.99588
 11
0.209259
 21
2.99269
  0
LINE
  8
0
 10
0.209259
 20
2.99269
 11
0.261459
 21
2.98857
  0
LINE
  8
0
 10
0.261459
 20
2.98857
 11
0.313583
 21
2.98355
  0
LINE
  8
0
 10
0.313583
 20
2.98355
 11
0.365601
 21
2.97763
  0
LINE
  8
0
 10
0.365601
 20
2.97763
 11
0.417511
 21
2.97079
  0
LINE
  8
0
 10
0.417511
 20
2.97079
 11
0.469299
 21
2.96306
  0
LINE
  8
0
 10
0.469299
 20
2.96306
 11
0.520935
 21
2.95442
  0
LINE
  8
0
 10
0.520935
 20
2.95442
 11
0.572418
 21
2.94487
  0
LINE
  8
0
 10
0.572418
 20
2.94487
 11
0.623734
 21
2.93443
  0
LINE
  8
0
 10
0.623734
 20
2.93443
 11
0.67485
 21
2.9231
  0
LINE
  8
0
 10
0.67485
 20
2.9231
 11
0.725754
 21
2.91087
  0
LINE
  8
0
 10
0.725754
 20
2.91087
 11
0.776443
 21
2.89777
  0
LINE
  8
0
 10
0.776443
 20
2.89777
 11
0.826904
 21
2.88377
  0
LINE
  8
0
 10
0.826904
 20
2.88377
 11
0.877106
 21
2.86891
  0
LINE
  8
0
 10
0.877106
 20
2.86891
 11
0.927048
 21
2.85316
  0
LINE
  8
0
 10
0.927048
 20
2.85316
 11
0.9767
 21
2.83655
  0
LINE
  8
0
 10
0.9767
 20
2.83655
 11
1.02605
 21
2.81908
  0
LINE
  8
0
 10
1.02605
 20
2.81908
 11
1.0751
 21
2.80074
  0
LINE
  8
0
 10
1.0751
 20
2.80074
 11
1.12381
 21
2.78154
  0
LINE
  8
0
 10
1.12381
 20
2.78154
 11
1.17218
 21
2.76151
  0
LINE
  8
0
 10
1.17218
 20
2.76151
 11
1.2202
 21
2.74063
  0
LINE
  8
0
 10
1.2202
 20
2.74063
 11
1.26785
 21
2.71892
  0
LINE
  8
0
 10
1.26785
 20
2.71892
 11
1.31511
 21
2.69638
  0
LINE
  8
0
 10
1.31511
 20
2.69638
 11
1.36197
 21
2.67302
  0
LINE
  8
0
 10
1.36197
 20
2.67302
 11
1.4084
 21
2.64883
  0
LINE
  8
0
 10
1.4084
 20
2.64883
 11
1.45442
 21
2.62386
  0
LINE
  8
0
 10
1.45442
 20
2.62386
 11
1.5
 21
2.59807
  0
LINE
  8
0
 10
1.5
 20
2.59807
 11
1.5451
 21
2.57149
  0
LINE
  8
0
 10
1.5451
 20
2.57149
 11
1.58975
 21
2.54414
  0
LINE
  8
0
 10
1.58975
 20
2.54414
 11
1.63391
 21
2.51601
  0
LINE
  8
0
 10
1.63391
 20
2.51601
 11
1.67757
 21
2.48711
  0
LINE
  8
0
 10
1.67757
 20
2.48711
 11
1.72072
 21
2.45744
  0
LINE
  8
0
 10
1.72072
 20
2.45744
 11
1.76335
 21
2.42705
  0
LINE
  8
0
 10
1.76335
 20
2.42705
 11
1.80544
 21
2.3959
  0
LINE
  8
0
 10
1.80544
 20
2.3959
 11
1.84697
 21
2.36403
  0
LINE
  8
0
 10
1.84697
 20
2.36403
 11
1.88795
 21
2.33144
  0
LINE
  8
0
 10
1.88795
 20
2.33144
 11
1.92836
 21
2.29813
  0
LINE
  8
0
 10
1.92836
 20
2.29813
 11
1.96817
 21
2.26411
  0
LINE
  8
0
 10
1.96817
 20
2.26411
 11
2.00739
 21
2.22943
  0
LINE
  8
0
 10
2.00739
 20
2.22943
 11
2.04599
 21
2.19405
  0
LINE
  8
0
 10
2.04599
 20
2.19405
 11
2.08397
 21
2.158
  0
LINE
  8
0
 10
2.08397
 20
2.158
 11
2.12131
 21
2.12131
  0
LINE
  8
0
 10
2.12131
 20
2.12131
 11
2.158
 21
2.08397
  0
LINE
  8
0
 10
2.158
 20
2.08397
 11
2.19405
 21
2.04599
  0
LINE
  8
0
 10
2.19405
 20
2.04599
 11
2.22943
 21
2.00739
  0
LINE
  8
0
 10
2.22943
 20
2.00739
 11
2.26411
 21
1.96817
  0
LINE
  8
0
 10
2.26411
 20
1.96817
 11
2.29813
 21
1.92836
  0
LINE
  8
0
 10
2.29813
 20
1.92836
 11
2.33144
 21
1.88795
  0
LINE
  8
0
 10
2.33144
 20
1.88795
 11
2.36403
 21
1.84697
  0
LINE
  8
0
 10
2.36403
 20
1.84697
 11
2.3959
 21
1.80544
  0
LINE
  8
0
 10
2.3959
 20
1.80544
 11
2.42705
 21
1.76335
  0
LINE
  8
0
 10
2.42705
 20
1.76335
 11
2.45744
 21
1.72072
  0
LINE
  8
0
 10
2.45744
 20
1.72072
 11
2.48711
 21
1.67757
  0
LINE
  8
0
 10
2.48711
 20
1.67757
 11
2.51601
 21
1.63391
  0
LINE
  8
0
 10
2.51601
 20
1.63391
 11
2.54414
 21
1.58975
  0
LINE
  8
0
 10
2.54414
 20
1.58975
 11
2.57149
 21
1.5451
  0
LINE
  8
0
 10
2.57149
 20
1.5451
 11
2.59807
 21
1.5
  0
LINE
  8
0
 10
2.59807
 20
1.5
 11
2.62386
 21
1.45442
  0
LINE
  8
0
 10
2.62386
 20
1.45442
 11
2.64883
 21
1.4084
  0
LINE
  8
0
 10
2.64883
 20
1.4084
 11
2.67302
 21
1.36197
  0
LINE
  8
0
 10
2.67302
 20
1.36197
 11
2.69638
 21
1.31511
  0
LINE
  8
0
 10
2.69638
 20
1.31511
 11
2.71892
 21
1.26785
  0
LINE
  8
0
 10
2.71892
 20
1.26785
 11
2.74063
 21
1.2202
  0
LINE
  8
0
 10
2.74063
 20
1.2202
 11
2.76151
 21
1.17218
  0
LINE
  8
0
 10
2.76151
 20
1.17218
 11
2.78154
 21
1.12381
  0
LINE
  8
0
 10
2.78154
 20
1.12381
 11
2.80074
 21
1.0751
  0
LINE
  8
0
 10
2.80074
 20
1.0751
 11
2.81908
 21
1.02605
  0
LINE
  8
0
 10
2.81908
 20
1.02605
 11
2.83655
 21
0.9767
  0
LINE
  8
0
 10
2.83655
 20
0.9767
 11
2.85316
 21
0.927048
  0
LINE
  8
0
 10
2.85316
 20
0.927048
 11
2.86891
 21
0.877106
  0
LINE
  8
0
 10
2.86891
 20
0.877106
 11
2.88377
 21
0.826904
  0
LINE
  8
0
 10
2.88377
 20
0.826904
 11
2.89777
 21
0.776443
  0
LINE
  8
0
 10
2.89777
 20
0.776443
 11
2.91087
 21
0.725754
  0
LINE
  8
0
 10
2.91087
 20
0.725754
 11
2.9231
 21
0.67485
  0
LINE
  8
0
 10
2.9231
 20
0.67485
 11
2.93443
 21
0.623734
  0
LINE
  8
0
 10
2.93443
 20
0.623734
 11
2.94487
 21
0.572418
  0
LINE
  8
0
 10
2.94487
 20
0.572418
 11
2.95442
 21
0.520935
  0
LINE
  8
0
 10
2.95442
 20
0.520935
 11
2.96306
 21
0.469299
  0
LINE
  8
0
 10
2.96306
 20
0.469299
 11
2.97079
 21
0.417511
  0
LINE
  8
0
 10
2.97079
 20
0.417511
 11
2.97763
 21
0.365601
  0
LINE
  8
0
 10
2.97763
 20
0.365601
 11
2.98355
 21
0.313583
  0
LINE
  8
0
 10
2.98355
 20
0.313583
 11
2.98857
 21
0.261459
  0
LINE
  8
0
 10
2.98857
 20
0.261459
 11
2.99269
 21
0.209259
  0
LINE
  8
0
 10
2.99269
 20
0.209259
 11
2.99588
 21
0.156998
  0
LINE
  8
0
 10
2.99588
 20
0.156998
 11
2.99817
 21
0.104691
  0
LINE
  8
0
 10
2.99817
 20
0.104691
 11
2.99954
 21
0.0523529
  0
LINE
  8
0
 10
2.99954
 20
0.0523529
 11
3
 21
0
  0
LINE
  8
0
 10
3
 20
0
 11
2.99954
 21
-0.0523529
  0
LINE
  8
0
 10
2.99954
 20
-0.0523529
 11
2.99817
 21
-0.104691
  0
LINE
  8
0
 10
2.99817
 20
-0.104691
 11
2.99588
 21
-0.156998
  0
LINE
  8
0
 10
2.99588
 20
-0.156998
 11
2.99269
 21
-0.209259
  0
LINE
  8
0
 10
2.99269
 20
-0.209259
 11
2.98857
 21
-0.261459
  0
LINE
  8
0
 10
2.98857
 20
-0.261459
 11
2.98355
 21
-0.313583
  0
LINE
  8
0
 10
2.98355
 20
-0.313583
 11
2.97763
 21
-0.365601
  0
LINE
  8
0
 10
2.97763
 20
-0.365601
 11
2.97079
 21
-0.417511
  0
LINE
  8
0
 10
2.97079
 20
-0.417511
 11
2.96306
 21
-0.469299
  0
LINE
  8
0
 10
2.96306
 20
-0.469299
 11
2.95442
 21
-0.520935
  0
LINE
  8
0
 10
2.95442
 20
-0.520935
 11
2.94487
 21
-0.572418
  0
LINE
  8
0
 10
2.94487
 20
-0.572418
 11
2.93443
 21
-0.623734
  0
LINE
  8
0
 10
2.93443
 20
-0.623734
 11
2.9231
 21
-0.67485
  0
LINE
  8
0
 10
2.9231
 20
-0.67485
 11
2.91087
 21
-0.725754
  0
LINE
  8
0
 10
2.91087
 20
-0.725754
 11
2.89777
 21
-0.776443
  0
LINE
  8
0
 10
2.89777
 20
-0.776443
 11
2.88377
 21
-0.826904
  0
LINE
  8
0
 10
2.88377
 20
-0.826904
 11
2.86891
 21
-0.877106
  0
LINE
  8
0
 10
2.86891
 20
-0.877106
 11
2.85316
 21
-0.927048
  0
LINE
  8
0
 10
2.85316
 20
-0.927048
 11
2.83655
 21
-0.9767
  0
LINE
  8
0
 10
2.83655
 20
-0.9767
 11
2.81908
 21
-1.02605
  0
LINE
  8
0
 10
2.81908
 20
-1.02605
 11
2.80074
 21
-1.0751
  0
LINE
  8
0
 10
2.80074
 20
-1.0751
 11
2.78154
 21
-1.12381
  0
LINE
  8
0
 10
2.78154
 20
-1.12381
 11
2.76151
 21
-1.17218
  0
LINE
  8
0
 10
2.76151
 20
-1.17218
 11
2.74063
 21
-1.2202
  0
LINE
  8
0
 10
2.74063
 20
-1.2202
 11
2.71892
 21
-1.26785
  0
LINE
  8
0
 10
2.71892
 20
-1.26785
 11
2.69638
 21
-1.31511
  0
LINE
  8
0
 10
2.69638
 20
-1.31511
 11
2.67302
 21
-1.36197
  0
LINE
  8
0
 10
2.67302
 20
-1.36197
 11
2.64883
 21
-1.4084
  0
LINE
  8
0
 10
2.64883
 20
-1.4084
 11
2.62386
 21
-1.45442
  0
LINE
  8
0
 10
2.62386
 20
-1.45442
 11
2.59807
 21
-1.5
  0
LINE
  8
0
 10
2.59807
 20
-1.5
 11
2.57149
 21
-1.5451
  0
LINE
  8
0
 10
2.57149
 20
-1.5451
 11
2.54414
 21
-1.58975
  0
LINE
  8
0
 10
2.54414
 20
-1.58975
 11
2.51601
 21
-1.63391
  0
LINE
  8
0
 10
2.51601
 20
-1.63391
 11
2.48711
 21
-1.67757
  0
LINE
  8
0
 10
2.48711
 20
-1.67757
 11
2.45744
 21
-1.72072
  0
LINE
  8
0
 10
2.45744
 20
-1.72072
 11
2.42705
 21
-1.76335
  0
LINE
  8
0
 10
2.42705
 20
-1.76335
 11
2.3959
 21
-1.80544
  0
LINE
  8
0
 10
2.3959
 20
-1.80544
 11
2.36403
 21
-1.84697
  0
LINE
  8
0
 10
2.36403
 20
-1.84697
 11
2.33144
 21
-1.88795
  0
LINE
  8
0
 10
2.33144
 20
-1.88795
 11
2.29813
 21
-1.92836
  0
LINE
  8
0
 10
2.29813
 20
-1.92836
 11
2.26411
 21
-1.96817
  0
LINE
  8
0
 10
2.26411
 20
-1.96817
 11
2.22943
 21
-2.00739
  0
LINE
  8
0
 10
2.22943
 20
-2.00739
 11
2.19405
 21
-2.04599
  0
LINE
  8
0
 10
2.19405
 20
-2.04599
 11
2.158
 21
-2.08397
  0
LINE
  8
0
 10
2.158
 20
-2.08397
 11
2.12131
 21
-2.12131
  0
LINE
  8
0
 10
2.12131
 20
-2.12131
 11
2.08397
 21
-2.158
  0
LINE
  8
0
 10
2.08397
 20
-2.158
 11
2.04599
 21
-2.19405
  0
LINE
  8
0
 10
2.04599
 20
-2.19405
 11
2.00739
 21
-2.22943
  0
LINE
  8
0
 10
2.00739
 20
-2.22943
 11
1.96817
 21
-2.26411
  0
LINE
  8
0
 10
1.96817
 20
-2.26411
 11
1.92836
 21
-2.29813
  0
LINE
  8
0
 10
1.92836
 20
-2.29813
 11
1.88795
 21
-2.33144
  0
LINE
  8
0
 10
1.88795
 20
-2.33144
 11
1.84697
 21
-2.36403
  0
LINE
  8
0
 10
1.84697
 20
-2.36403
 11
1.80544
 21
-2.3959
  0
LINE
  8
0
 10
1.80544
 20
-2.3959
 11
1.76335
 21
-2.42705
  0
LINE
  8
0
 10
1.76335
 20
-2.42705
 11
1.72072
 21
-2.45744
  0
LINE
  8
0
 10
1.72072
 20
-2.45744
 11
1.67757
 21
-2.48711
  0
LINE
  8
0
 10
1.67757
 20
-2.48711
 11
1.63391
 21
-2.51601
  0
LINE
  8
0
 10
1.63391
 20
-2.51601
 11
1.58975
 21
-2.54414
  0
LINE
  8
0
 10
1.58975
 20
-2.54414
 11
1.5451
 21
-2.57149
  0
LINE
  8
0
 10
1.5451
 20
-2.57149
 11
1.5
 21
-2.59807
  0
LINE
  8
0
 10
1.5
 20
-2.59807
 11
1.45442
 21
-2.62386
  0
LINE
  8
0
 10
1.45442
 20
-2.62386
 11
1.4084
 21
-2.64883
  0
LINE
  8
0
 10
1.4084
 20
-2.64883
 11
1.36197
 21
-2.67302
  0
LINE
  8
0
 10
1.36197
 20
-2.67302
 11
1.31511
 21
-2.69638
  0
LINE
  8
0
 10
1.31511
 20
-2.69638
 11
1.26785
 21
-2.71892
  0
LINE
  8
0
 10
1.26785
 20
-2.71892
 11
1.2202
 21
-2.74063
  0
LINE
  8
0
 10
1.2202
 20
-2.74063
 11
1.17218
 21
-2.76151
  0
LINE
  8
0
 10
1.17218
 20
-2.76151
 11
1.12381
 21
-2.78154
  0
LINE
  8
0
 10
1.12381
 20
-2.78154
 11
1.0751
 21
-2.80074
  0
LINE
  8
0
 10
1.0751
 20
-2.80074
 11
1.02605
 21
-2.81908
  0
LINE
  8
0
 10
1.02605
 20
-2.81908
 11
0.9767
 21
-2.83655
  0
LINE
  8
0
 10
0.9767
 20
-2.83655
 11
0.927048
 21
-2.85316
  0
LINE
  8
0
 10
0.927048
 20
-2.85316
 11
0.877106
 21
-2.86891
  0
LINE
  8
0
 10
0.877106
 20
-2.86891
 11
0.826904
 21
-2.88377
  0
LINE
  8
0
 10
0.826904
 20
-2.88377
 11
0.776443
 21
-2.89777
  0
LINE
  8
0
 10
0.776443
 20
-2.89777
 11
0.725754
 21
-2.91087
  0
LINE
  8
0
 10
0.725754
 20
-2.91087
 11
0.67485
 21
-2.9231
  0
LINE
  8
0
 10
0.67485
 20
-2.9231
 11
0.623734
 21
-2.93443
  0
LINE
  8
0
 10
0.623734
 20
-2.93443
 11
0.572418
 21
-2.94487
  0
LINE
  8
0
 10
0.572418
 20
-2.94487
 11
0.520935
 21
-2.95442
  0
LINE
  8
0
 10
0.520935
 20
-2.95442
 11
0.469299
 21
-2.96306
  0
LINE
  8
0
 10
0.469299
 20
-2.96306
 11
0.417511
 21
-2.97079
  0
LINE
  8
0
 10
0.417511
 20
-2.97079
 11
0.365601
 21
-2.97763
  0
LINE
  8
0
 10
0.365601
 20
-2.97763
 11
0.313583
 21
-2.98355
  0
LINE
  8
0
 10
0.313583
 20
-2.98355
 11
0.261459
 21
-2.98857
  0
LINE
  8
0
 10
0.261459
 20
-2.98857
 11
0.209259
 21
-2.99269
  0
LINE
  8
0
 10
0.209259
 20
-2.99269
 11
0.156998
 21
-2.99588
  0
LINE
  8
0
 10
0.156998
 20
-2.99588
 11
0.104691
 21
-2.99817
  0
LINE
  8
0
 10
0.104691
 20
-2.99817
 11
0.0523529
 21
-2.99954
  0
LINE
  8
0
 10
0.0523529
 20
-2.99954
 11
0
 21
-3
  0
LINE
  8
0
 10
0
 20
-3
 11
-0.0523529
 21
-2.99954
  0
ENDSEC
  0
SECTION
  2
OBJECTS
  0
DICTIONARY
  0
ENDSEC
  0
EOF
